%TF.GenerationSoftware,KiCad,Pcbnew,10.0.3*%
%TF.CreationDate,2026-06-19T00:02:51+05:30*%
%TF.ProjectId,IMUBreakout,494d5542-7265-4616-9b6f-75742e6b6963,rev?*%
%TF.SameCoordinates,Original*%
%TF.FileFunction,Legend,Top*%
%TF.FilePolarity,Positive*%
%FSLAX46Y46*%
G04 Gerber Fmt 4.6, Leading zero omitted, Abs format (unit mm)*
G04 Created by KiCad (PCBNEW 10.0.3) date 2026-06-19 00:02:51*
%MOMM*%
%LPD*%
G01*
G04 APERTURE LIST*
G04 Aperture macros list*
%AMRoundRect*
0 Rectangle with rounded corners*
0 $1 Rounding radius*
0 $2 $3 $4 $5 $6 $7 $8 $9 X,Y pos of 4 corners*
0 Add a 4 corners polygon primitive as box body*
4,1,4,$2,$3,$4,$5,$6,$7,$8,$9,$2,$3,0*
0 Add four circle primitives for the rounded corners*
1,1,$1+$1,$2,$3*
1,1,$1+$1,$4,$5*
1,1,$1+$1,$6,$7*
1,1,$1+$1,$8,$9*
0 Add four rect primitives between the rounded corners*
20,1,$1+$1,$2,$3,$4,$5,0*
20,1,$1+$1,$4,$5,$6,$7,0*
20,1,$1+$1,$6,$7,$8,$9,0*
20,1,$1+$1,$8,$9,$2,$3,0*%
G04 Aperture macros list end*
%ADD10C,0.120000*%
%ADD11RoundRect,0.135000X0.185000X-0.135000X0.185000X0.135000X-0.185000X0.135000X-0.185000X-0.135000X0*%
%ADD12RoundRect,0.140000X-0.170000X0.140000X-0.170000X-0.140000X0.170000X-0.140000X0.170000X0.140000X0*%
%ADD13RoundRect,0.135000X-0.135000X-0.185000X0.135000X-0.185000X0.135000X0.185000X-0.135000X0.185000X0*%
%ADD14R,1.700000X1.700000*%
%ADD15C,1.700000*%
%ADD16RoundRect,0.218750X0.256250X-0.218750X0.256250X0.218750X-0.256250X0.218750X-0.256250X-0.218750X0*%
%ADD17RoundRect,0.087500X-0.087500X0.225000X-0.087500X-0.225000X0.087500X-0.225000X0.087500X0.225000X0*%
%ADD18RoundRect,0.087500X-0.225000X0.087500X-0.225000X-0.087500X0.225000X-0.087500X0.225000X0.087500X0*%
G04 APERTURE END LIST*
%TO.C,R2*%
D10*
X153420000Y-127353641D02*
X153420000Y-127046359D01*
X154180000Y-127353641D02*
X154180000Y-127046359D01*
%TO.C,C1*%
X152497200Y-127224964D02*
X152497200Y-127440636D01*
X153217200Y-127224964D02*
X153217200Y-127440636D01*
%TO.C,R1*%
X153211559Y-125299200D02*
X153518841Y-125299200D01*
X153211559Y-126059200D02*
X153518841Y-126059200D01*
%TO.C,J1*%
X156530000Y-123180000D02*
X157800000Y-123180000D01*
X156530000Y-124450000D02*
X156530000Y-123180000D01*
X158877358Y-126560000D02*
X159190000Y-126560000D01*
X158877358Y-127420000D02*
X159190000Y-127420000D01*
X158877358Y-129100000D02*
X159190000Y-129100000D01*
X158877358Y-129960000D02*
X159190000Y-129960000D01*
X158877358Y-131640000D02*
X159190000Y-131640000D01*
X158877358Y-132500000D02*
X159190000Y-132500000D01*
X158960000Y-124020000D02*
X159190000Y-124020000D01*
X158960000Y-124880000D02*
X159190000Y-124880000D01*
X159190000Y-125720000D02*
X161950000Y-125720000D01*
X159190000Y-128260000D02*
X161950000Y-128260000D01*
X159190000Y-130800000D02*
X161950000Y-130800000D01*
X161950000Y-126560000D02*
X167950000Y-126560000D01*
X161950000Y-129100000D02*
X167950000Y-129100000D01*
X161950000Y-131640000D02*
X167950000Y-131640000D01*
X167950000Y-126560000D02*
X167950000Y-127420000D01*
X167950000Y-127420000D02*
X161950000Y-127420000D01*
X167950000Y-129100000D02*
X167950000Y-129960000D01*
X167950000Y-129960000D02*
X161950000Y-129960000D01*
X167950000Y-131640000D02*
X167950000Y-132500000D01*
X167950000Y-132500000D02*
X161950000Y-132500000D01*
X159190000Y-123070000D02*
X161950000Y-123070000D01*
X161950000Y-133450000D01*
X159190000Y-133450000D01*
X159190000Y-123070000D01*
X161950000Y-124020000D02*
X167950000Y-124020000D01*
X167950000Y-124880000D01*
X161950000Y-124880000D01*
X161950000Y-124020000D01*
G36*
X161950000Y-124020000D02*
G01*
X167950000Y-124020000D01*
X167950000Y-124880000D01*
X161950000Y-124880000D01*
X161950000Y-124020000D01*
G37*
%TO.C,D1*%
X154435000Y-126007501D02*
X154435000Y-128292501D01*
X154435000Y-128292501D02*
X155905000Y-128292501D01*
X155905000Y-128292501D02*
X155905000Y-126007501D01*
%TO.C,U1*%
X153023100Y-128750801D02*
X153198100Y-128750802D01*
X153023100Y-129425801D02*
X153023100Y-128750801D01*
X153023100Y-131970801D02*
X153023100Y-131295801D01*
X153198100Y-131970800D02*
X153023100Y-131970801D01*
X155568100Y-128750802D02*
X155743100Y-128750801D01*
X155743100Y-128750801D02*
X155743100Y-129425801D01*
X155743100Y-131295801D02*
X155743100Y-131970801D01*
X155743100Y-131970801D02*
X155568100Y-131970800D01*
X155133100Y-128620801D02*
X154893099Y-128290801D01*
X155373100Y-128290801D01*
X155133100Y-128620801D01*
G36*
X155133100Y-128620801D02*
G01*
X154893099Y-128290801D01*
X155373100Y-128290801D01*
X155133100Y-128620801D01*
G37*
%TD*%
%LPC*%
D11*
%TO.C,R2*%
X153800000Y-127709999D03*
X153800000Y-126690001D03*
%TD*%
D12*
%TO.C,C1*%
X152857200Y-126852800D03*
X152857200Y-127812800D03*
%TD*%
D13*
%TO.C,R1*%
X152855200Y-125679200D03*
X153875200Y-125679200D03*
%TD*%
D14*
%TO.C,J1*%
X157800000Y-124450000D03*
D15*
X157800000Y-126990000D03*
X157800000Y-129530000D03*
X157800000Y-132070000D03*
%TD*%
D16*
%TO.C,D1*%
X155170000Y-127595002D03*
X155170000Y-126020000D03*
%TD*%
D17*
%TO.C,U1*%
X155133100Y-129198300D03*
X154633100Y-129198301D03*
X154133100Y-129198301D03*
X153633100Y-129198300D03*
D18*
X153470600Y-129860802D03*
X153470600Y-130360801D03*
X153470600Y-130860800D03*
D17*
X153633100Y-131523302D03*
X154133100Y-131523301D03*
X154633100Y-131523301D03*
X155133100Y-131523302D03*
D18*
X155295600Y-130860800D03*
X155295600Y-130360801D03*
X155295600Y-129860802D03*
%TD*%
%LPD*%
M02*
