M48
; DRILL file KiCad 10.0.3 date 2026-06-17T16:06:40
; FORMAT={-:-/ absolute / inch / decimal}
; #@! TF.CreationDate,2026-06-17T16:06:40+05:30
; #@! TF.GenerationSoftware,Kicad,Pcbnew,10.0.3
; #@! TF.FileFunction,Plated,1,2,PTH
FMAT,2
INCH
; #@! TA.AperFunction,Plated,PTH,ComponentDrill
T1C0.0315
; #@! TA.AperFunction,Plated,PTH,ComponentDrill
T2C0.0394
%
G90
G05
T1
X5.3248Y-2.3228
X5.3248Y-2.4228
X5.3248Y-2.5228
X5.3248Y-2.6228
X5.3248Y-2.7228
X5.3248Y-2.8228
X5.3248Y-2.9228
X5.3248Y-3.0228
X5.6248Y-2.3228
X5.6248Y-2.4228
X5.6248Y-2.5228
X5.6248Y-2.6228
X5.6248Y-2.7228
X5.6248Y-2.8228
X5.6248Y-2.9228
X5.6248Y-3.0228
T2
X5.1575Y-2.3512
X5.1575Y-2.4512
X5.1575Y-2.5512
X5.1575Y-2.6512
X5.1575Y-2.7512
X5.1575Y-2.8512
X5.1575Y-2.9512
X5.1575Y-3.0512
X5.7579Y-2.4984
X5.7579Y-2.5984
X5.7579Y-2.6984
X5.7579Y-2.7984
M30
