%TF.GenerationSoftware,KiCad,Pcbnew,10.0.3*%
%TF.CreationDate,2026-06-17T16:06:40+05:30*%
%TF.ProjectId,IOExpander,494f4578-7061-46e6-9465-722e6b696361,rev?*%
%TF.SameCoordinates,Original*%
%TF.FileFunction,Copper,L1,Top*%
%TF.FilePolarity,Positive*%
%FSLAX46Y46*%
G04 Gerber Fmt 4.6, Leading zero omitted, Abs format (unit mm)*
G04 Created by KiCad (PCBNEW 10.0.3) date 2026-06-17 16:06:40*
%MOMM*%
%LPD*%
G01*
G04 APERTURE LIST*
G04 Aperture macros list*
%AMRoundRect*
0 Rectangle with rounded corners*
0 $1 Rounding radius*
0 $2 $3 $4 $5 $6 $7 $8 $9 X,Y pos of 4 corners*
0 Add a 4 corners polygon primitive as box body*
4,1,4,$2,$3,$4,$5,$6,$7,$8,$9,$2,$3,0*
0 Add four circle primitives for the rounded corners*
1,1,$1+$1,$2,$3*
1,1,$1+$1,$4,$5*
1,1,$1+$1,$6,$7*
1,1,$1+$1,$8,$9*
0 Add four rect primitives between the rounded corners*
20,1,$1+$1,$2,$3,$4,$5,0*
20,1,$1+$1,$4,$5,$6,$7,0*
20,1,$1+$1,$6,$7,$8,$9,0*
20,1,$1+$1,$8,$9,$2,$3,0*%
G04 Aperture macros list end*
%TA.AperFunction,ComponentPad*%
%ADD10R,1.700000X1.700000*%
%TD*%
%TA.AperFunction,ComponentPad*%
%ADD11C,1.700000*%
%TD*%
%TA.AperFunction,ComponentPad*%
%ADD12RoundRect,0.250000X-0.550000X-0.550000X0.550000X-0.550000X0.550000X0.550000X-0.550000X0.550000X0*%
%TD*%
%TA.AperFunction,ComponentPad*%
%ADD13C,1.600000*%
%TD*%
%TA.AperFunction,SMDPad,CuDef*%
%ADD14RoundRect,0.225000X-0.225000X-0.250000X0.225000X-0.250000X0.225000X0.250000X-0.225000X0.250000X0*%
%TD*%
%TA.AperFunction,Conductor*%
%ADD15C,0.200000*%
%TD*%
G04 APERTURE END LIST*
D10*
%TO.P,J2,1,Pin_1_1*%
%TO.N,Net-(J2-Pin_1)*%
X131000000Y-77500000D03*
D11*
%TO.P,J2,2,Pin_2_2*%
%TO.N,Net-(J2-Pin_2)*%
X131000000Y-74960000D03*
%TO.P,J2,3,Pin_3_3*%
%TO.N,Net-(J2-Pin_3)*%
X131000000Y-72420000D03*
%TO.P,J2,4,Pin_4_4*%
%TO.N,Net-(J2-Pin_4)*%
X131000000Y-69880000D03*
%TO.P,J2,5,Pin_5_5*%
%TO.N,Net-(J2-Pin_5)*%
X131000000Y-67340000D03*
%TO.P,J2,6,Pin_6_6*%
%TO.N,Net-(J2-Pin_6)*%
X131000000Y-64800000D03*
%TO.P,J2,7,Pin_7_7*%
%TO.N,Net-(J2-Pin_7)*%
X131000000Y-62260000D03*
%TO.P,J2,8,Pin_8_8*%
%TO.N,Net-(J2-Pin_8)*%
X131000000Y-59720000D03*
%TD*%
D12*
%TO.P,U1,1,A0_1*%
%TO.N,GND*%
X135250000Y-59000000D03*
D13*
%TO.P,U1,2,A1_2*%
X135250000Y-61540000D03*
%TO.P,U1,3,A2_3*%
X135250000Y-64080000D03*
%TO.P,U1,4,P0_4*%
%TO.N,Net-(J2-Pin_1)*%
X135250000Y-66620000D03*
%TO.P,U1,5,P1_5*%
%TO.N,Net-(J2-Pin_2)*%
X135250000Y-69160000D03*
%TO.P,U1,6,P2_6*%
%TO.N,Net-(J2-Pin_3)*%
X135250000Y-71700000D03*
%TO.P,U1,7,P3_7*%
%TO.N,Net-(J2-Pin_4)*%
X135250000Y-74240000D03*
%TO.P,U1,8,GND_8*%
%TO.N,unconnected-(U1-GND-Pad8)*%
X135250000Y-76780000D03*
%TO.P,U1,9,P4_9*%
%TO.N,Net-(J2-Pin_5)*%
X142870000Y-76780000D03*
%TO.P,U1,10,P5_10*%
%TO.N,Net-(J2-Pin_6)*%
X142870000Y-74240000D03*
%TO.P,U1,11,P6_11*%
%TO.N,Net-(J2-Pin_7)*%
X142870000Y-71700000D03*
%TO.P,U1,12,P7_12*%
%TO.N,Net-(J2-Pin_8)*%
X142870000Y-69160000D03*
%TO.P,U1,13,~{INT}_13*%
%TO.N,GND*%
X142870000Y-66620000D03*
%TO.P,U1,14,SCL_14*%
%TO.N,/SCL*%
X142870000Y-64080000D03*
%TO.P,U1,15,SDA_15*%
%TO.N,/SDA*%
X142870000Y-61540000D03*
%TO.P,U1,16,VDD_16*%
%TO.N,+3V3*%
X142870000Y-59000000D03*
%TD*%
D14*
%TO.P,C2,1*%
%TO.N,GND*%
X144950000Y-60750000D03*
%TO.P,C2,2*%
%TO.N,+3V3*%
X146500000Y-60750000D03*
%TD*%
%TO.P,C1,1*%
%TO.N,GND*%
X144950000Y-59250000D03*
%TO.P,C1,2*%
%TO.N,+3V3*%
X146500000Y-59250000D03*
%TD*%
D10*
%TO.P,J1,1,Pin_1_1*%
%TO.N,+3V3*%
X146250000Y-63460000D03*
D11*
%TO.P,J1,2,Pin_2_2*%
%TO.N,GND*%
X146250000Y-66000000D03*
%TO.P,J1,3,Pin_3_3*%
%TO.N,/SCL*%
X146250000Y-68539999D03*
%TO.P,J1,4,Pin_4_4*%
%TO.N,/SDA*%
X146250000Y-71080000D03*
%TD*%
%TO.N,Net-(J2-Pin_1)*%
D15*
X134456346Y-66620000D02*
X135250000Y-66620000D01*
X129050000Y-75540000D02*
X129050000Y-65113654D01*
X131476346Y-63640000D02*
X134456346Y-66620000D01*
X129050000Y-65113654D02*
X130523654Y-63640000D01*
X131000000Y-77490000D02*
X129050000Y-75540000D01*
X130523654Y-63640000D02*
X131476346Y-63640000D01*
%TO.N,Net-(J2-Pin_2)*%
X129450000Y-67253654D02*
X130523654Y-66180000D01*
X129450000Y-73400000D02*
X129450000Y-67253654D01*
X131000000Y-74950000D02*
X129450000Y-73400000D01*
X134456346Y-69160000D02*
X135250000Y-69160000D01*
X131476346Y-66180000D02*
X134456346Y-69160000D01*
X130523654Y-66180000D02*
X131476346Y-66180000D01*
%TO.N,Net-(J2-Pin_3)*%
X131000000Y-72410001D02*
X129850000Y-71260001D01*
X130523654Y-68720000D02*
X131476346Y-68720000D01*
X131476346Y-68720000D02*
X134456346Y-71700000D01*
X134456346Y-71700000D02*
X135250000Y-71700000D01*
X129850000Y-69393654D02*
X130523654Y-68720000D01*
X129850000Y-71260001D02*
X129850000Y-69393654D01*
%TO.N,Net-(J2-Pin_4)*%
X131010000Y-69880000D02*
X135250000Y-74120000D01*
%TO.N,Net-(J2-Pin_5)*%
X136690000Y-70600000D02*
X142870000Y-76780000D01*
X134270000Y-70600000D02*
X136690000Y-70600000D01*
X131010000Y-67340000D02*
X134270000Y-70600000D01*
%TO.N,Net-(J2-Pin_6)*%
X133930000Y-67720000D02*
X131010000Y-64800000D01*
X142870000Y-74240000D02*
X136350000Y-67720000D01*
X136350000Y-67720000D02*
X133930000Y-67720000D01*
%TO.N,Net-(J2-Pin_7)*%
X134000000Y-65250000D02*
X136420000Y-65250000D01*
X131010000Y-62260000D02*
X134000000Y-65250000D01*
X136420000Y-65250000D02*
X142870000Y-71700000D01*
%TO.N,Net-(J2-Pin_8)*%
X136350000Y-62640000D02*
X142870000Y-69160000D01*
X131010000Y-59719999D02*
X133930001Y-62640000D01*
X133930001Y-62640000D02*
X136350000Y-62640000D01*
%TO.N,GND*%
X144770000Y-64520000D02*
X146250000Y-66000000D01*
X135250000Y-61540000D02*
X135250000Y-59000000D01*
X144950000Y-59250000D02*
X144950000Y-60750000D01*
X144770000Y-60930000D02*
X144770000Y-64520000D01*
X144950000Y-60750000D02*
X144770000Y-60930000D01*
%TO.N,/SCL*%
X142870000Y-64080000D02*
X141770000Y-62980000D01*
X144370000Y-66409999D02*
X146250000Y-68289999D01*
X142414365Y-60440000D02*
X143325635Y-60440000D01*
X144370000Y-61484365D02*
X144370000Y-66409999D01*
X141770000Y-61084365D02*
X142414365Y-60440000D01*
X143325635Y-60440000D02*
X144370000Y-61484365D01*
X141770000Y-62980000D02*
X141770000Y-61084365D01*
%TO.N,/SDA*%
X143970000Y-62640000D02*
X142870000Y-61540000D01*
X146250000Y-70830000D02*
X143970000Y-68550000D01*
X143970000Y-68550000D02*
X143970000Y-62640000D01*
%TO.N,+3V3*%
X146250000Y-63460000D02*
X146250000Y-59500000D01*
X142870000Y-59000000D02*
X143669999Y-58200001D01*
X146250000Y-59500000D02*
X146500000Y-59250000D01*
X143669999Y-58200001D02*
X145450001Y-58200001D01*
X145450001Y-58200001D02*
X146500000Y-59250000D01*
X146500000Y-60750000D02*
X146500000Y-59250000D01*
X146500000Y-59250000D02*
X146500000Y-58475000D01*
%TD*%
M02*
