M48
; DRILL file KiCad 10.0.3 date 2026-06-19T11:52:41
; FORMAT={-:-/ absolute / inch / decimal}
; #@! TF.CreationDate,2026-06-19T11:52:41+05:30
; #@! TF.GenerationSoftware,Kicad,Pcbnew,10.0.3
; #@! TF.FileFunction,Plated,1,2,PTH
FMAT,2
INCH
; #@! TA.AperFunction,Plated,PTH,ComponentDrill
T1C0.0079
; #@! TA.AperFunction,Plated,PTH,ViaDrill
T2C0.0118
; #@! TA.AperFunction,Plated,PTH,ComponentDrill
T3C0.0236
; #@! TA.AperFunction,Plated,PTH,ComponentDrill
T4C0.0394
%
G90
G05
T1
X9.7977Y-4.7266
X9.7977Y-4.7731
X9.8441Y-4.7266
X9.8441Y-4.7731
X10.1422Y-4.9264
X10.1422Y-4.9729
X10.1887Y-4.9264
X10.1887Y-4.9729
T2
X9.6083Y-5.8563
X9.6835Y-4.8268
X9.685Y-4.7087
X9.7041Y-5.4673
X9.7283Y-5.6358
X9.7734Y-4.823
X9.7865Y-4.689
X9.7992Y-4.6142
X9.81Y-5.476
X9.8373Y-4.8406
X9.8406Y-5.5846
X9.8708Y-5.8767
X9.8799Y-4.6772
X9.8799Y-5.6201
X9.8807Y-4.8043
X9.9049Y-5.6583
X9.9146Y-5.74
X9.9193Y-4.7598
X9.9646Y-5.4213
X9.9921Y-5.3406
X10.0709Y-4.8858
X10.1063Y-4.8583
X10.1063Y-5.5394
X10.1116Y-5.3759
X10.122Y-5.2402
X10.1523Y-4.8416
X10.1575Y-5.1677
X10.1743Y-5.0798
X10.1817Y-5.2179
X10.1957Y-5.3091
X10.2205Y-5.3661
X10.2504Y-5.3563
X10.26Y-5.2005
X10.2908Y-5.1608
T4
X9.418Y-6.22
X9.4449Y-5.0118
X9.472Y-5.158
X9.472Y-5.258
X9.472Y-5.358
X9.472Y-5.458
X9.472Y-5.558
X9.472Y-5.658
X9.472Y-5.758
X9.472Y-5.858
X9.472Y-5.958
X9.472Y-6.058
X9.518Y-6.22
X9.5449Y-5.0118
X9.5866Y-4.6913
X9.5866Y-4.7913
X9.618Y-6.22
X9.6449Y-5.0118
X9.718Y-6.22
X9.7449Y-5.0118
X9.818Y-6.22
X9.8449Y-5.0118
X9.918Y-6.22
X9.9449Y-5.0118
X10.018Y-6.22
X10.118Y-6.22
X10.218Y-6.22
X10.318Y-6.22
X10.418Y-6.22
X10.4331Y-5.1575
X10.4331Y-5.2575
X10.4331Y-5.3575
X10.4331Y-5.4575
X10.4331Y-5.5575
X10.4331Y-5.6575
X10.4331Y-5.7575
X10.4331Y-5.8575
X10.4331Y-5.9575
X10.4331Y-6.0575
X10.518Y-6.22
T3
G00X9.8386Y-4.2804
M15
G01X9.8386Y-4.2568
M16
G05
G00X9.8386Y-4.4548
M15
G01X9.8386Y-4.4115
M16
G05
G00X10.1787Y-4.2804
M15
G01X10.1787Y-4.2568
M16
G05
G00X10.1787Y-4.4548
M15
G01X10.1787Y-4.4115
M16
G05
M30
