%TF.GenerationSoftware,KiCad,Pcbnew,10.0.3*%
%TF.CreationDate,2026-06-19T11:52:41+05:30*%
%TF.ProjectId,ULTRASprig,554c5452-4153-4707-9269-672e6b696361,rev?*%
%TF.SameCoordinates,Original*%
%TF.FileFunction,Copper,L1,Top*%
%TF.FilePolarity,Positive*%
%FSLAX46Y46*%
G04 Gerber Fmt 4.6, Leading zero omitted, Abs format (unit mm)*
G04 Created by KiCad (PCBNEW 10.0.3) date 2026-06-19 11:52:41*
%MOMM*%
%LPD*%
G01*
G04 APERTURE LIST*
G04 Aperture macros list*
%AMRoundRect*
0 Rectangle with rounded corners*
0 $1 Rounding radius*
0 $2 $3 $4 $5 $6 $7 $8 $9 X,Y pos of 4 corners*
0 Add a 4 corners polygon primitive as box body*
4,1,4,$2,$3,$4,$5,$6,$7,$8,$9,$2,$3,0*
0 Add four circle primitives for the rounded corners*
1,1,$1+$1,$2,$3*
1,1,$1+$1,$4,$5*
1,1,$1+$1,$6,$7*
1,1,$1+$1,$8,$9*
0 Add four rect primitives between the rounded corners*
20,1,$1+$1,$2,$3,$4,$5,0*
20,1,$1+$1,$4,$5,$6,$7,0*
20,1,$1+$1,$6,$7,$8,$9,0*
20,1,$1+$1,$8,$9,$2,$3,0*%
G04 Aperture macros list end*
%TA.AperFunction,SMDPad,CuDef*%
%ADD10RoundRect,0.250000X-0.450000X-0.350000X0.450000X-0.350000X0.450000X0.350000X-0.450000X0.350000X0*%
%TD*%
%TA.AperFunction,ComponentPad*%
%ADD11R,1.700000X1.700000*%
%TD*%
%TA.AperFunction,ComponentPad*%
%ADD12C,1.700000*%
%TD*%
%TA.AperFunction,SMDPad,CuDef*%
%ADD13RoundRect,0.140000X-0.140000X-0.170000X0.140000X-0.170000X0.140000X0.170000X-0.140000X0.170000X0*%
%TD*%
%TA.AperFunction,SMDPad,CuDef*%
%ADD14RoundRect,0.050000X-0.350000X-0.050000X0.350000X-0.050000X0.350000X0.050000X-0.350000X0.050000X0*%
%TD*%
%TA.AperFunction,SMDPad,CuDef*%
%ADD15RoundRect,0.050000X-0.050000X-0.350000X0.050000X-0.350000X0.050000X0.350000X-0.050000X0.350000X0*%
%TD*%
%TA.AperFunction,HeatsinkPad*%
%ADD16R,3.400000X3.400000*%
%TD*%
%TA.AperFunction,SMDPad,CuDef*%
%ADD17RoundRect,0.135000X-0.226274X-0.035355X-0.035355X-0.226274X0.226274X0.035355X0.035355X0.226274X0*%
%TD*%
%TA.AperFunction,SMDPad,CuDef*%
%ADD18RoundRect,0.135000X-0.185000X0.135000X-0.185000X-0.135000X0.185000X-0.135000X0.185000X0.135000X0*%
%TD*%
%TA.AperFunction,SMDPad,CuDef*%
%ADD19RoundRect,0.140000X-0.170000X0.140000X-0.170000X-0.140000X0.170000X-0.140000X0.170000X0.140000X0*%
%TD*%
%TA.AperFunction,SMDPad,CuDef*%
%ADD20RoundRect,0.062500X-0.062500X0.350000X-0.062500X-0.350000X0.062500X-0.350000X0.062500X0.350000X0*%
%TD*%
%TA.AperFunction,SMDPad,CuDef*%
%ADD21RoundRect,0.062500X-0.350000X0.062500X-0.350000X-0.062500X0.350000X-0.062500X0.350000X0.062500X0*%
%TD*%
%TA.AperFunction,HeatsinkPad*%
%ADD22C,0.500000*%
%TD*%
%TA.AperFunction,HeatsinkPad*%
%ADD23R,1.680000X1.680000*%
%TD*%
%TA.AperFunction,SMDPad,CuDef*%
%ADD24RoundRect,0.135000X0.185000X-0.135000X0.185000X0.135000X-0.185000X0.135000X-0.185000X-0.135000X0*%
%TD*%
%TA.AperFunction,SMDPad,CuDef*%
%ADD25RoundRect,0.140000X-0.219203X-0.021213X-0.021213X-0.219203X0.219203X0.021213X0.021213X0.219203X0*%
%TD*%
%TA.AperFunction,SMDPad,CuDef*%
%ADD26RoundRect,0.200000X-0.200000X-0.275000X0.200000X-0.275000X0.200000X0.275000X-0.200000X0.275000X0*%
%TD*%
%TA.AperFunction,SMDPad,CuDef*%
%ADD27RoundRect,0.140000X0.140000X0.170000X-0.140000X0.170000X-0.140000X-0.170000X0.140000X-0.170000X0*%
%TD*%
%TA.AperFunction,SMDPad,CuDef*%
%ADD28RoundRect,0.062500X0.062500X-0.350000X0.062500X0.350000X-0.062500X0.350000X-0.062500X-0.350000X0*%
%TD*%
%TA.AperFunction,SMDPad,CuDef*%
%ADD29RoundRect,0.062500X0.350000X-0.062500X0.350000X0.062500X-0.350000X0.062500X-0.350000X-0.062500X0*%
%TD*%
%TA.AperFunction,SMDPad,CuDef*%
%ADD30RoundRect,0.200000X0.275000X-0.200000X0.275000X0.200000X-0.275000X0.200000X-0.275000X-0.200000X0*%
%TD*%
%TA.AperFunction,SMDPad,CuDef*%
%ADD31RoundRect,0.140000X0.170000X-0.140000X0.170000X0.140000X-0.170000X0.140000X-0.170000X-0.140000X0*%
%TD*%
%TA.AperFunction,SMDPad,CuDef*%
%ADD32RoundRect,0.135000X-0.135000X-0.185000X0.135000X-0.185000X0.135000X0.185000X-0.135000X0.185000X0*%
%TD*%
%TA.AperFunction,SMDPad,CuDef*%
%ADD33RoundRect,0.093750X-0.093750X0.156250X-0.093750X-0.156250X0.093750X-0.156250X0.093750X0.156250X0*%
%TD*%
%TA.AperFunction,SMDPad,CuDef*%
%ADD34RoundRect,0.075000X-0.075000X0.250000X-0.075000X-0.250000X0.075000X-0.250000X0.075000X0.250000X0*%
%TD*%
%TA.AperFunction,SMDPad,CuDef*%
%ADD35RoundRect,0.147500X-0.172500X0.147500X-0.172500X-0.147500X0.172500X-0.147500X0.172500X0.147500X0*%
%TD*%
%TA.AperFunction,SMDPad,CuDef*%
%ADD36RoundRect,0.150000X0.150000X0.575000X-0.150000X0.575000X-0.150000X-0.575000X0.150000X-0.575000X0*%
%TD*%
%TA.AperFunction,SMDPad,CuDef*%
%ADD37RoundRect,0.075000X0.075000X0.650000X-0.075000X0.650000X-0.075000X-0.650000X0.075000X-0.650000X0*%
%TD*%
%TA.AperFunction,ComponentPad*%
%ADD38O,1.000000X2.100000*%
%TD*%
%TA.AperFunction,ComponentPad*%
%ADD39O,1.000000X1.600000*%
%TD*%
%TA.AperFunction,SMDPad,CuDef*%
%ADD40RoundRect,0.140000X-0.021213X0.219203X-0.219203X0.021213X0.021213X-0.219203X0.219203X-0.021213X0*%
%TD*%
%TA.AperFunction,SMDPad,CuDef*%
%ADD41RoundRect,0.135000X-0.035355X0.226274X-0.226274X0.035355X0.035355X-0.226274X0.226274X-0.035355X0*%
%TD*%
%TA.AperFunction,SMDPad,CuDef*%
%ADD42RoundRect,0.140000X0.219203X0.021213X0.021213X0.219203X-0.219203X-0.021213X-0.021213X-0.219203X0*%
%TD*%
%TA.AperFunction,ViaPad*%
%ADD43C,0.600000*%
%TD*%
%TA.AperFunction,Conductor*%
%ADD44C,0.200000*%
%TD*%
G04 APERTURE END LIST*
D10*
%TO.P,Y1,1,1_1*%
%TO.N,/RP2354 Board/XIN*%
X252300000Y-150000000D03*
%TO.P,Y1,2,G_2*%
%TO.N,GND*%
X254500000Y-150000000D03*
%TO.P,Y1,3,3_3*%
%TO.N,/RP2354 Board/XOUT*%
X254500000Y-148300000D03*
%TO.P,Y1,4,G_4*%
%TO.N,GND*%
X252300000Y-148300000D03*
%TD*%
D11*
%TO.P,J1,1,Pin_1_1*%
%TO.N,/RP2354 Board/SD3*%
X252600000Y-127300000D03*
D12*
%TO.P,J1,2,Pin_2_2*%
%TO.N,/RP2354 Board/SCLK*%
X250060000Y-127300000D03*
%TO.P,J1,3,Pin_3_3*%
%TO.N,/RP2354 Board/SD0*%
X247520001Y-127300000D03*
%TO.P,J1,4,Pin_4_4*%
%TO.N,/RP2354 Board/SD2*%
X244980000Y-127300000D03*
%TO.P,J1,5,Pin_5_5*%
%TO.N,/RP2354 Board/SD1*%
X242440000Y-127300000D03*
%TO.P,J1,6,Pin_6_6*%
%TO.N,/RP2354 Board/SS*%
X239900000Y-127300000D03*
%TD*%
D13*
%TO.P,C22,1*%
%TO.N,/RP2354 Board/VBUCK*%
X256803619Y-122761000D03*
%TO.P,C22,2*%
%TO.N,GND*%
X257763619Y-122761000D03*
%TD*%
D14*
%TO.P,U1,1,GPIO4_1*%
%TO.N,Net-(J10-Pin_10)*%
X248080000Y-135870000D03*
%TO.P,U1,2,GPIO5_2*%
%TO.N,Net-(J10-Pin_9)*%
X248079999Y-136270000D03*
%TO.P,U1,3,GPIO6_3*%
%TO.N,Net-(J10-Pin_8)*%
X248080000Y-136670000D03*
%TO.P,U1,4,GPIO7_4*%
%TO.N,Net-(J10-Pin_7)*%
X248080000Y-137070000D03*
%TO.P,U1,5,IOVDD_5*%
%TO.N,+3V3*%
X248080000Y-137470001D03*
%TO.P,U1,6,GPIO8_6*%
%TO.N,Net-(J10-Pin_6)*%
X248080000Y-137870000D03*
%TO.P,U1,7,GPIO9_7*%
%TO.N,Net-(J10-Pin_5)*%
X248080000Y-138270000D03*
%TO.P,U1,8,GPIO10_8*%
%TO.N,Net-(J10-Pin_4)*%
X248080000Y-138670000D03*
%TO.P,U1,9,GPIO11_9*%
%TO.N,Net-(J10-Pin_3)*%
X248080000Y-139069999D03*
%TO.P,U1,10,DVDD_10*%
%TO.N,+1V1*%
X248080000Y-139470000D03*
%TO.P,U1,11,GPIO12_11*%
%TO.N,Net-(J10-Pin_2)*%
X248080000Y-139870000D03*
%TO.P,U1,12,GPIO13_12*%
%TO.N,Net-(J10-Pin_1)*%
X248080000Y-140270001D03*
%TO.P,U1,13,GPIO14_13*%
%TO.N,unconnected-(U1-GPIO14-Pad13)*%
X248080000Y-140670000D03*
%TO.P,U1,14,GPIO15_14*%
%TO.N,unconnected-(U1-GPIO15-Pad14)*%
X248080000Y-141070000D03*
%TO.P,U1,15,IOVDD_15*%
%TO.N,+3V3*%
X248080000Y-141470000D03*
%TO.P,U1,16,GPIO16_16*%
%TO.N,unconnected-(U1-GPIO16-Pad16)*%
X248080000Y-141869999D03*
%TO.P,U1,17,GPIO17_17*%
%TO.N,unconnected-(U1-GPIO17-Pad17)*%
X248080000Y-142270000D03*
%TO.P,U1,18,GPIO18_18*%
%TO.N,unconnected-(U1-GPIO18-Pad18)*%
X248080000Y-142670000D03*
%TO.P,U1,19,GPIO19_19*%
%TO.N,unconnected-(U1-GPIO19-Pad19)*%
X248079999Y-143070000D03*
%TO.P,U1,20,GPIO20_20*%
%TO.N,unconnected-(U1-GPIO20-Pad20)*%
X248080000Y-143470000D03*
D15*
%TO.P,U1,21,GPIO21_21*%
%TO.N,Net-(J4-Pin_12)*%
X249230000Y-144620000D03*
%TO.P,U1,22,GPIO22_22*%
%TO.N,Net-(J4-Pin_11)*%
X249630000Y-144620001D03*
%TO.P,U1,23,GPIO23_23*%
%TO.N,Net-(J4-Pin_10)*%
X250030000Y-144620000D03*
%TO.P,U1,24,IOVDD_24*%
%TO.N,+3V3*%
X250430000Y-144620000D03*
%TO.P,U1,25,GPIO24_25*%
%TO.N,Net-(J4-Pin_9)*%
X250830001Y-144620000D03*
%TO.P,U1,26,GPIO25_26*%
%TO.N,Net-(J4-Pin_8)*%
X251230000Y-144620000D03*
%TO.P,U1,27,GPIO26_27*%
%TO.N,Net-(J4-Pin_7)*%
X251630000Y-144620000D03*
%TO.P,U1,28,GPIO27_28*%
%TO.N,Net-(J4-Pin_6)*%
X252030000Y-144620000D03*
%TO.P,U1,29,IOVDD_29*%
%TO.N,+3V3*%
X252429999Y-144620000D03*
%TO.P,U1,30,XIN_30*%
%TO.N,/RP2354 Board/XIN*%
X252830000Y-144620000D03*
%TO.P,U1,31,XOUT_31*%
%TO.N,/RP2354 Board/XOUT*%
X253230000Y-144620000D03*
%TO.P,U1,32,DVDD_32*%
%TO.N,+1V1*%
X253630001Y-144620000D03*
%TO.P,U1,33,SWCLK_33*%
%TO.N,unconnected-(U1-SWCLK-Pad33)*%
X254030000Y-144620000D03*
%TO.P,U1,34,SWDIO_34*%
%TO.N,unconnected-(U1-SWDIO-Pad34)*%
X254430000Y-144620000D03*
%TO.P,U1,35,RUN_35*%
%TO.N,/RP2354 Board/RST*%
X254830000Y-144620000D03*
%TO.P,U1,36,GPIO28_36*%
%TO.N,Net-(J4-Pin_5)*%
X255229999Y-144620000D03*
%TO.P,U1,37,GPIO29_37*%
%TO.N,Net-(J4-Pin_4)*%
X255630000Y-144620000D03*
%TO.P,U1,38,GPIO30_38*%
%TO.N,Net-(J4-Pin_3)*%
X256030000Y-144620000D03*
%TO.P,U1,39,GPIO31_39*%
%TO.N,Net-(J4-Pin_2)*%
X256430000Y-144620001D03*
%TO.P,U1,40,GPIO32_40*%
%TO.N,Net-(J4-Pin_1)*%
X256830000Y-144620000D03*
D14*
%TO.P,U1,41,IOVDD_41*%
%TO.N,+3V3*%
X257980000Y-143470000D03*
%TO.P,U1,42,GPIO33_42*%
%TO.N,/RP2354 Board/IO1*%
X257980001Y-143070000D03*
%TO.P,U1,43,GPIO34_43*%
%TO.N,unconnected-(U1-GPIO34-Pad43)*%
X257980000Y-142670000D03*
%TO.P,U1,44,GPIO35_44*%
%TO.N,unconnected-(U1-GPIO35-Pad44)*%
X257980000Y-142270000D03*
%TO.P,U1,45,GPIO36_45*%
%TO.N,/RP2354 Board/SPI1_MOSI*%
X257980000Y-141869999D03*
%TO.P,U1,46,GPIO37_46*%
%TO.N,/RP2354 Board/SPI1_MISO*%
X257980000Y-141470000D03*
%TO.P,U1,47,GPIO38_47*%
%TO.N,/RP2354 Board/SPI0_MISO*%
X257980000Y-141070000D03*
%TO.P,U1,48,GPIO39_48*%
%TO.N,/RP2354 Board/SPI0_MOSI*%
X257980000Y-140670000D03*
%TO.P,U1,49,GPIO40/ADC0_49*%
%TO.N,/RP2354 Board/CS1*%
X257980000Y-140270001D03*
%TO.P,U1,50,IOVDD_50*%
%TO.N,+3V3*%
X257980000Y-139870000D03*
%TO.P,U1,51,DVDD_51*%
%TO.N,+1V1*%
X257980000Y-139470000D03*
%TO.P,U1,52,GPIO41/ADC1_52*%
%TO.N,/RP2354 Board/CS2*%
X257980000Y-139069999D03*
%TO.P,U1,53,GPIO42/ADC2_53*%
%TO.N,/RP2354 Board/CS3*%
X257980000Y-138670000D03*
%TO.P,U1,54,GPIO43/ADC3_54*%
%TO.N,/RP2354 Board/CS4*%
X257980000Y-138270000D03*
%TO.P,U1,55,GPIO44/ADC4_55*%
%TO.N,unconnected-(U1-GPIO44{slash}ADC4-Pad55)*%
X257980000Y-137870000D03*
%TO.P,U1,56,GPIO45/ADC5_56*%
%TO.N,unconnected-(U1-GPIO45{slash}ADC5-Pad56)*%
X257980000Y-137470001D03*
%TO.P,U1,57,GPIO46/ADC6_57*%
%TO.N,/RP2354 Board/CHG*%
X257980000Y-137070000D03*
%TO.P,U1,58,GPIO47/ADC7_58*%
%TO.N,/RP2354 Board/PGD*%
X257980000Y-136670000D03*
%TO.P,U1,59,ADC_AVDD_59*%
%TO.N,+3V3*%
X257980001Y-136270000D03*
%TO.P,U1,60,IOVDD_60*%
X257980000Y-135870000D03*
D15*
%TO.P,U1,61,VREG_AVDD_61*%
%TO.N,/RP2354 Board/VREGAVDD*%
X256830000Y-134720000D03*
%TO.P,U1,62,VREG_PGND_62*%
%TO.N,GND*%
X256430000Y-134719999D03*
%TO.P,U1,63,VREG_LX_63*%
%TO.N,/RP2354 Board/VREGlX*%
X256030000Y-134720000D03*
%TO.P,U1,64,VREG_VIN_64*%
%TO.N,+3V3*%
X255630000Y-134720000D03*
%TO.P,U1,65,VREG_FB_65*%
%TO.N,+1V1*%
X255229999Y-134720000D03*
%TO.P,U1,66,USB_DM_66*%
%TO.N,/RP2354 Board/DP*%
X254830000Y-134720000D03*
%TO.P,U1,67,USB_DP_67*%
%TO.N,/RP2354 Board/DN*%
X254430000Y-134720000D03*
%TO.P,U1,68,USB_OTP_VDD_68*%
%TO.N,+3V3*%
X254030000Y-134720000D03*
%TO.P,U1,69,QSPI_IOVDD_69*%
X253630001Y-134720000D03*
%TO.P,U1,70,QSPI_SD3_70*%
%TO.N,/RP2354 Board/SD3*%
X253230000Y-134720000D03*
%TO.P,U1,71,QSPI_SCLK_71*%
%TO.N,/RP2354 Board/SCLK*%
X252830000Y-134720000D03*
%TO.P,U1,72,QSPI_SD0_72*%
%TO.N,/RP2354 Board/SD0*%
X252429999Y-134720000D03*
%TO.P,U1,73,QSPI_SD2_73*%
%TO.N,/RP2354 Board/SD2*%
X252030000Y-134720000D03*
%TO.P,U1,74,QSPI_SD1_74*%
%TO.N,/RP2354 Board/SD1*%
X251630000Y-134720000D03*
%TO.P,U1,75,~{QSPI_SS}_75*%
%TO.N,/RP2354 Board/SS*%
X251230000Y-134720000D03*
%TO.P,U1,76,IOVDD_76*%
%TO.N,+3V3*%
X250830001Y-134720000D03*
%TO.P,U1,77,GPIO0_77*%
%TO.N,unconnected-(U1-GPIO0-Pad77)*%
X250430000Y-134720000D03*
%TO.P,U1,78,GPIO1_78*%
%TO.N,unconnected-(U1-GPIO1-Pad78)*%
X250030000Y-134720000D03*
%TO.P,U1,79,GPIO2_79*%
%TO.N,unconnected-(U1-GPIO2-Pad79)*%
X249630000Y-134719999D03*
%TO.P,U1,80,GPIO3_80*%
%TO.N,unconnected-(U1-GPIO3-Pad80)*%
X249230000Y-134720000D03*
D16*
%TO.P,U1,81,GND_81*%
%TO.N,GND*%
X253030000Y-139670000D03*
%TD*%
D11*
%TO.P,J6,1,Pin_1_1*%
%TO.N,/RP2354 Board/CS4*%
X265000000Y-131000000D03*
D12*
%TO.P,J6,2,Pin_2_2*%
%TO.N,/RP2354 Board/CS3*%
X265000000Y-133540000D03*
%TO.P,J6,3,Pin_3_3*%
%TO.N,/RP2354 Board/CS2*%
X265000000Y-136080000D03*
%TO.P,J6,4,Pin_4_4*%
%TO.N,/RP2354 Board/VOUT*%
X265000000Y-138620000D03*
%TO.P,J6,5,Pin_5_5*%
%TO.N,/RP2354 Board/CS1*%
X265000000Y-141160000D03*
%TO.P,J6,6,Pin_6_6*%
%TO.N,/RP2354 Board/SPI0_MOSI*%
X265000000Y-143700000D03*
%TO.P,J6,7,Pin_7_7*%
%TO.N,/RP2354 Board/SPI0_MISO*%
X265000000Y-146240000D03*
%TO.P,J6,8,Pin_8_8*%
%TO.N,/RP2354 Board/SPI1_MISO*%
X265000000Y-148780000D03*
%TO.P,J6,9,Pin_9_9*%
%TO.N,/RP2354 Board/SPI1_MOSI*%
X265000000Y-151320000D03*
%TO.P,J6,10,Pin_10_10*%
%TO.N,/RP2354 Board/IO1*%
X265000000Y-153860000D03*
%TD*%
D17*
%TO.P,R9,1*%
%TO.N,/RP2354 Board/PGD*%
X246026001Y-123123999D03*
%TO.P,R9,2*%
%TO.N,/RP2354 Board/VBUCK*%
X246747249Y-123845247D03*
%TD*%
D18*
%TO.P,R1,1*%
%TO.N,/RP2354 Board/D-*%
X255080000Y-131610001D03*
%TO.P,R1,2*%
%TO.N,/RP2354 Board/DP*%
X255080000Y-132629999D03*
%TD*%
D19*
%TO.P,C2,1*%
%TO.N,/RP2354 Board/XOUT*%
X255998001Y-150286399D03*
%TO.P,C2,2*%
%TO.N,GND*%
X255998001Y-151246399D03*
%TD*%
D20*
%TO.P,U3,1,TS_1*%
%TO.N,GND*%
X250201002Y-119182999D03*
%TO.P,U3,2,BAT_2*%
%TO.N,Net-(J3-Pin_1)*%
X249701002Y-119182999D03*
%TO.P,U3,3,BAT_3*%
X249201002Y-119182999D03*
%TO.P,U3,4,CE_4*%
%TO.N,GND*%
X248701002Y-119182999D03*
D21*
%TO.P,U3,5,EN2_5*%
%TO.N,/RP2354 Board/VBUCK*%
X247988502Y-119895499D03*
%TO.P,U3,6,EN1_6*%
%TO.N,GND*%
X247988502Y-120395499D03*
%TO.P,U3,7,PGOOD_7*%
%TO.N,/RP2354 Board/PGD*%
X247988502Y-120895499D03*
%TO.P,U3,8,VSS_8*%
%TO.N,/RP2354 Board/VSS*%
X247988502Y-121395499D03*
D20*
%TO.P,U3,9,CHG_9*%
%TO.N,/RP2354 Board/CHG*%
X248701002Y-122107999D03*
%TO.P,U3,10,OUT_10*%
%TO.N,/RP2354 Board/VBUCK*%
X249201002Y-122107999D03*
%TO.P,U3,11,OUT_11*%
X249701002Y-122107999D03*
%TO.P,U3,12,ILIM_12*%
%TO.N,Net-(U3-ILIM)*%
X250201002Y-122107999D03*
D21*
%TO.P,U3,13,IN_13*%
%TO.N,/RP2354 Board/VBUS*%
X250913502Y-121395499D03*
%TO.P,U3,14,TMR_14*%
%TO.N,GND*%
X250913502Y-120895499D03*
%TO.P,U3,15,TD_15*%
X250913502Y-120395499D03*
%TO.P,U3,16,ISET_16*%
%TO.N,Net-(U3-ISET)*%
X250913502Y-119895499D03*
D22*
%TO.P,U3,17,VSS_17*%
%TO.N,/RP2354 Board/VSS*%
X250041002Y-120055499D03*
X248861002Y-120055499D03*
D23*
X249451002Y-120645499D03*
D22*
X250041002Y-121235499D03*
X248861002Y-121235499D03*
%TD*%
D24*
%TO.P,R4,1*%
%TO.N,Net-(R4-Pad1)*%
X256300000Y-149000000D03*
%TO.P,R4,2*%
%TO.N,/RP2354 Board/RST*%
X256300000Y-147980002D03*
%TD*%
D25*
%TO.P,C11,1*%
%TO.N,+1V1*%
X245550000Y-144950000D03*
%TO.P,C11,2*%
%TO.N,GND*%
X246228822Y-145628822D03*
%TD*%
D24*
%TO.P,R11,1*%
%TO.N,GND*%
X252122001Y-120054597D03*
%TO.P,R11,2*%
%TO.N,Net-(U3-ISET)*%
X252122001Y-119034599D03*
%TD*%
D11*
%TO.P,J4,1,Pin_1_1*%
%TO.N,Net-(J4-Pin_1)*%
X267157200Y-157988000D03*
D12*
%TO.P,J4,2,Pin_2_2*%
%TO.N,Net-(J4-Pin_2)*%
X264617200Y-157988000D03*
%TO.P,J4,3,Pin_3_3*%
%TO.N,Net-(J4-Pin_3)*%
X262077201Y-157988000D03*
%TO.P,J4,4,Pin_4_4*%
%TO.N,Net-(J4-Pin_4)*%
X259537200Y-157988000D03*
%TO.P,J4,5,Pin_5_5*%
%TO.N,Net-(J4-Pin_5)*%
X256997200Y-157988000D03*
%TO.P,J4,6,Pin_6_6*%
%TO.N,Net-(J4-Pin_6)*%
X254457200Y-157988000D03*
%TO.P,J4,7,Pin_7_7*%
%TO.N,Net-(J4-Pin_7)*%
X251917200Y-157988000D03*
%TO.P,J4,8,Pin_8_8*%
%TO.N,Net-(J4-Pin_8)*%
X249377199Y-157988000D03*
%TO.P,J4,9,Pin_9_9*%
%TO.N,Net-(J4-Pin_9)*%
X246837200Y-157988000D03*
%TO.P,J4,10,Pin_10_10*%
%TO.N,Net-(J4-Pin_10)*%
X244297200Y-157988000D03*
%TO.P,J4,11,Pin_11_11*%
%TO.N,Net-(J4-Pin_11)*%
X241757200Y-157988000D03*
%TO.P,J4,12,Pin_12_12*%
%TO.N,Net-(J4-Pin_12)*%
X239217201Y-157988000D03*
%TD*%
D19*
%TO.P,C4,1*%
%TO.N,/RP2354 Board/VBUCK*%
X246788001Y-119519799D03*
%TO.P,C4,2*%
%TO.N,GND*%
X246788001Y-120479799D03*
%TD*%
D26*
%TO.P,R13,1*%
%TO.N,+3V3*%
X257995000Y-130070000D03*
%TO.P,R13,2*%
%TO.N,Net-(U4-FB)*%
X259645000Y-130070000D03*
%TD*%
D11*
%TO.P,J10,1,Pin_1_1*%
%TO.N,Net-(J10-Pin_1)*%
X240588800Y-153873200D03*
D12*
%TO.P,J10,2,Pin_2_2*%
%TO.N,Net-(J10-Pin_2)*%
X240588800Y-151333200D03*
%TO.P,J10,3,Pin_3_3*%
%TO.N,Net-(J10-Pin_3)*%
X240588800Y-148793201D03*
%TO.P,J10,4,Pin_4_4*%
%TO.N,Net-(J10-Pin_4)*%
X240588800Y-146253200D03*
%TO.P,J10,5,Pin_5_5*%
%TO.N,Net-(J10-Pin_5)*%
X240588800Y-143713200D03*
%TO.P,J10,6,Pin_6_6*%
%TO.N,Net-(J10-Pin_6)*%
X240588800Y-141173200D03*
%TO.P,J10,7,Pin_7_7*%
%TO.N,Net-(J10-Pin_7)*%
X240588800Y-138633200D03*
%TO.P,J10,8,Pin_8_8*%
%TO.N,Net-(J10-Pin_8)*%
X240588800Y-136093199D03*
%TO.P,J10,9,Pin_9_9*%
%TO.N,Net-(J10-Pin_9)*%
X240588800Y-133553200D03*
%TO.P,J10,10,Pin_10_10*%
%TO.N,Net-(J10-Pin_10)*%
X240588800Y-131013200D03*
%TD*%
D13*
%TO.P,C18,1*%
%TO.N,+1V1*%
X259842000Y-132994400D03*
%TO.P,C18,2*%
%TO.N,GND*%
X260802000Y-132994400D03*
%TD*%
D27*
%TO.P,C9,1*%
%TO.N,+3V3*%
X258810000Y-132870000D03*
%TO.P,C9,2*%
%TO.N,GND*%
X257850000Y-132870000D03*
%TD*%
D28*
%TO.P,U4,1,SW_1*%
%TO.N,/RP2354 Board/VOUT*%
X257452618Y-127182999D03*
%TO.P,U4,2,SW_2*%
X257952618Y-127182999D03*
%TO.P,U4,3,SW_3*%
X258452618Y-127182999D03*
%TO.P,U4,4,PG_4*%
%TO.N,Net-(U4-PG)*%
X258952618Y-127182999D03*
D29*
%TO.P,U4,5,FB_5*%
%TO.N,Net-(U4-FB)*%
X259665118Y-126470499D03*
%TO.P,U4,6,GND_6*%
%TO.N,GND*%
X259665118Y-125970499D03*
%TO.P,U4,7,FSW_7*%
X259665118Y-125470499D03*
%TO.P,U4,8,DEF_8*%
X259665118Y-124970499D03*
D28*
%TO.P,U4,9,SS/TR_9*%
%TO.N,Net-(U4-SS{slash}TR)*%
X258952618Y-124257999D03*
%TO.P,U4,10,VIN_10*%
%TO.N,/RP2354 Board/VBUCK*%
X258452618Y-124257999D03*
%TO.P,U4,11,VIN_11*%
X257952618Y-124257999D03*
%TO.P,U4,12,VIN_12*%
X257452618Y-124257999D03*
D29*
%TO.P,U4,13,EN_13*%
X256740118Y-124970499D03*
%TO.P,U4,14,VOS_14*%
%TO.N,/RP2354 Board/VOUT*%
X256740118Y-125470499D03*
%TO.P,U4,15,GND_15*%
%TO.N,GND*%
X256740118Y-125970499D03*
%TO.P,U4,16,GND_16*%
X256740118Y-126470499D03*
D22*
%TO.P,U4,17,GND_17*%
X257612618Y-126310499D03*
X258792618Y-126310499D03*
D23*
X258202618Y-125720499D03*
D22*
X257612618Y-125130499D03*
X258792618Y-125130499D03*
%TD*%
D30*
%TO.P,R12,1*%
%TO.N,Net-(U4-FB)*%
X261110000Y-128225000D03*
%TO.P,R12,2*%
%TO.N,GND*%
X261110000Y-126575000D03*
%TD*%
D31*
%TO.P,C10,1*%
%TO.N,+1V1*%
X261860000Y-133950000D03*
%TO.P,C10,2*%
%TO.N,GND*%
X261860000Y-132990000D03*
%TD*%
D17*
%TO.P,R8,1*%
%TO.N,/RP2354 Board/CHG*%
X246808376Y-122382375D03*
%TO.P,R8,2*%
%TO.N,/RP2354 Board/VBUCK*%
X247529624Y-123103623D03*
%TD*%
D32*
%TO.P,R14,1*%
%TO.N,/RP2354 Board/VOUT*%
X258676620Y-128349000D03*
%TO.P,R14,2*%
%TO.N,Net-(U4-PG)*%
X259696618Y-128349000D03*
%TD*%
D18*
%TO.P,R7,1*%
%TO.N,Net-(J2-CC1)*%
X256150000Y-115390001D03*
%TO.P,R7,2*%
%TO.N,GND*%
X256150000Y-116409999D03*
%TD*%
D32*
%TO.P,R6,1*%
%TO.N,+3V3*%
X257790000Y-133910000D03*
%TO.P,R6,2*%
%TO.N,/RP2354 Board/VREGAVDD*%
X258809998Y-133910000D03*
%TD*%
D31*
%TO.P,C21,1*%
%TO.N,+3V3*%
X260839619Y-130325001D03*
%TO.P,C21,2*%
%TO.N,GND*%
X260839619Y-129365001D03*
%TD*%
D33*
%TO.P,U2,1,I/O1_1*%
%TO.N,/RP2354 Board/USBD-*%
X255261500Y-118800000D03*
D34*
%TO.P,U2,2,GND_2*%
%TO.N,GND*%
X254724000Y-118725000D03*
D33*
%TO.P,U2,3,I/O2_3*%
%TO.N,/RP2354 Board/USBD+*%
X254186500Y-118800000D03*
%TO.P,U2,4,I/O2_4*%
%TO.N,/RP2354 Board/D+*%
X254186500Y-120500000D03*
D34*
%TO.P,U2,5,VBUS_5*%
%TO.N,/RP2354 Board/VBUS*%
X254724000Y-120575000D03*
D33*
%TO.P,U2,6,I/O1_6*%
%TO.N,/RP2354 Board/D-*%
X255261500Y-120500000D03*
%TD*%
D19*
%TO.P,C8,1*%
%TO.N,/RP2354 Board/VREGAVDD*%
X259790000Y-133910000D03*
%TO.P,C8,2*%
%TO.N,GND*%
X259790000Y-134870000D03*
%TD*%
D35*
%TO.P,L2,1,1_1*%
%TO.N,/RP2354 Board/VOUT*%
X256750000Y-128475999D03*
%TO.P,L2,2,2_2*%
%TO.N,+3V3*%
X256750000Y-129445999D03*
%TD*%
D36*
%TO.P,J2,A1,GND_A1*%
%TO.N,GND*%
X257470000Y-113518000D03*
%TO.P,J2,A4,VBUS_A4*%
%TO.N,/RP2354 Board/VBUS*%
X256670001Y-113518000D03*
D37*
%TO.P,J2,A5,CC1_A5*%
%TO.N,Net-(J2-CC1)*%
X255470000Y-113517999D03*
%TO.P,J2,A6,D+_A6*%
%TO.N,/RP2354 Board/USBD+*%
X254470000Y-113518000D03*
%TO.P,J2,A7,D-_A7*%
%TO.N,/RP2354 Board/USBD-*%
X253970000Y-113518000D03*
%TO.P,J2,A8*%
%TO.N,N/C*%
X252970000Y-113517999D03*
D36*
%TO.P,J2,A9,VBUS_A9*%
%TO.N,/RP2354 Board/VBUS*%
X251769999Y-113518000D03*
%TO.P,J2,A12,GND_A12*%
%TO.N,GND*%
X250970000Y-113518000D03*
%TO.P,J2,B1,GND_B1*%
X250970000Y-113518000D03*
%TO.P,J2,B4,VBUS_B4*%
%TO.N,/RP2354 Board/VBUS*%
X251769999Y-113518000D03*
D37*
%TO.P,J2,B5,CC2_B5*%
%TO.N,Net-(J2-CC2)*%
X252470000Y-113518000D03*
%TO.P,J2,B6,D+_B6*%
%TO.N,/RP2354 Board/USBD+*%
X253470000Y-113518000D03*
%TO.P,J2,B7,D-_B7*%
%TO.N,/RP2354 Board/USBD-*%
X254970000Y-113518000D03*
%TO.P,J2,B8*%
%TO.N,N/C*%
X255970000Y-113518000D03*
D36*
%TO.P,J2,B9,VBUS_B9*%
%TO.N,/RP2354 Board/VBUS*%
X256670001Y-113518000D03*
%TO.P,J2,B12,GND_B12*%
%TO.N,GND*%
X257470000Y-113518000D03*
D38*
%TO.P,J2,SH,SHIELD_SH*%
X258540000Y-112603000D03*
D39*
X258540000Y-108423000D03*
D38*
X249900000Y-112603000D03*
D39*
X249900000Y-108423000D03*
%TD*%
D31*
%TO.P,C12,1*%
%TO.N,+3V3*%
X245000000Y-134960000D03*
%TO.P,C12,2*%
%TO.N,GND*%
X245000000Y-134000000D03*
%TD*%
%TO.P,C1,1*%
%TO.N,/RP2354 Board/XIN*%
X250698000Y-151226400D03*
%TO.P,C1,2*%
%TO.N,GND*%
X250698000Y-150266400D03*
%TD*%
%TO.P,C14,1*%
%TO.N,+3V3*%
X247200000Y-134960000D03*
%TO.P,C14,2*%
%TO.N,GND*%
X247200000Y-134000000D03*
%TD*%
D13*
%TO.P,C5,1*%
%TO.N,Net-(J3-Pin_1)*%
X246820000Y-117900000D03*
%TO.P,C5,2*%
%TO.N,GND*%
X247780000Y-117900000D03*
%TD*%
D17*
%TO.P,R5,1*%
%TO.N,Net-(J2-CC2)*%
X252639376Y-115439376D03*
%TO.P,R5,2*%
%TO.N,GND*%
X253360624Y-116160624D03*
%TD*%
D31*
%TO.P,C13,1*%
%TO.N,+3V3*%
X246166002Y-134960000D03*
%TO.P,C13,2*%
%TO.N,GND*%
X246166002Y-134000000D03*
%TD*%
D19*
%TO.P,C23,1*%
%TO.N,Net-(U4-SS{slash}TR)*%
X255800000Y-123140000D03*
%TO.P,C23,2*%
%TO.N,GND*%
X255800000Y-124100000D03*
%TD*%
D11*
%TO.P,J3,1,Pin_1_1*%
%TO.N,Net-(J3-Pin_1)*%
X243500000Y-119160000D03*
D12*
%TO.P,J3,2,Pin_2_2*%
%TO.N,GND*%
X243500000Y-121700000D03*
%TD*%
D13*
%TO.P,C24,1*%
%TO.N,/RP2354 Board/VBUCK*%
X258708617Y-122760999D03*
%TO.P,C24,2*%
%TO.N,Net-(U4-SS{slash}TR)*%
X259668617Y-122760999D03*
%TD*%
D25*
%TO.P,C20,1*%
%TO.N,+1V1*%
X244800468Y-145756101D03*
%TO.P,C20,2*%
%TO.N,GND*%
X245479290Y-146434923D03*
%TD*%
D40*
%TO.P,C7,1*%
%TO.N,+1V1*%
X244315622Y-140443578D03*
%TO.P,C7,2*%
%TO.N,GND*%
X243636800Y-141122400D03*
%TD*%
D25*
%TO.P,C19,1*%
%TO.N,+1V1*%
X244079218Y-146449066D03*
%TO.P,C19,2*%
%TO.N,GND*%
X244758040Y-147127888D03*
%TD*%
D40*
%TO.P,C6,1*%
%TO.N,+1V1*%
X245668800Y-139090400D03*
%TO.P,C6,2*%
%TO.N,GND*%
X244989978Y-139769222D03*
%TD*%
D41*
%TO.P,R10,1*%
%TO.N,GND*%
X251563201Y-122793799D03*
%TO.P,R10,2*%
%TO.N,Net-(U3-ILIM)*%
X250841953Y-123515047D03*
%TD*%
D42*
%TO.P,C3,1*%
%TO.N,/RP2354 Board/VBUS*%
X250057623Y-124463221D03*
%TO.P,C3,2*%
%TO.N,GND*%
X249378801Y-123784399D03*
%TD*%
D18*
%TO.P,R2,1*%
%TO.N,/RP2354 Board/D+*%
X254080000Y-131610001D03*
%TO.P,R2,2*%
%TO.N,/RP2354 Board/DN*%
X254080000Y-132629999D03*
%TD*%
D35*
%TO.P,L1,1,1_1*%
%TO.N,+1V1*%
X260830000Y-134150000D03*
%TO.P,L1,2,2_2*%
%TO.N,/RP2354 Board/VREGlX*%
X260830000Y-135120000D03*
%TD*%
D43*
%TO.N,GND*%
X255800000Y-124100000D03*
X253100000Y-137700000D03*
X250950000Y-118800000D03*
X257100000Y-133100000D03*
X248900000Y-117200000D03*
X248576002Y-119100000D03*
X260603529Y-132093529D03*
X257868788Y-122977643D03*
X250717065Y-149267065D03*
X250970766Y-122029234D03*
X258970000Y-134850000D03*
X251950000Y-120900000D03*
X244050000Y-148750000D03*
%TO.N,/RP2354 Board/VBUCK*%
X246000000Y-119600000D03*
X249868262Y-122952253D03*
X256700000Y-123400000D03*
%TO.N,+3V3*%
X250950000Y-142750000D03*
X256700000Y-140700000D03*
X258614468Y-132535532D03*
X253800000Y-135650000D03*
X258000000Y-131260000D03*
X256833751Y-136548626D03*
X261385735Y-131084265D03*
%TO.N,Net-(J10-Pin_4)*%
X246483599Y-138869999D03*
%TO.N,Net-(J10-Pin_3)*%
X249174000Y-139090400D03*
%TO.N,+1V1*%
X249950000Y-141850000D03*
X247100000Y-143150000D03*
%TO.N,Net-(J4-Pin_7)*%
X251830000Y-145796000D03*
%TO.N,Net-(J4-Pin_6)*%
X251583292Y-143720000D03*
%TO.N,/RP2354 Board/CHG*%
X260359937Y-136049999D03*
X248243677Y-122503623D03*
%TO.N,/RP2354 Board/PGD*%
X245962081Y-122600000D03*
X259600000Y-136300000D03*
%TO.N,/RP2354 Board/VOUT*%
X258426493Y-129026346D03*
%TD*%
%TO.N,/RP2354 Board/XIN*%
D44*
X251073600Y-151226400D02*
X252300000Y-150000000D01*
X252830000Y-147245256D02*
X253300000Y-147715256D01*
X250698000Y-151226400D02*
X251073600Y-151226400D01*
X253300000Y-149000000D02*
X252300000Y-150000000D01*
X253300000Y-147715256D02*
X253300000Y-149000000D01*
X252830000Y-144620000D02*
X252830000Y-147245256D01*
%TO.N,GND*%
X250201002Y-118756113D02*
X250201002Y-119182999D01*
X253250000Y-151942398D02*
X253307602Y-151942398D01*
X257389594Y-111398000D02*
X251050406Y-111398000D01*
X260248619Y-124714499D02*
X259242618Y-125720499D01*
X257785000Y-113203000D02*
X257785000Y-111793406D01*
X251563201Y-122621669D02*
X250970766Y-122029234D01*
X253030000Y-137770000D02*
X253100000Y-137700000D01*
X258970000Y-134870000D02*
X258950000Y-134850000D01*
X257850000Y-132870000D02*
X257330000Y-132870000D01*
X256740118Y-125970499D02*
X256900119Y-126130500D01*
X259242618Y-125720499D02*
X258202618Y-125720499D01*
X258792618Y-126310499D02*
X259132618Y-125970499D01*
X257470000Y-113518000D02*
X257470000Y-115089999D01*
X250088000Y-150876400D02*
X250088000Y-151552534D01*
X254003601Y-151246399D02*
X255998001Y-151246399D01*
X243636800Y-141122400D02*
X243636800Y-140259730D01*
X244758040Y-148041960D02*
X244050000Y-148750000D01*
X255190000Y-122813866D02*
X256252866Y-121751000D01*
X258952618Y-124970500D02*
X258202618Y-125720499D01*
X254999000Y-119350000D02*
X256500000Y-120851000D01*
X250698000Y-150266400D02*
X250088000Y-150876400D01*
X246534355Y-124509167D02*
X245362081Y-123336892D01*
X250815000Y-113518000D02*
X249900000Y-112603000D01*
X256500000Y-121751000D02*
X259594752Y-121751000D01*
X250698000Y-149902000D02*
X252300000Y-148300000D01*
X257470000Y-113518000D02*
X257785000Y-113203000D01*
X253307602Y-151942398D02*
X254003601Y-151246399D01*
X250970000Y-115130000D02*
X248900000Y-117200000D01*
X250970000Y-113518000D02*
X250970000Y-115130000D01*
X255746399Y-151246399D02*
X255998001Y-151246399D01*
X251050406Y-111398000D02*
X249900000Y-112548406D01*
X257470000Y-115089999D02*
X256150000Y-116409999D01*
X260092005Y-125970500D02*
X259665119Y-125970500D01*
X247955001Y-120428999D02*
X247988501Y-120395499D01*
X260603529Y-132093529D02*
X260603529Y-132795929D01*
X256740118Y-125970499D02*
X257952618Y-125970499D01*
X254500000Y-150000000D02*
X255746399Y-151246399D01*
X251945499Y-120895499D02*
X251950000Y-120900000D01*
X251445499Y-120395499D02*
X251950000Y-120900000D01*
X256900119Y-126130500D02*
X256900119Y-126310500D01*
X258990000Y-134870000D02*
X258970000Y-134850000D01*
X256430000Y-134719999D02*
X256430000Y-133770000D01*
X253568001Y-151942398D02*
X254468001Y-151042398D01*
X245000000Y-134000000D02*
X247200000Y-134000000D01*
X261860000Y-132990000D02*
X260806400Y-132990000D01*
X253030000Y-139670000D02*
X253030000Y-137770000D01*
X250913502Y-120395499D02*
X251445499Y-120395499D01*
X250567001Y-119182999D02*
X250950000Y-118800000D01*
X257783640Y-132870000D02*
X256430000Y-134223640D01*
X257330000Y-132870000D02*
X257100000Y-133100000D01*
X256740118Y-126470499D02*
X257452618Y-126470499D01*
X250477864Y-151942398D02*
X253250000Y-151942398D01*
X257763618Y-122872473D02*
X257868788Y-122977643D01*
X244979756Y-147127888D02*
X247199604Y-144908040D01*
X245362081Y-123336892D02*
X245362081Y-121905720D01*
X254724000Y-119071946D02*
X254724000Y-118725000D01*
X248659001Y-119182999D02*
X248576002Y-119100000D01*
X255800000Y-124100000D02*
X255190000Y-123490000D01*
X254445946Y-119350000D02*
X254999000Y-119350000D01*
X245362081Y-121905720D02*
X245933900Y-121333900D01*
X255002054Y-119350000D02*
X254724000Y-119071946D01*
X255998001Y-151246399D02*
X254672001Y-151246400D01*
X260603529Y-132795929D02*
X260802000Y-132994400D01*
X244127308Y-139769222D02*
X244989978Y-139769222D01*
X257452618Y-126470499D02*
X258202618Y-125720499D01*
X256900119Y-126310500D02*
X256740119Y-126470500D01*
X257612618Y-126310499D02*
X256900119Y-126310500D01*
X247780000Y-117900000D02*
X249344889Y-117900000D01*
X253927054Y-119350000D02*
X254445946Y-119350000D01*
X254445946Y-119350000D02*
X254724000Y-119071946D01*
X246838801Y-120428999D02*
X247955001Y-120428999D01*
X243636800Y-140259730D02*
X244127308Y-139769222D01*
X256150000Y-116409999D02*
X256150000Y-118720946D01*
X256500000Y-120851000D02*
X256500000Y-121751000D01*
X257785000Y-111793406D02*
X257389594Y-111398000D01*
X259790000Y-134870000D02*
X258990000Y-134870000D01*
X256150000Y-118720946D02*
X255520946Y-119350000D01*
X243500000Y-121700000D02*
X245567800Y-121700000D01*
X244758040Y-147127888D02*
X244758040Y-148041960D01*
X260839619Y-126718114D02*
X260092005Y-125970500D01*
X246699532Y-145322183D02*
X246699532Y-145293899D01*
X250698000Y-150266400D02*
X250698000Y-149902000D01*
X253250000Y-151942398D02*
X253568001Y-151942398D01*
X250088000Y-151552534D02*
X250477864Y-151942398D01*
X256430000Y-133770000D02*
X257100000Y-133100000D01*
X257625000Y-113518000D02*
X258540000Y-112603000D01*
X253460624Y-118883570D02*
X253927054Y-119350000D01*
X255520946Y-119350000D02*
X255002054Y-119350000D01*
X255190000Y-123490000D02*
X255190000Y-122813866D01*
X259790000Y-134870000D02*
X258970000Y-134870000D01*
X259132618Y-125970499D02*
X259665118Y-125970499D01*
X245567800Y-121700000D02*
X245933900Y-121333900D01*
X250913501Y-120895499D02*
X250913501Y-120395499D01*
X253460624Y-116260624D02*
X253460624Y-118883570D01*
X248654033Y-124509167D02*
X246534355Y-124509167D01*
X250717065Y-149267065D02*
X250717065Y-150247335D01*
X259665119Y-124970501D02*
X258952618Y-124970500D01*
X249344889Y-117900000D02*
X250201002Y-118756113D01*
X259594752Y-121751000D02*
X260248619Y-122404865D01*
X249378801Y-123784399D02*
X248654033Y-124509167D01*
X245933900Y-121333900D02*
X246788001Y-120479799D01*
X256430000Y-134223640D02*
X256430000Y-134719999D01*
X250201002Y-119182999D02*
X250567001Y-119182999D01*
X248701002Y-119182999D02*
X248659001Y-119182999D01*
X260248619Y-122404865D02*
X260248619Y-124714499D01*
X250913502Y-120895499D02*
X251945499Y-120895499D01*
X259665119Y-125970500D02*
X259665119Y-124970501D01*
X256252866Y-121751000D02*
X256500000Y-121751000D01*
%TO.N,/RP2354 Board/XOUT*%
X255998001Y-149798001D02*
X254500000Y-148300000D01*
X253230000Y-147030000D02*
X253230000Y-144620000D01*
X254500000Y-148300000D02*
X253230000Y-147030000D01*
X255998001Y-150286399D02*
X255998001Y-149798001D01*
%TO.N,/RP2354 Board/SD3*%
X253230000Y-134720000D02*
X253230000Y-127730000D01*
%TO.N,/RP2354 Board/SCLK*%
X252829999Y-129869999D02*
X252830000Y-134720000D01*
X250260000Y-127300000D02*
X252829999Y-129869999D01*
%TO.N,/RP2354 Board/SD0*%
X252429999Y-134720000D02*
X252429999Y-132009998D01*
X252429999Y-132009998D02*
X247720001Y-127300000D01*
%TO.N,/RP2354 Board/SD2*%
X245437730Y-127300000D02*
X252030000Y-133892270D01*
X252030000Y-133892270D02*
X252030000Y-134720000D01*
%TO.N,/RP2354 Board/SD1*%
X242440000Y-127300000D02*
X243590000Y-128450000D01*
X243590000Y-128450000D02*
X246022047Y-128450000D01*
X246022047Y-128450000D02*
X251630001Y-134057956D01*
X251630000Y-134720000D02*
X251630000Y-134223640D01*
X251630001Y-134057956D02*
X251630000Y-134720000D01*
%TO.N,/RP2354 Board/SS*%
X245856361Y-128850000D02*
X241450000Y-128850000D01*
X241450000Y-128850000D02*
X239900000Y-127300000D01*
X251230000Y-134720000D02*
X251230001Y-134223640D01*
X251230001Y-134223640D02*
X245856361Y-128850000D01*
%TO.N,/RP2354 Board/VBUCK*%
X246788001Y-119519799D02*
X246080201Y-119519799D01*
X258452619Y-123116000D02*
X258452618Y-124258000D01*
X249701002Y-122784993D02*
X249868262Y-122952253D01*
X249201000Y-122534885D02*
X249201000Y-122107999D01*
X257452618Y-124258001D02*
X256740118Y-124970501D01*
X257452619Y-123410000D02*
X256803619Y-122761000D01*
X247529625Y-123103624D02*
X248632262Y-123103623D01*
X258708618Y-122859999D02*
X258452619Y-123116000D01*
X249701001Y-122107999D02*
X249201000Y-122107999D01*
X247562001Y-119468999D02*
X247988501Y-119895499D01*
X246838801Y-119468999D02*
X247562001Y-119468999D01*
X257952618Y-124257999D02*
X258452618Y-124257999D01*
X248632262Y-123103623D02*
X249201000Y-122534885D01*
X249701002Y-122107999D02*
X249701002Y-122784993D01*
X257952619Y-124258000D02*
X257452618Y-124258001D01*
X257452618Y-124258001D02*
X257452619Y-123410000D01*
X256700000Y-123400000D02*
X256700000Y-122864619D01*
X246788001Y-123845247D02*
X247529625Y-123103624D01*
X246080201Y-119519799D02*
X246000000Y-119600000D01*
%TO.N,Net-(J10-Pin_10)*%
X244973866Y-135870000D02*
X240588800Y-131484934D01*
X248080000Y-135870000D02*
X244973866Y-135870000D01*
%TO.N,Net-(J10-Pin_9)*%
X243305600Y-136270000D02*
X248079999Y-136270000D01*
X240588800Y-133553200D02*
X243305600Y-136270000D01*
%TO.N,Net-(J10-Pin_8)*%
X241165601Y-136670000D02*
X240588800Y-136093199D01*
X248080000Y-136670000D02*
X241165601Y-136670000D01*
%TO.N,Net-(J10-Pin_7)*%
X242151999Y-137070001D02*
X248080000Y-137070000D01*
X240588800Y-138633200D02*
X242151999Y-137070001D01*
%TO.N,+3V3*%
X251152382Y-143302382D02*
X250950000Y-143100000D01*
X257512377Y-135870000D02*
X257980000Y-135870000D01*
X260839619Y-130593339D02*
X260839619Y-130325001D01*
X251033640Y-135420000D02*
X253426360Y-135420000D01*
X257374001Y-130070000D02*
X256750000Y-129445999D01*
X258000000Y-131260000D02*
X258000000Y-130075000D01*
X258338936Y-132260000D02*
X258614468Y-132535532D01*
X256988181Y-132260000D02*
X255630000Y-133618181D01*
X250950000Y-143100000D02*
X250950000Y-142750000D01*
X250430000Y-144024763D02*
X250430000Y-144620000D01*
X258200000Y-132260000D02*
X257950000Y-132260000D01*
X247660000Y-135420000D02*
X248526360Y-135420000D01*
X247200000Y-134960000D02*
X247660000Y-135420000D01*
X253630000Y-135216360D02*
X253630001Y-134720000D01*
X253426360Y-135420000D02*
X253630000Y-135216360D01*
X247660000Y-135420000D02*
X250626360Y-135420000D01*
X257483640Y-139870001D02*
X256700000Y-140653641D01*
X257483641Y-143470000D02*
X257980000Y-143470000D01*
X258810000Y-132870000D02*
X258200000Y-132260000D01*
X248576360Y-141469999D02*
X250430001Y-143323640D01*
X256117955Y-135870000D02*
X257980000Y-135870000D01*
X257280001Y-143266360D02*
X257483641Y-143470000D01*
X248526360Y-135420000D02*
X248779999Y-135673639D01*
X248780000Y-137266360D02*
X248576360Y-137470000D01*
X255630000Y-133618181D02*
X255630000Y-134720000D01*
X257980001Y-136270000D02*
X257980000Y-135870000D01*
X253800000Y-135650000D02*
X253800000Y-134950000D01*
X248080000Y-141470000D02*
X248576360Y-141469999D01*
X257483640Y-139870001D02*
X257280001Y-140073640D01*
X256796581Y-136548626D02*
X256833751Y-136548626D01*
X253800000Y-134950000D02*
X254030000Y-134720000D01*
X251848119Y-143100000D02*
X251354763Y-143100000D01*
X261330545Y-131084265D02*
X260839619Y-130593339D01*
X255630000Y-135382045D02*
X256117955Y-135870000D01*
X250830000Y-135216360D02*
X251033640Y-135420000D01*
X251354763Y-143100000D02*
X251152382Y-143302382D01*
X250626360Y-135420000D02*
X250830000Y-135216360D01*
X255630000Y-134720000D02*
X255630000Y-135382045D01*
X245000000Y-134960000D02*
X247200000Y-134960000D01*
X252429999Y-144620000D02*
X252430000Y-143681881D01*
X248779999Y-135673639D02*
X248780000Y-137266360D01*
X255630000Y-135382045D02*
X256796581Y-136548626D01*
X261385735Y-131084265D02*
X261330545Y-131084265D01*
X257790000Y-133890000D02*
X258810000Y-132870000D01*
X257995000Y-130070000D02*
X257374001Y-130070000D01*
X254030000Y-134720000D02*
X253630001Y-134720000D01*
X252430000Y-143681881D02*
X251848119Y-143100000D01*
X248576360Y-137470000D02*
X248080000Y-137470001D01*
X257950000Y-132260000D02*
X256988181Y-132260000D01*
X250830001Y-134720000D02*
X250830000Y-135216360D01*
X250430001Y-143323640D02*
X250430000Y-144620000D01*
X257280001Y-140073640D02*
X257280001Y-143266360D01*
X251152382Y-143302382D02*
X250430000Y-144024763D01*
X257950000Y-132260000D02*
X258338936Y-132260000D01*
X256833751Y-136548626D02*
X257512377Y-135870000D01*
X257980000Y-139870000D02*
X257483640Y-139870001D01*
X256700000Y-140653641D02*
X256700000Y-140700000D01*
%TO.N,Net-(J10-Pin_6)*%
X240588800Y-141173200D02*
X243892000Y-137870000D01*
X243892000Y-137870000D02*
X248080000Y-137870000D01*
%TO.N,Net-(J10-Pin_5)*%
X241738800Y-141140800D02*
X244609600Y-138270000D01*
X244609600Y-138270000D02*
X247583640Y-138270000D01*
X241065146Y-142323200D02*
X241738800Y-141649546D01*
X240588800Y-143713200D02*
X240588800Y-142323200D01*
X241738800Y-141649546D02*
X241738800Y-141140800D01*
X240588800Y-142323200D02*
X241065146Y-142323200D01*
X247583640Y-138270000D02*
X248080000Y-138270000D01*
%TO.N,Net-(J10-Pin_4)*%
X248080000Y-138670000D02*
X246683598Y-138670000D01*
X246683598Y-138670000D02*
X246483599Y-138869999D01*
%TO.N,Net-(J10-Pin_3)*%
X248080000Y-139069999D02*
X249153599Y-139069999D01*
X249153599Y-139069999D02*
X249174000Y-139090400D01*
%TO.N,+1V1*%
X249422529Y-139690400D02*
X249456465Y-139656465D01*
X255030000Y-141270000D02*
X256830000Y-139470000D01*
X246520782Y-143979218D02*
X246520782Y-143729218D01*
X256822495Y-131860000D02*
X255230000Y-133452496D01*
X246520782Y-143729218D02*
X247100000Y-143150000D01*
X251030000Y-141230000D02*
X251030000Y-141450000D01*
X251030000Y-141450000D02*
X251030000Y-141670000D01*
X251030000Y-141670000D02*
X251470000Y-141670000D01*
X255229999Y-134720000D02*
X255230000Y-133452495D01*
X248925471Y-139690400D02*
X249422529Y-139690400D01*
X245668800Y-139953070D02*
X245668800Y-139090400D01*
X257483640Y-139469999D02*
X257980000Y-139470000D01*
X255229999Y-134720000D02*
X255229999Y-137216358D01*
X254630000Y-141670000D02*
X255030000Y-141670000D01*
X246125000Y-144375000D02*
X246125000Y-144403284D01*
X253630001Y-142669999D02*
X254630000Y-141670000D01*
X253630001Y-144620000D02*
X253630001Y-142669999D01*
X249950000Y-141850000D02*
X250630000Y-141850000D01*
X259842000Y-132914534D02*
X258787466Y-131860000D01*
X246125000Y-144403284D02*
X244079218Y-146449066D01*
X253426360Y-143920000D02*
X253630001Y-144123641D01*
X245668800Y-139090400D02*
X246048399Y-139469999D01*
X259842000Y-132994400D02*
X260830000Y-133982400D01*
X248705071Y-139470000D02*
X248925471Y-139690400D01*
X250630000Y-141850000D02*
X251030000Y-141450000D01*
X249456465Y-139656465D02*
X251030000Y-141230000D01*
X246048399Y-139469999D02*
X248080000Y-139470000D01*
X251470000Y-141670000D02*
X253426360Y-143626360D01*
X253426360Y-143626360D02*
X253426360Y-143920000D01*
X255229999Y-137216358D02*
X257483640Y-139469999D01*
X261660000Y-134150000D02*
X261860000Y-133950000D01*
X246125000Y-144375000D02*
X246520782Y-143979218D01*
X255030000Y-141670000D02*
X255030000Y-141270000D01*
X244315622Y-140443578D02*
X245178292Y-140443578D01*
X248080000Y-139470000D02*
X248705071Y-139470000D01*
X253630001Y-144123641D02*
X253630001Y-144620000D01*
X260830000Y-134150000D02*
X261660000Y-134150000D01*
X256830000Y-139470000D02*
X257980000Y-139470000D01*
X258787466Y-131860000D02*
X256822495Y-131860000D01*
X245178292Y-140443578D02*
X245668800Y-139953070D01*
X245550000Y-144950000D02*
X246125000Y-144375000D01*
%TO.N,Net-(J10-Pin_2)*%
X246379999Y-139870000D02*
X248080000Y-139870000D01*
X243349599Y-142900400D02*
X246379999Y-139870000D01*
X242468400Y-142900400D02*
X243349599Y-142900400D01*
X240588800Y-151333200D02*
X242468400Y-149453600D01*
X242468400Y-149453600D02*
X242468400Y-142900400D01*
%TO.N,Net-(J10-Pin_1)*%
X242868400Y-151593600D02*
X240588800Y-153873200D01*
X242868400Y-144985240D02*
X242868400Y-151593600D01*
X247583640Y-140270000D02*
X242868400Y-144985240D01*
X248080000Y-140270001D02*
X247583640Y-140270000D01*
%TO.N,Net-(J4-Pin_12)*%
X243490800Y-150359200D02*
X249230000Y-144620000D01*
X243490800Y-153714401D02*
X243490800Y-150359200D01*
X239217201Y-157988000D02*
X243490800Y-153714401D01*
%TO.N,Net-(J4-Pin_11)*%
X241757200Y-157988000D02*
X243890800Y-155854400D01*
X243890800Y-155854400D02*
X243890800Y-153135724D01*
X243890800Y-153135724D02*
X249630000Y-147396524D01*
X249630000Y-147396524D02*
X249630000Y-144620001D01*
%TO.N,Net-(J4-Pin_10)*%
X244297200Y-157988000D02*
X244297200Y-153473686D01*
X250139200Y-147631686D02*
X250139200Y-147523200D01*
X250139200Y-147523200D02*
X250030000Y-147414000D01*
X244297200Y-153473686D02*
X250139200Y-147631686D01*
X250030000Y-147414000D02*
X250030000Y-144620000D01*
%TO.N,Net-(J4-Pin_9)*%
X246837200Y-151732714D02*
X246837200Y-157988000D01*
X250830001Y-144620000D02*
X250830001Y-147739913D01*
X250830001Y-147739913D02*
X246837200Y-151732714D01*
%TO.N,Net-(J4-Pin_8)*%
X251230000Y-147852000D02*
X251230000Y-144620000D01*
X249377199Y-149758401D02*
X251256800Y-147878800D01*
X249377199Y-157988000D02*
X249377199Y-149758401D01*
X251256800Y-147878800D02*
X251230000Y-147852000D01*
%TO.N,Net-(J4-Pin_7)*%
X251830000Y-145542000D02*
X251630000Y-145342000D01*
X251630000Y-145342000D02*
X251630000Y-144620000D01*
X251830000Y-145796000D02*
X251830000Y-145542000D01*
%TO.N,Net-(J4-Pin_6)*%
X251902433Y-143720000D02*
X252030000Y-143847567D01*
X252030000Y-143847567D02*
X252030000Y-144620000D01*
X251583292Y-143720000D02*
X251902433Y-143720000D01*
%TO.N,/RP2354 Board/RST*%
X256300000Y-147980002D02*
X254829999Y-146510001D01*
X254829999Y-146510001D02*
X254830000Y-144620000D01*
%TO.N,Net-(J4-Pin_5)*%
X255229999Y-145755999D02*
X256997200Y-147523200D01*
X255229999Y-144620000D02*
X255229999Y-145755999D01*
X256997200Y-147523200D02*
X256997200Y-157988000D01*
%TO.N,Net-(J4-Pin_4)*%
X255629999Y-145560171D02*
X255629999Y-144576800D01*
X258687200Y-157138000D02*
X258687200Y-148617372D01*
X258687200Y-148617372D02*
X255629999Y-145560171D01*
X259537200Y-157988000D02*
X258687200Y-157138000D01*
%TO.N,Net-(J4-Pin_3)*%
X256030000Y-145394485D02*
X256030000Y-144620000D01*
X259537200Y-148901686D02*
X256030000Y-145394485D01*
X262077201Y-157988000D02*
X259537200Y-155447999D01*
X259537200Y-155447999D02*
X259537200Y-148901686D01*
%TO.N,Net-(J4-Pin_2)*%
X256430000Y-145228800D02*
X259937200Y-148736000D01*
X259937200Y-153308000D02*
X264617200Y-157988000D01*
X256430000Y-144620001D02*
X256430000Y-145228800D01*
X259937200Y-148736000D02*
X259937200Y-153308000D01*
%TO.N,Net-(J4-Pin_1)*%
X267157200Y-157988000D02*
X261924800Y-152755600D01*
X261924800Y-149714800D02*
X256830000Y-144620000D01*
X261924800Y-152755600D02*
X261924800Y-149714800D01*
%TO.N,/RP2354 Board/IO1*%
X258680000Y-143273640D02*
X258476360Y-143070000D01*
X258680000Y-143880000D02*
X258680000Y-143273640D01*
X263450000Y-148650000D02*
X258680000Y-143880000D01*
X258476360Y-143070000D02*
X257980001Y-143070000D01*
X263450000Y-152310000D02*
X263450000Y-148650000D01*
X265000000Y-153860000D02*
X263450000Y-152310000D01*
%TO.N,/RP2354 Board/SPI1_MOSI*%
X263296400Y-146690040D02*
X263296400Y-147624800D01*
X263296400Y-147624800D02*
X263850000Y-148178400D01*
X263850000Y-150170000D02*
X265000000Y-151320000D01*
X258476360Y-141870000D02*
X263296400Y-146690040D01*
X257980000Y-141869999D02*
X258476360Y-141870000D01*
X263850000Y-148178400D02*
X263850000Y-150170000D01*
%TO.N,/RP2354 Board/SPI1_MISO*%
X263696400Y-146524354D02*
X258642046Y-141470000D01*
X258642046Y-141470000D02*
X257980000Y-141470000D01*
X265000000Y-148414000D02*
X263696400Y-147110400D01*
X263696400Y-147110400D02*
X263696400Y-146524354D01*
X257980000Y-141470000D02*
X258476360Y-141469999D01*
%TO.N,/RP2354 Board/SPI0_MISO*%
X265000000Y-146240000D02*
X259830000Y-141070000D01*
X259830000Y-141070000D02*
X257980000Y-141070000D01*
%TO.N,/RP2354 Board/SPI0_MOSI*%
X265700000Y-144300000D02*
X262070000Y-140670000D01*
X262070000Y-140670000D02*
X257980000Y-140670000D01*
%TO.N,/RP2354 Board/CS1*%
X257980000Y-140270001D02*
X258476360Y-140270000D01*
X264210001Y-140270001D02*
X265700000Y-141760000D01*
X258476360Y-140270000D02*
X264210001Y-140270001D01*
%TO.N,/RP2354 Board/CS2*%
X265000000Y-136452534D02*
X262382535Y-139069999D01*
X262382535Y-139069999D02*
X257980000Y-139069999D01*
%TO.N,/RP2354 Board/CS3*%
X265000000Y-133540000D02*
X263293424Y-135246576D01*
X263293424Y-135246576D02*
X263293424Y-137593424D01*
X262216848Y-138670000D02*
X257980000Y-138670000D01*
X263293424Y-137593424D02*
X262216848Y-138670000D01*
%TO.N,/RP2354 Board/CS4*%
X257980000Y-138270000D02*
X259044215Y-138270000D01*
X263850000Y-133464215D02*
X263850000Y-132150000D01*
X263850000Y-132150000D02*
X265000000Y-131000000D01*
X259044215Y-138270000D02*
X263850000Y-133464215D01*
%TO.N,/RP2354 Board/CHG*%
X260359937Y-136388592D02*
X259678529Y-137070000D01*
X248305377Y-122503623D02*
X248243677Y-122503623D01*
X260359937Y-136049999D02*
X260359937Y-136388592D01*
X248701001Y-122107999D02*
X248426625Y-122382375D01*
X259678529Y-137070000D02*
X257980000Y-137070000D01*
X248426625Y-122382375D02*
X246808377Y-122382375D01*
X248426625Y-122382375D02*
X248305377Y-122503623D01*
%TO.N,/RP2354 Board/PGD*%
X246026001Y-123123999D02*
X246026001Y-122358649D01*
X246026001Y-122358649D02*
X247489151Y-120895499D01*
X246026001Y-122663920D02*
X245962081Y-122600000D01*
X246026001Y-123123999D02*
X246026001Y-122663920D01*
X259230000Y-136670000D02*
X257980000Y-136670000D01*
X259600000Y-136300000D02*
X259230000Y-136670000D01*
X247489151Y-120895499D02*
X247988501Y-120895499D01*
%TO.N,/RP2354 Board/VREGAVDD*%
X256830000Y-134720000D02*
X257999998Y-134720000D01*
X257999998Y-134720000D02*
X258809998Y-133910000D01*
X259790000Y-133910000D02*
X258809998Y-133910000D01*
%TO.N,/RP2354 Board/VREGlX*%
X256030000Y-135216359D02*
X256030000Y-134720000D01*
X256263641Y-135450000D02*
X256030000Y-135216359D01*
X260500000Y-135450000D02*
X256263641Y-135450000D01*
X260830000Y-135120000D02*
X260500000Y-135450000D01*
%TO.N,/RP2354 Board/DP*%
X254829999Y-132880000D02*
X254830000Y-134720000D01*
X255080000Y-132629999D02*
X254829999Y-132880000D01*
%TO.N,/RP2354 Board/DN*%
X254080000Y-132629999D02*
X254430000Y-132979999D01*
X254430000Y-132979999D02*
X254430000Y-134720000D01*
%TO.N,/RP2354 Board/VOUT*%
X255913233Y-125804815D02*
X255913233Y-126570501D01*
X255913233Y-126570501D02*
X256525733Y-127182998D01*
X258452618Y-128124999D02*
X258452619Y-127183000D01*
X256247548Y-125470500D02*
X255913233Y-125804815D01*
X256740119Y-125470500D02*
X256247548Y-125470500D01*
X258676620Y-128349000D02*
X258676620Y-128776219D01*
X256525733Y-127182998D02*
X257452619Y-127183000D01*
X256750000Y-127885617D02*
X257452618Y-127182999D01*
X256750000Y-128475999D02*
X256750000Y-127885617D01*
X257452619Y-127183000D02*
X258452619Y-127183000D01*
X258676621Y-128348998D02*
X258452618Y-128124999D01*
X258676620Y-128776219D02*
X258426493Y-129026346D01*
%TO.N,/RP2354 Board/D-*%
X255261500Y-122176680D02*
X254790000Y-122648180D01*
X255261500Y-131064898D02*
X255080000Y-131246398D01*
X255261500Y-120500000D02*
X255261500Y-122176680D01*
X255080000Y-131246398D02*
X255080000Y-131610001D01*
X254790000Y-122648180D02*
X254790000Y-124262066D01*
X255261500Y-124733566D02*
X255261500Y-131064898D01*
X254790000Y-124262066D02*
X255261500Y-124733566D01*
%TO.N,Net-(J3-Pin_1)*%
X248106134Y-118510000D02*
X247430000Y-118510000D01*
X249201002Y-119182999D02*
X249701002Y-119182999D01*
X243500000Y-119160000D02*
X244740000Y-119160000D01*
X244740000Y-119160000D02*
X246000000Y-117900000D01*
X249201002Y-119182999D02*
X249201002Y-118756113D01*
X248216134Y-118400000D02*
X248106134Y-118510000D01*
X249201002Y-118756113D02*
X248844889Y-118400000D01*
X246000000Y-117900000D02*
X246820000Y-117900000D01*
X247430000Y-118510000D02*
X246820000Y-117900000D01*
X248844889Y-118400000D02*
X248216134Y-118400000D01*
%TO.N,/RP2354 Board/VSS*%
X248701002Y-121395499D02*
X248861002Y-121235499D01*
X247988502Y-121395499D02*
X248701002Y-121395499D01*
%TO.N,Net-(U3-ILIM)*%
X250841953Y-123515047D02*
X250841953Y-122748951D01*
X250841953Y-122748951D02*
X250201001Y-122107999D01*
%TO.N,/RP2354 Board/VBUS*%
X251769999Y-117269999D02*
X253060624Y-118560624D01*
X251769999Y-112793001D02*
X251769999Y-113518000D01*
X251769999Y-113518000D02*
X251769999Y-117269999D01*
X255970000Y-112093000D02*
X252470000Y-112093000D01*
X251036779Y-124463221D02*
X252250000Y-123250000D01*
X254724000Y-120575000D02*
X254724000Y-120228054D01*
X253060624Y-119049256D02*
X253961368Y-119950000D01*
X256670001Y-112793001D02*
X255970000Y-112093000D01*
X253961368Y-119950000D02*
X253927054Y-119950000D01*
X252470000Y-112093000D02*
X251769999Y-112793001D01*
X252250000Y-121627054D02*
X252250000Y-122319498D01*
X253927054Y-119950000D02*
X252250000Y-121627054D01*
X254445946Y-119950000D02*
X253961368Y-119950000D01*
X254724000Y-120228054D02*
X254445946Y-119950000D01*
X252250000Y-123250000D02*
X252250000Y-122319498D01*
X256670001Y-113518000D02*
X256670001Y-112793001D01*
X251326001Y-121395499D02*
X250913502Y-121395499D01*
X250057623Y-124463221D02*
X251036779Y-124463221D01*
X252250000Y-122319498D02*
X251326001Y-121395499D01*
X253060624Y-118560624D02*
X253060624Y-119049256D01*
%TO.N,Net-(U3-ISET)*%
X251774401Y-119034599D02*
X250913501Y-119895499D01*
X252122001Y-119034599D02*
X251774401Y-119034599D01*
%TO.N,Net-(U4-FB)*%
X261110000Y-127915381D02*
X261110000Y-128225000D01*
X259645000Y-129623486D02*
X259645000Y-130070000D01*
X259823619Y-126628999D02*
X259665119Y-126470499D01*
X261043486Y-128225000D02*
X259645000Y-129623486D01*
X261110000Y-128225000D02*
X261043486Y-128225000D01*
X259665118Y-126470499D02*
X261110000Y-127915381D01*
%TO.N,Net-(U4-PG)*%
X259696618Y-127927000D02*
X258952618Y-127183000D01*
X259696618Y-128349000D02*
X259696618Y-127927000D01*
%TO.N,Net-(U4-SS{slash}TR)*%
X255800000Y-123140000D02*
X255800000Y-122828485D01*
X255800000Y-122828485D02*
X256477486Y-122150999D01*
X256477486Y-122150999D02*
X259058617Y-122150999D01*
X258952619Y-124258001D02*
X258952619Y-123575999D01*
X259058617Y-122150999D02*
X259668617Y-122760999D01*
X259058619Y-122151000D02*
X259668618Y-122760999D01*
X258952619Y-123575999D02*
X259668618Y-122860000D01*
%TO.N,Net-(J2-CC1)*%
X256150000Y-115069001D02*
X256150000Y-115390001D01*
X255470000Y-114389001D02*
X256150000Y-115069001D01*
X255470000Y-113517999D02*
X255470000Y-114389001D01*
%TO.N,/RP2354 Board/USBD-*%
X254949000Y-118092590D02*
X255174000Y-118317590D01*
X255174000Y-118317590D02*
X255174000Y-118337499D01*
X254945000Y-117455000D02*
X254949000Y-117459000D01*
X255174000Y-118337499D02*
X255261500Y-118424999D01*
X253970000Y-113518000D02*
X253970000Y-114275410D01*
X254970000Y-113518000D02*
X254970000Y-114605501D01*
X254237590Y-114543000D02*
X254702410Y-114543000D01*
X255261500Y-118424999D02*
X255261500Y-118800000D01*
X254945000Y-114630501D02*
X254945000Y-117455000D01*
X254949000Y-117459000D02*
X254949000Y-118092590D01*
X253970000Y-114275410D02*
X254237590Y-114543000D01*
X254970000Y-114275410D02*
X254970000Y-113518000D01*
X254970000Y-114605501D02*
X254945000Y-114630501D01*
X254702410Y-114543000D02*
X254970000Y-114275410D01*
%TO.N,/RP2354 Board/USBD+*%
X254495000Y-114943000D02*
X254495000Y-118096000D01*
X254071905Y-114943000D02*
X254495000Y-114943000D01*
X254274000Y-118337499D02*
X254186500Y-118424999D01*
X253520000Y-114391095D02*
X254071905Y-114943000D01*
X253737590Y-112493000D02*
X253520000Y-112710590D01*
X254202410Y-112493000D02*
X254470000Y-112760590D01*
X253470000Y-113518000D02*
X253470000Y-112760590D01*
X253470000Y-112760590D02*
X253737590Y-112493000D01*
X254274000Y-118317000D02*
X254274000Y-118337499D01*
X253737590Y-112493000D02*
X254202410Y-112493000D01*
X254186500Y-118424999D02*
X254186500Y-118800000D01*
X254470000Y-112760590D02*
X254470000Y-113518000D01*
X254495000Y-118096000D02*
X254274000Y-118317000D01*
X253520000Y-112710590D02*
X253520000Y-114391095D01*
%TO.N,/RP2354 Board/D+*%
X254340020Y-122461792D02*
X254340020Y-124448454D01*
X254811499Y-130878502D02*
X254080000Y-131610001D01*
X254811499Y-121519909D02*
X254811499Y-121990313D01*
X254340020Y-124448454D02*
X254811499Y-124919933D01*
X254274000Y-120587500D02*
X254274000Y-120982410D01*
X254811499Y-124919933D02*
X254811499Y-130878502D01*
X254274000Y-120982410D02*
X254811499Y-121519909D01*
X254811499Y-121990313D02*
X254340020Y-122461792D01*
%TO.N,Net-(J2-CC2)*%
X252639376Y-115439376D02*
X252639376Y-114939376D01*
X252470000Y-114770000D02*
X252470000Y-113518000D01*
X252639376Y-114939376D02*
X252470000Y-114770000D01*
%TD*%
%TA.AperFunction,Conductor*%
%TO.N,GND*%
G36*
X251024305Y-148638777D02*
G01*
X251080239Y-148680648D01*
X251104330Y-148742357D01*
X251110494Y-148802697D01*
X251165641Y-148969119D01*
X251165643Y-148969124D01*
X251257684Y-149118345D01*
X251381656Y-149242317D01*
X251410801Y-149260294D01*
X251457525Y-149312242D01*
X251468746Y-149381205D01*
X251461272Y-149410775D01*
X251455283Y-149426175D01*
X251447207Y-149437118D01*
X251412900Y-149535160D01*
X251412116Y-149537178D01*
X251392035Y-149563239D01*
X251372866Y-149589966D01*
X251370817Y-149590778D01*
X251369472Y-149592524D01*
X251338493Y-149603591D01*
X251307913Y-149615713D01*
X251305750Y-149615288D01*
X251303675Y-149616030D01*
X251271637Y-149608593D01*
X251239351Y-149602256D01*
X251235766Y-149600266D01*
X251235615Y-149600231D01*
X251235511Y-149600124D01*
X251233426Y-149598967D01*
X251124195Y-149534368D01*
X251124190Y-149534366D01*
X250968918Y-149489255D01*
X250968912Y-149489254D01*
X250948000Y-149487609D01*
X250948000Y-150142400D01*
X250928315Y-150209439D01*
X250875511Y-150255194D01*
X250824000Y-150266400D01*
X250572000Y-150266400D01*
X250504961Y-150246715D01*
X250459206Y-150193911D01*
X250448000Y-150142400D01*
X250448000Y-149487610D01*
X250447999Y-149487609D01*
X250427087Y-149489254D01*
X250389399Y-149500204D01*
X250319530Y-149500004D01*
X250260860Y-149462061D01*
X250232017Y-149398422D01*
X250242159Y-149329293D01*
X250267121Y-149293449D01*
X250893295Y-148667275D01*
X250954614Y-148633793D01*
X251024305Y-148638777D01*
G37*
%TD.AperFunction*%
%TA.AperFunction,Conductor*%
G36*
X247376302Y-140980678D02*
G01*
X247398834Y-140982290D01*
X247409250Y-140990087D01*
X247421763Y-140993661D01*
X247436684Y-141010625D01*
X247454767Y-141024162D01*
X247459313Y-141036352D01*
X247467909Y-141046124D01*
X247478103Y-141079914D01*
X247479500Y-141089143D01*
X247479500Y-141144674D01*
X247494034Y-141217740D01*
X247500410Y-141227282D01*
X247504067Y-141251442D01*
X247496025Y-141317452D01*
X247494033Y-141322259D01*
X247479500Y-141395323D01*
X247479500Y-141544678D01*
X247494032Y-141617738D01*
X247496026Y-141622551D01*
X247503492Y-141692021D01*
X247496026Y-141717449D01*
X247494033Y-141722260D01*
X247479500Y-141795322D01*
X247479500Y-141795325D01*
X247479500Y-141944673D01*
X247479500Y-141944675D01*
X247479499Y-141944675D01*
X247494033Y-142017739D01*
X247496025Y-142022547D01*
X247503494Y-142092016D01*
X247496026Y-142117449D01*
X247494033Y-142122259D01*
X247479500Y-142195323D01*
X247479500Y-142195326D01*
X247479500Y-142344674D01*
X247479500Y-142344676D01*
X247479499Y-142344676D01*
X247494033Y-142417740D01*
X247496025Y-142422548D01*
X247503494Y-142492017D01*
X247502275Y-142497940D01*
X247498035Y-142516270D01*
X247494034Y-142522260D01*
X247479500Y-142595326D01*
X247479500Y-142596418D01*
X247477508Y-142605032D01*
X247461268Y-142633870D01*
X247445929Y-142663195D01*
X247444200Y-142664179D01*
X247443225Y-142665912D01*
X247413983Y-142681386D01*
X247385213Y-142697769D01*
X247383225Y-142697662D01*
X247381469Y-142698592D01*
X247348501Y-142695800D01*
X247315443Y-142694028D01*
X247312709Y-142692769D01*
X247311848Y-142692697D01*
X247310800Y-142691891D01*
X247294704Y-142684483D01*
X247293193Y-142683611D01*
X247293188Y-142683609D01*
X247293187Y-142683608D01*
X247293186Y-142683608D01*
X247165892Y-142649500D01*
X247034108Y-142649500D01*
X246906812Y-142683608D01*
X246792686Y-142749500D01*
X246792683Y-142749502D01*
X246699502Y-142842683D01*
X246699500Y-142842686D01*
X246633608Y-142956812D01*
X246599500Y-143084108D01*
X246599500Y-143174166D01*
X246579815Y-143241205D01*
X246563181Y-143261847D01*
X246336271Y-143488758D01*
X246280323Y-143544705D01*
X246280317Y-143544713D01*
X246240764Y-143613222D01*
X246240761Y-143613227D01*
X246220282Y-143689657D01*
X246220282Y-143803385D01*
X246200597Y-143870424D01*
X246183963Y-143891066D01*
X245940489Y-144134540D01*
X245721050Y-144353978D01*
X245659727Y-144387463D01*
X245633369Y-144390297D01*
X245511173Y-144390297D01*
X245398340Y-144431364D01*
X245398331Y-144431369D01*
X245358665Y-144461806D01*
X245358656Y-144461814D01*
X245061817Y-144758654D01*
X245061809Y-144758663D01*
X245031368Y-144798332D01*
X245031364Y-144798339D01*
X245000488Y-144883173D01*
X244990297Y-144911174D01*
X244990297Y-145031252D01*
X244990298Y-145031255D01*
X244991344Y-145037185D01*
X244990615Y-145043714D01*
X244992912Y-145049870D01*
X244986792Y-145078006D01*
X244983601Y-145106625D01*
X244979112Y-145113314D01*
X244978062Y-145118144D01*
X244956912Y-145146399D01*
X244943236Y-145160076D01*
X244881915Y-145193563D01*
X244855552Y-145196398D01*
X244761641Y-145196398D01*
X244648808Y-145237465D01*
X244648799Y-145237470D01*
X244609133Y-145267907D01*
X244609124Y-145267915D01*
X244312285Y-145564755D01*
X244312277Y-145564764D01*
X244281836Y-145604433D01*
X244281832Y-145604440D01*
X244240765Y-145717274D01*
X244240765Y-145765363D01*
X244221080Y-145832402D01*
X244168276Y-145878157D01*
X244116765Y-145889363D01*
X244040391Y-145889363D01*
X243927558Y-145930430D01*
X243927549Y-145930435D01*
X243887883Y-145960872D01*
X243887874Y-145960880D01*
X243591035Y-146257720D01*
X243591027Y-146257729D01*
X243560586Y-146297398D01*
X243560582Y-146297405D01*
X243519515Y-146410239D01*
X243519515Y-146530318D01*
X243560584Y-146643156D01*
X243560585Y-146643157D01*
X243591027Y-146682830D01*
X243591035Y-146682839D01*
X243845447Y-146937250D01*
X243845456Y-146937258D01*
X243853158Y-146943168D01*
X243894360Y-146999596D01*
X243897974Y-147060275D01*
X243899815Y-147060508D01*
X243898837Y-147068251D01*
X243898837Y-147229957D01*
X243939051Y-147386577D01*
X243939051Y-147386578D01*
X244012390Y-147519981D01*
X244012391Y-147519982D01*
X244390345Y-147142029D01*
X245125736Y-147142029D01*
X245125736Y-147142030D01*
X245485503Y-147501797D01*
X245485504Y-147501797D01*
X245499127Y-147485850D01*
X245577029Y-147344148D01*
X245579902Y-147336893D01*
X245583006Y-147338121D01*
X245610897Y-147291181D01*
X245664499Y-147261884D01*
X245695553Y-147253910D01*
X245837254Y-147176009D01*
X245853201Y-147162388D01*
X245479289Y-146788476D01*
X245479288Y-146788476D01*
X245125736Y-147142029D01*
X244390345Y-147142029D01*
X244529387Y-147002987D01*
X245097453Y-146434921D01*
X245832843Y-146434921D01*
X245832843Y-146434922D01*
X246206753Y-146808832D01*
X246206754Y-146808832D01*
X246220378Y-146792883D01*
X246298278Y-146651185D01*
X246298279Y-146651181D01*
X246325582Y-146544841D01*
X246361320Y-146484802D01*
X246414853Y-146455572D01*
X246445083Y-146447811D01*
X246586786Y-146369908D01*
X246602733Y-146356287D01*
X246257107Y-146010660D01*
X246257106Y-146010660D01*
X245832843Y-146434921D01*
X245097453Y-146434921D01*
X245195482Y-146336892D01*
X245220007Y-146317862D01*
X245275843Y-146284815D01*
X245302512Y-146258147D01*
X245415649Y-146145009D01*
X245415649Y-146139803D01*
X245435334Y-146072764D01*
X245451968Y-146052122D01*
X245875270Y-145628820D01*
X246582375Y-145628820D01*
X246582375Y-145628821D01*
X246956285Y-146002731D01*
X246956286Y-146002731D01*
X246969910Y-145986782D01*
X247047810Y-145845084D01*
X247047813Y-145845074D01*
X247088024Y-145688463D01*
X247088025Y-145688456D01*
X247088025Y-145526757D01*
X247088024Y-145526752D01*
X247047811Y-145370134D01*
X246974469Y-145236726D01*
X246582375Y-145628820D01*
X245875270Y-145628820D01*
X246052045Y-145452045D01*
X246620916Y-144883173D01*
X246620915Y-144883172D01*
X246487512Y-144809833D01*
X246424283Y-144793598D01*
X246364245Y-144757859D01*
X246333061Y-144695335D01*
X246340629Y-144625876D01*
X246350215Y-144607384D01*
X246357617Y-144595637D01*
X246365460Y-144587795D01*
X246397149Y-144532906D01*
X246398414Y-144530900D01*
X246400498Y-144529061D01*
X246415636Y-144509333D01*
X246761242Y-144163729D01*
X246782108Y-144127588D01*
X246800803Y-144095207D01*
X246821282Y-144018780D01*
X246821282Y-143905050D01*
X246829926Y-143875609D01*
X246836450Y-143845623D01*
X246840204Y-143840607D01*
X246840967Y-143838011D01*
X246857597Y-143817373D01*
X246988151Y-143686818D01*
X247049474Y-143653334D01*
X247075832Y-143650500D01*
X247165890Y-143650500D01*
X247165892Y-143650500D01*
X247293186Y-143616392D01*
X247336891Y-143591159D01*
X247404790Y-143574685D01*
X247470818Y-143597537D01*
X247501994Y-143629654D01*
X247549398Y-143700600D01*
X247549399Y-143700601D01*
X247623357Y-143750017D01*
X247632260Y-143755966D01*
X247632264Y-143755967D01*
X247705321Y-143770499D01*
X247705324Y-143770500D01*
X247705326Y-143770500D01*
X248454676Y-143770500D01*
X248454677Y-143770499D01*
X248527740Y-143755966D01*
X248610601Y-143700601D01*
X248665966Y-143617740D01*
X248680500Y-143544674D01*
X248680500Y-143395326D01*
X248680500Y-143395323D01*
X248680499Y-143395321D01*
X248665967Y-143322264D01*
X248665966Y-143322263D01*
X248665966Y-143322260D01*
X248665964Y-143322257D01*
X248663976Y-143317457D01*
X248656504Y-143247988D01*
X248663976Y-143222542D01*
X248665966Y-143217737D01*
X248680498Y-143144678D01*
X248680499Y-143144676D01*
X248680499Y-142995323D01*
X248665965Y-142922259D01*
X248663974Y-142917452D01*
X248656505Y-142847983D01*
X248663977Y-142822539D01*
X248665962Y-142817745D01*
X248665966Y-142817740D01*
X248680500Y-142744674D01*
X248680500Y-142595326D01*
X248680500Y-142595323D01*
X248680499Y-142595321D01*
X248665968Y-142522267D01*
X248665966Y-142522264D01*
X248665966Y-142522260D01*
X248665963Y-142522256D01*
X248663977Y-142517461D01*
X248655932Y-142451441D01*
X248659588Y-142427284D01*
X248665966Y-142417740D01*
X248680500Y-142344674D01*
X248680500Y-142289141D01*
X248681897Y-142279913D01*
X248692865Y-142256359D01*
X248700185Y-142231433D01*
X248707375Y-142225202D01*
X248711393Y-142216575D01*
X248733357Y-142202688D01*
X248752989Y-142185678D01*
X248762406Y-142184323D01*
X248770451Y-142179238D01*
X248796432Y-142179431D01*
X248822147Y-142175734D01*
X248830803Y-142179687D01*
X248840318Y-142179758D01*
X248862068Y-142193965D01*
X248885703Y-142204759D01*
X248892181Y-142210791D01*
X250093181Y-143411791D01*
X250126666Y-143473114D01*
X250129500Y-143499472D01*
X250129500Y-143895500D01*
X250109815Y-143962539D01*
X250057011Y-144008294D01*
X250005500Y-144019500D01*
X249955324Y-144019500D01*
X249882259Y-144034033D01*
X249877449Y-144036026D01*
X249807979Y-144043493D01*
X249782550Y-144036027D01*
X249777738Y-144034034D01*
X249704676Y-144019501D01*
X249704674Y-144019501D01*
X249555326Y-144019501D01*
X249555324Y-144019501D01*
X249482261Y-144034034D01*
X249477450Y-144036027D01*
X249407980Y-144043493D01*
X249382551Y-144036026D01*
X249377740Y-144034033D01*
X249304676Y-144019500D01*
X249304674Y-144019500D01*
X249155326Y-144019500D01*
X249155323Y-144019500D01*
X249082264Y-144034032D01*
X249082260Y-144034033D01*
X248999399Y-144089399D01*
X248944033Y-144172260D01*
X248944032Y-144172264D01*
X248929500Y-144245321D01*
X248929500Y-144444167D01*
X248909815Y-144511206D01*
X248893181Y-144531848D01*
X243380581Y-150044448D01*
X243319258Y-150077933D01*
X243249566Y-150072949D01*
X243193633Y-150031077D01*
X243169216Y-149965613D01*
X243168900Y-149956767D01*
X243168900Y-147873535D01*
X244365944Y-147873535D01*
X244499352Y-147946877D01*
X244655970Y-147987090D01*
X244655976Y-147987091D01*
X244817674Y-147987091D01*
X244817681Y-147987090D01*
X244974292Y-147946879D01*
X244974302Y-147946876D01*
X245116002Y-147868975D01*
X245131951Y-147855353D01*
X244758039Y-147481441D01*
X244758038Y-147481441D01*
X244365944Y-147873535D01*
X243168900Y-147873535D01*
X243168900Y-145161072D01*
X243188585Y-145094033D01*
X243205214Y-145073396D01*
X247267819Y-141010790D01*
X247279237Y-141004555D01*
X247287687Y-140994657D01*
X247309318Y-140988130D01*
X247329142Y-140977306D01*
X247342119Y-140978234D01*
X247354579Y-140974475D01*
X247376302Y-140980678D01*
G37*
%TD.AperFunction*%
%TA.AperFunction,Conductor*%
G36*
X252482152Y-145950736D02*
G01*
X252522680Y-146007650D01*
X252529500Y-146048206D01*
X252529500Y-147284818D01*
X252543454Y-147336893D01*
X252545775Y-147345554D01*
X252550000Y-147377648D01*
X252550000Y-148176000D01*
X252530315Y-148243039D01*
X252477511Y-148288794D01*
X252426000Y-148300000D01*
X252174000Y-148300000D01*
X252106961Y-148280315D01*
X252061206Y-148227511D01*
X252050000Y-148176000D01*
X252050000Y-147200000D01*
X251800029Y-147200000D01*
X251800012Y-147200001D01*
X251697300Y-147210494D01*
X251693495Y-147211755D01*
X251691011Y-147211840D01*
X251690681Y-147211911D01*
X251690668Y-147211851D01*
X251623666Y-147214151D01*
X251563627Y-147178415D01*
X251532440Y-147115892D01*
X251530500Y-147094046D01*
X251530500Y-146395504D01*
X251550185Y-146328465D01*
X251602989Y-146282710D01*
X251672147Y-146272766D01*
X251686571Y-146275724D01*
X251764108Y-146296500D01*
X251764111Y-146296500D01*
X251895890Y-146296500D01*
X251895892Y-146296500D01*
X252023186Y-146262392D01*
X252137314Y-146196500D01*
X252230500Y-146103314D01*
X252296392Y-145989186D01*
X252298113Y-145986206D01*
X252348680Y-145937990D01*
X252417287Y-145924768D01*
X252482152Y-145950736D01*
G37*
%TD.AperFunction*%
%TA.AperFunction,Conductor*%
G36*
X254649322Y-135296792D02*
G01*
X254652008Y-135296504D01*
X254677461Y-135303977D01*
X254682256Y-135305963D01*
X254682260Y-135305966D01*
X254682264Y-135305966D01*
X254682267Y-135305968D01*
X254755321Y-135320499D01*
X254755324Y-135320500D01*
X254805499Y-135320500D01*
X254872538Y-135340185D01*
X254918293Y-135392989D01*
X254929499Y-135444500D01*
X254929499Y-137255920D01*
X254933272Y-137270000D01*
X254949977Y-137332345D01*
X254972006Y-137370501D01*
X254989537Y-137400866D01*
X254989541Y-137400871D01*
X256644168Y-139055498D01*
X256677653Y-139116821D01*
X256672669Y-139186513D01*
X256644168Y-139230860D01*
X254845489Y-141029540D01*
X254789541Y-141085487D01*
X254789535Y-141085495D01*
X254749982Y-141154004D01*
X254749979Y-141154009D01*
X254741763Y-141184671D01*
X254730713Y-141225913D01*
X254729500Y-141230439D01*
X254729500Y-141245500D01*
X254709815Y-141312539D01*
X254657011Y-141358294D01*
X254605500Y-141369500D01*
X254590438Y-141369500D01*
X254555757Y-141378793D01*
X254514009Y-141389979D01*
X254514008Y-141389980D01*
X254471520Y-141414511D01*
X254445492Y-141429538D01*
X254445486Y-141429542D01*
X253389542Y-142485486D01*
X253389536Y-142485494D01*
X253349983Y-142554003D01*
X253349980Y-142554008D01*
X253329501Y-142630438D01*
X253329501Y-142805168D01*
X253309816Y-142872207D01*
X253257012Y-142917962D01*
X253187854Y-142927906D01*
X253124298Y-142898881D01*
X253117820Y-142892849D01*
X251654513Y-141429542D01*
X251654511Y-141429540D01*
X251628480Y-141414511D01*
X251602354Y-141399427D01*
X251585991Y-141389980D01*
X251585990Y-141389979D01*
X251544243Y-141378793D01*
X251509562Y-141369500D01*
X251509560Y-141369500D01*
X251454500Y-141369500D01*
X251387461Y-141349815D01*
X251341706Y-141297011D01*
X251330500Y-141245500D01*
X251330500Y-141190440D01*
X251330499Y-141190436D01*
X251330376Y-141189978D01*
X251324057Y-141166392D01*
X251310022Y-141114012D01*
X251270460Y-141045489D01*
X249659417Y-139434446D01*
X249625932Y-139373123D01*
X249630916Y-139303431D01*
X249639716Y-139284756D01*
X249640392Y-139283586D01*
X249674500Y-139156292D01*
X249674500Y-139024508D01*
X249640392Y-138897214D01*
X249574500Y-138783086D01*
X249481314Y-138689900D01*
X249400062Y-138642989D01*
X249367187Y-138624008D01*
X249260142Y-138595326D01*
X249239892Y-138589900D01*
X249108108Y-138589900D01*
X248980814Y-138624008D01*
X248980813Y-138624008D01*
X248980811Y-138624009D01*
X248980810Y-138624009D01*
X248865883Y-138690363D01*
X248839197Y-138696837D01*
X248813534Y-138706600D01*
X248805732Y-138704955D01*
X248797983Y-138706836D01*
X248772035Y-138697855D01*
X248745166Y-138692193D01*
X248739490Y-138686590D01*
X248731956Y-138683983D01*
X248714982Y-138662399D01*
X248695440Y-138643110D01*
X248692568Y-138633898D01*
X248688765Y-138629062D01*
X248682891Y-138610123D01*
X248680500Y-138599466D01*
X248680500Y-138595326D01*
X248665966Y-138522260D01*
X248661767Y-138515976D01*
X248657543Y-138497147D01*
X248659143Y-138472524D01*
X248656504Y-138447992D01*
X248661940Y-138429474D01*
X248662074Y-138427424D01*
X248662852Y-138426370D01*
X248663977Y-138422539D01*
X248665962Y-138417745D01*
X248665966Y-138417740D01*
X248680500Y-138344674D01*
X248680500Y-138195326D01*
X248680500Y-138195323D01*
X248680499Y-138195321D01*
X248665968Y-138122267D01*
X248665966Y-138122264D01*
X248665966Y-138122260D01*
X248665963Y-138122256D01*
X248663977Y-138117461D01*
X248655245Y-138056747D01*
X248658186Y-138029382D01*
X248665966Y-138017740D01*
X248680500Y-137944674D01*
X248680500Y-137821804D01*
X248681210Y-137815200D01*
X248692140Y-137788809D01*
X248700185Y-137761414D01*
X248705643Y-137756209D01*
X248707947Y-137750648D01*
X248720929Y-137741634D01*
X248742498Y-137721067D01*
X248760871Y-137710460D01*
X248816820Y-137654511D01*
X249020460Y-137450871D01*
X249032257Y-137430438D01*
X249060021Y-137382349D01*
X249080500Y-137305922D01*
X249080499Y-135844499D01*
X249100184Y-135777461D01*
X249152987Y-135731706D01*
X249204499Y-135720500D01*
X250665920Y-135720500D01*
X250665922Y-135720500D01*
X250742349Y-135700021D01*
X250768002Y-135685210D01*
X250835899Y-135668738D01*
X250891997Y-135685209D01*
X250917651Y-135700021D01*
X250994078Y-135720500D01*
X251073202Y-135720500D01*
X253205586Y-135720500D01*
X253272625Y-135740185D01*
X253318380Y-135792989D01*
X253325361Y-135812406D01*
X253333608Y-135843187D01*
X253333609Y-135843188D01*
X253351687Y-135874500D01*
X253399500Y-135957314D01*
X253492686Y-136050500D01*
X253606814Y-136116392D01*
X253734108Y-136150500D01*
X253734110Y-136150500D01*
X253865890Y-136150500D01*
X253865892Y-136150500D01*
X253993186Y-136116392D01*
X254107314Y-136050500D01*
X254200500Y-135957314D01*
X254266392Y-135843186D01*
X254300500Y-135715892D01*
X254300500Y-135584108D01*
X254271691Y-135476590D01*
X254273354Y-135406744D01*
X254312516Y-135348881D01*
X254376745Y-135321377D01*
X254391466Y-135320500D01*
X254504676Y-135320500D01*
X254504677Y-135320499D01*
X254529504Y-135315561D01*
X254577732Y-135305968D01*
X254577733Y-135305967D01*
X254577740Y-135305966D01*
X254577745Y-135305962D01*
X254582539Y-135303977D01*
X254613053Y-135300694D01*
X254643264Y-135295246D01*
X254649322Y-135296792D01*
G37*
%TD.AperFunction*%
%TA.AperFunction,Conductor*%
G36*
X244146186Y-139260898D02*
G01*
X244202119Y-139302770D01*
X244226536Y-139368234D01*
X244211684Y-139436507D01*
X244211514Y-139436817D01*
X244170989Y-139510531D01*
X244170989Y-139510532D01*
X244130775Y-139667152D01*
X244130775Y-139828860D01*
X244131753Y-139836604D01*
X244129045Y-139836945D01*
X244127089Y-139893712D01*
X244087311Y-139951153D01*
X244084881Y-139953067D01*
X244081859Y-139955385D01*
X244081848Y-139955395D01*
X243827437Y-140209807D01*
X243827432Y-140209813D01*
X243821515Y-140217524D01*
X243765084Y-140258723D01*
X243704414Y-140262332D01*
X243704182Y-140264175D01*
X243696438Y-140263197D01*
X243534730Y-140263197D01*
X243378111Y-140303410D01*
X243304395Y-140343936D01*
X243236165Y-140358982D01*
X243170631Y-140334751D01*
X243128601Y-140278937D01*
X243123418Y-140209260D01*
X243156726Y-140147844D01*
X244015173Y-139289397D01*
X244076494Y-139255914D01*
X244146186Y-139260898D01*
G37*
%TD.AperFunction*%
%TA.AperFunction,Conductor*%
G36*
X258942437Y-134450185D02*
G01*
X258988192Y-134502989D01*
X258998136Y-134572147D01*
X258994474Y-134589095D01*
X258985495Y-134620000D01*
X259666000Y-134620000D01*
X259733039Y-134639685D01*
X259778794Y-134692489D01*
X259790000Y-134744000D01*
X259790000Y-134996000D01*
X259770315Y-135063039D01*
X259717511Y-135108794D01*
X259666000Y-135120000D01*
X258973687Y-135120000D01*
X258944552Y-135141744D01*
X258901386Y-135149500D01*
X258294831Y-135149500D01*
X258227792Y-135129815D01*
X258182037Y-135077011D01*
X258172093Y-135007853D01*
X258201118Y-134944297D01*
X258207150Y-134937819D01*
X258678150Y-134466819D01*
X258705077Y-134452115D01*
X258730896Y-134435523D01*
X258737096Y-134434631D01*
X258739473Y-134433334D01*
X258765831Y-134430500D01*
X258875398Y-134430500D01*
X258942437Y-134450185D01*
G37*
%TD.AperFunction*%
%TA.AperFunction,Conductor*%
G36*
X257793039Y-132639685D02*
G01*
X257838794Y-132692489D01*
X257850000Y-132744000D01*
X257850000Y-132996000D01*
X257830315Y-133063039D01*
X257777511Y-133108794D01*
X257726000Y-133120000D01*
X257071210Y-133120000D01*
X257072854Y-133140910D01*
X257117968Y-133296195D01*
X257200278Y-133435374D01*
X257200285Y-133435383D01*
X257291510Y-133526608D01*
X257324995Y-133587931D01*
X257326768Y-133630473D01*
X257319500Y-133685682D01*
X257319500Y-133685684D01*
X257319500Y-134134316D01*
X257320423Y-134141329D01*
X257322645Y-134158209D01*
X257311877Y-134227244D01*
X257265495Y-134279498D01*
X257198225Y-134298381D01*
X257131426Y-134277898D01*
X257111562Y-134261607D01*
X257103204Y-134253160D01*
X257060601Y-134189399D01*
X257000134Y-134148997D01*
X256991309Y-134140078D01*
X256980440Y-134119922D01*
X256968174Y-134105244D01*
X256968079Y-134105298D01*
X256967791Y-134104786D01*
X256965756Y-134102351D01*
X256964097Y-134098350D01*
X256963921Y-134097905D01*
X256872564Y-133977434D01*
X256752095Y-133886078D01*
X256611443Y-133830612D01*
X256523054Y-133819999D01*
X256336946Y-133819999D01*
X256248555Y-133830613D01*
X256133290Y-133876067D01*
X256063703Y-133882348D01*
X256001768Y-133850011D01*
X255967147Y-133789322D01*
X255970833Y-133719549D01*
X256000118Y-133673033D01*
X257016834Y-132656317D01*
X257078155Y-132622834D01*
X257104513Y-132620000D01*
X257726000Y-132620000D01*
X257793039Y-132639685D01*
G37*
%TD.AperFunction*%
%TA.AperFunction,Conductor*%
G36*
X258723243Y-124830440D02*
G01*
X258746854Y-124832314D01*
X258756316Y-124839512D01*
X258767782Y-124842658D01*
X258771489Y-124845040D01*
X258787501Y-124855739D01*
X258855357Y-124869236D01*
X258872112Y-124878001D01*
X258890591Y-124882021D01*
X258915627Y-124900763D01*
X258917265Y-124901620D01*
X258918845Y-124903172D01*
X258969395Y-124953722D01*
X259503967Y-125488295D01*
X259537452Y-125549618D01*
X259532468Y-125619310D01*
X259503968Y-125663657D01*
X259447126Y-125720499D01*
X259503968Y-125777341D01*
X259508306Y-125785287D01*
X259515553Y-125790712D01*
X259524787Y-125815471D01*
X259537452Y-125838665D01*
X259536806Y-125847693D01*
X259539970Y-125856176D01*
X259534353Y-125881996D01*
X259532468Y-125908356D01*
X259526649Y-125917410D01*
X259525118Y-125924449D01*
X259503967Y-125952704D01*
X259343843Y-126112827D01*
X259282520Y-126146311D01*
X259280353Y-126146762D01*
X259212503Y-126160258D01*
X259212497Y-126160260D01*
X259125506Y-126218387D01*
X259067378Y-126305382D01*
X259067376Y-126305386D01*
X259052118Y-126382094D01*
X259052118Y-126445999D01*
X259032433Y-126513038D01*
X258979629Y-126558793D01*
X258953338Y-126567407D01*
X258940857Y-126569999D01*
X258864218Y-126570000D01*
X258787501Y-126585259D01*
X258751454Y-126609344D01*
X258727838Y-126614250D01*
X258716083Y-126613298D01*
X258704830Y-126616822D01*
X258681899Y-126610530D01*
X258658196Y-126608612D01*
X258648820Y-126601455D01*
X258637450Y-126598336D01*
X258633729Y-126595945D01*
X258617735Y-126585258D01*
X258541021Y-126569999D01*
X258478925Y-126569999D01*
X258411886Y-126550314D01*
X258366131Y-126497510D01*
X258356187Y-126428352D01*
X258385212Y-126364796D01*
X258391244Y-126358317D01*
X258439063Y-126310498D01*
X258419173Y-126290608D01*
X258692618Y-126290608D01*
X258692618Y-126330390D01*
X258707842Y-126367144D01*
X258735973Y-126395275D01*
X258772727Y-126410499D01*
X258812509Y-126410499D01*
X258849263Y-126395275D01*
X258877394Y-126367144D01*
X258892618Y-126330390D01*
X258892618Y-126290608D01*
X258877394Y-126253854D01*
X258849263Y-126225723D01*
X258812509Y-126210499D01*
X258772727Y-126210499D01*
X258735973Y-126225723D01*
X258707842Y-126253854D01*
X258692618Y-126290608D01*
X258419173Y-126290608D01*
X258202618Y-126074053D01*
X257966172Y-126310499D01*
X258013991Y-126358318D01*
X258047476Y-126419641D01*
X258042492Y-126489333D01*
X258000620Y-126545266D01*
X257951725Y-126567366D01*
X257939148Y-126569999D01*
X257864218Y-126570000D01*
X257787501Y-126585259D01*
X257751541Y-126609286D01*
X257728033Y-126614209D01*
X257716179Y-126613268D01*
X257704830Y-126616822D01*
X257681991Y-126610556D01*
X257658383Y-126608683D01*
X257648918Y-126601482D01*
X257637450Y-126598336D01*
X257633729Y-126595945D01*
X257617735Y-126585258D01*
X257549877Y-126571760D01*
X257487967Y-126539374D01*
X257486389Y-126537824D01*
X257239173Y-126290608D01*
X257512618Y-126290608D01*
X257512618Y-126330390D01*
X257527842Y-126367144D01*
X257555973Y-126395275D01*
X257592727Y-126410499D01*
X257632509Y-126410499D01*
X257669263Y-126395275D01*
X257697394Y-126367144D01*
X257712618Y-126330390D01*
X257712618Y-126290608D01*
X257697394Y-126253854D01*
X257669263Y-126225723D01*
X257632509Y-126210499D01*
X257592727Y-126210499D01*
X257555973Y-126225723D01*
X257527842Y-126253854D01*
X257512618Y-126290608D01*
X257239173Y-126290608D01*
X256956244Y-126007679D01*
X256922759Y-125946356D01*
X256927743Y-125876664D01*
X256969615Y-125820731D01*
X257035079Y-125796314D01*
X257043922Y-125795998D01*
X257116018Y-125795998D01*
X257192735Y-125780739D01*
X257254197Y-125739671D01*
X257320869Y-125718794D01*
X257388250Y-125737277D01*
X257410766Y-125755093D01*
X257612618Y-125956945D01*
X257849064Y-125720499D01*
X258556172Y-125720499D01*
X258792618Y-125956945D01*
X259029064Y-125720499D01*
X258792618Y-125484053D01*
X258556172Y-125720499D01*
X257849064Y-125720499D01*
X257612618Y-125484053D01*
X257564798Y-125531873D01*
X257503474Y-125565357D01*
X257433783Y-125560373D01*
X257377849Y-125518501D01*
X257355750Y-125469606D01*
X257353117Y-125457034D01*
X257353117Y-125382099D01*
X257337858Y-125305382D01*
X257313829Y-125269421D01*
X257308907Y-125245913D01*
X257309847Y-125234060D01*
X257306294Y-125222713D01*
X257312559Y-125199871D01*
X257314433Y-125176262D01*
X257321632Y-125166799D01*
X257324778Y-125155332D01*
X257327135Y-125151663D01*
X257337858Y-125135616D01*
X257342832Y-125110608D01*
X257512618Y-125110608D01*
X257512618Y-125150390D01*
X257527842Y-125187144D01*
X257555973Y-125215275D01*
X257592727Y-125230499D01*
X257632509Y-125230499D01*
X257669263Y-125215275D01*
X257697394Y-125187144D01*
X257712618Y-125150390D01*
X257712618Y-125110608D01*
X257697394Y-125073854D01*
X257669263Y-125045723D01*
X257632509Y-125030499D01*
X257592727Y-125030499D01*
X257555973Y-125045723D01*
X257527842Y-125073854D01*
X257512618Y-125110608D01*
X257342832Y-125110608D01*
X257351355Y-125067758D01*
X257383739Y-125005851D01*
X257385292Y-125004270D01*
X257435842Y-124953721D01*
X257486390Y-124903172D01*
X257497449Y-124896344D01*
X257503414Y-124888953D01*
X257522640Y-124880794D01*
X257534985Y-124873174D01*
X257542309Y-124870741D01*
X257617735Y-124855739D01*
X257647645Y-124835753D01*
X257663531Y-124830477D01*
X257682390Y-124829815D01*
X257700401Y-124824175D01*
X257716586Y-124828614D01*
X257733357Y-124828026D01*
X257749580Y-124837665D01*
X257767782Y-124842658D01*
X257771489Y-124845040D01*
X257772176Y-124845499D01*
X257787501Y-124855739D01*
X257787505Y-124855740D01*
X257825859Y-124863369D01*
X257864217Y-124870999D01*
X257926310Y-124870998D01*
X257993348Y-124890682D01*
X258039104Y-124943485D01*
X258049048Y-125012643D01*
X258020024Y-125076199D01*
X258013992Y-125082679D01*
X257966172Y-125130499D01*
X258202618Y-125366945D01*
X258439064Y-125130499D01*
X258419173Y-125110608D01*
X258692618Y-125110608D01*
X258692618Y-125150390D01*
X258707842Y-125187144D01*
X258735973Y-125215275D01*
X258772727Y-125230499D01*
X258812509Y-125230499D01*
X258849263Y-125215275D01*
X258877394Y-125187144D01*
X258892618Y-125150390D01*
X258892618Y-125110608D01*
X258877394Y-125073854D01*
X258849263Y-125045723D01*
X258812509Y-125030499D01*
X258772727Y-125030499D01*
X258735973Y-125045723D01*
X258707842Y-125073854D01*
X258692618Y-125110608D01*
X258419173Y-125110608D01*
X258391244Y-125082679D01*
X258357759Y-125021356D01*
X258362743Y-124951664D01*
X258404615Y-124895731D01*
X258453510Y-124873631D01*
X258466081Y-124870998D01*
X258541018Y-124870998D01*
X258617735Y-124855739D01*
X258653696Y-124831710D01*
X258677203Y-124826788D01*
X258689054Y-124827728D01*
X258700401Y-124824175D01*
X258723243Y-124830440D01*
G37*
%TD.AperFunction*%
%TA.AperFunction,Conductor*%
G36*
X257075044Y-123845097D02*
G01*
X257118235Y-123900017D01*
X257127118Y-123946105D01*
X257127118Y-124107167D01*
X257107433Y-124174206D01*
X257090799Y-124194848D01*
X256810398Y-124475248D01*
X256749075Y-124508733D01*
X256679383Y-124503749D01*
X256623450Y-124461877D01*
X256599033Y-124396413D01*
X256603641Y-124352972D01*
X256604504Y-124350000D01*
X256050000Y-124350000D01*
X256050000Y-124878789D01*
X256087292Y-124913264D01*
X256101796Y-124937513D01*
X256118920Y-124959980D01*
X256120569Y-124968899D01*
X256123157Y-124973226D01*
X256126721Y-124994401D01*
X256127118Y-124999357D01*
X256127119Y-125058899D01*
X256135125Y-125099154D01*
X256135703Y-125106348D01*
X256129985Y-125133770D01*
X256127489Y-125161667D01*
X256122952Y-125167506D01*
X256121443Y-125174747D01*
X256101809Y-125194723D01*
X256084626Y-125216843D01*
X256074102Y-125223651D01*
X256063040Y-125230037D01*
X256063035Y-125230041D01*
X255773681Y-125519396D01*
X255712358Y-125552881D01*
X255642666Y-125547897D01*
X255586733Y-125506025D01*
X255562316Y-125440561D01*
X255562000Y-125431715D01*
X255562000Y-124694006D01*
X255561999Y-124694002D01*
X255560733Y-124689278D01*
X255554225Y-124664986D01*
X255550000Y-124632894D01*
X255550000Y-124224000D01*
X255569685Y-124156961D01*
X255622489Y-124111206D01*
X255674000Y-124100000D01*
X255800000Y-124100000D01*
X255800000Y-123974000D01*
X255819685Y-123906961D01*
X255872489Y-123861206D01*
X255924000Y-123850000D01*
X256445197Y-123850000D01*
X256498850Y-123864376D01*
X256499304Y-123863281D01*
X256506807Y-123866388D01*
X256506814Y-123866392D01*
X256634108Y-123900500D01*
X256634110Y-123900500D01*
X256765890Y-123900500D01*
X256765892Y-123900500D01*
X256893186Y-123866392D01*
X256898575Y-123863281D01*
X256904003Y-123860146D01*
X256941117Y-123838718D01*
X257009016Y-123822245D01*
X257075044Y-123845097D01*
G37*
%TD.AperFunction*%
%TA.AperFunction,Conductor*%
G36*
X251242206Y-121740683D02*
G01*
X251262848Y-121757317D01*
X251295290Y-121789759D01*
X251328775Y-121851082D01*
X251323791Y-121920774D01*
X251281919Y-121976707D01*
X251267346Y-121986102D01*
X251165208Y-122042252D01*
X251165208Y-122042253D01*
X251652296Y-122529341D01*
X251685781Y-122590664D01*
X251680797Y-122660356D01*
X251652296Y-122704703D01*
X251474105Y-122882894D01*
X251466159Y-122887232D01*
X251460734Y-122894480D01*
X251435974Y-122903714D01*
X251412782Y-122916379D01*
X251403752Y-122915733D01*
X251395270Y-122918897D01*
X251369449Y-122913280D01*
X251343090Y-122911395D01*
X251334036Y-122905576D01*
X251326997Y-122904045D01*
X251298743Y-122882894D01*
X251172248Y-122756399D01*
X251140155Y-122700814D01*
X251121974Y-122632962D01*
X251121970Y-122632955D01*
X251082417Y-122564446D01*
X251082411Y-122564438D01*
X250562820Y-122044847D01*
X250548116Y-122017919D01*
X250531524Y-121992101D01*
X250530632Y-121985900D01*
X250529335Y-121983524D01*
X250526501Y-121957166D01*
X250526501Y-121844998D01*
X250546186Y-121777959D01*
X250598990Y-121732204D01*
X250650497Y-121720998D01*
X251175167Y-121720998D01*
X251242206Y-121740683D01*
G37*
%TD.AperFunction*%
%TA.AperFunction,Conductor*%
G36*
X257956658Y-122471184D02*
G01*
X258002413Y-122523988D01*
X258013619Y-122575499D01*
X258013619Y-122637000D01*
X257993934Y-122704039D01*
X257941130Y-122749794D01*
X257889619Y-122761000D01*
X257637619Y-122761000D01*
X257628933Y-122758449D01*
X257619972Y-122759738D01*
X257595931Y-122748759D01*
X257570580Y-122741315D01*
X257564652Y-122734474D01*
X257556416Y-122730713D01*
X257542126Y-122708478D01*
X257524825Y-122688511D01*
X257522537Y-122677996D01*
X257518642Y-122671935D01*
X257513619Y-122637000D01*
X257513619Y-122575499D01*
X257533304Y-122508460D01*
X257586108Y-122462705D01*
X257637619Y-122451499D01*
X257889619Y-122451499D01*
X257956658Y-122471184D01*
G37*
%TD.AperFunction*%
%TA.AperFunction,Conductor*%
G36*
X253068136Y-119481842D02*
G01*
X253071192Y-119484795D01*
X253431559Y-119845162D01*
X253465044Y-119906485D01*
X253460060Y-119976177D01*
X253431559Y-120020524D01*
X253127077Y-120325005D01*
X253065754Y-120358490D01*
X252996062Y-120353506D01*
X252940234Y-120311775D01*
X252934845Y-120304597D01*
X252372001Y-120304597D01*
X252372001Y-120824529D01*
X252410095Y-120859744D01*
X252445961Y-120919705D01*
X252443715Y-120989539D01*
X252413603Y-121038479D01*
X252066526Y-121385556D01*
X252066505Y-121385577D01*
X252065489Y-121386594D01*
X252009540Y-121442543D01*
X252005501Y-121449538D01*
X251995259Y-121460277D01*
X251977313Y-121470634D01*
X251962312Y-121484929D01*
X251947662Y-121487747D01*
X251934745Y-121495203D01*
X251914050Y-121494214D01*
X251893701Y-121498129D01*
X251879853Y-121492579D01*
X251864955Y-121491868D01*
X251848078Y-121479846D01*
X251828845Y-121472139D01*
X251817848Y-121462375D01*
X251763271Y-121407798D01*
X251729786Y-121346475D01*
X251734770Y-121276783D01*
X251752584Y-121244620D01*
X251754848Y-121241669D01*
X251811522Y-121104844D01*
X251811523Y-121104839D01*
X251822628Y-121020499D01*
X251037502Y-121020499D01*
X251028816Y-121017948D01*
X251019855Y-121019237D01*
X250995814Y-121008258D01*
X250970463Y-121000814D01*
X250964535Y-120993973D01*
X250956299Y-120990212D01*
X250942009Y-120967977D01*
X250924708Y-120948010D01*
X250922420Y-120937495D01*
X250918525Y-120931434D01*
X250913502Y-120896499D01*
X250913502Y-120894499D01*
X250933187Y-120827460D01*
X250985991Y-120781705D01*
X251037502Y-120770499D01*
X251872001Y-120770499D01*
X251872001Y-120178597D01*
X251891686Y-120111558D01*
X251944490Y-120065803D01*
X251996001Y-120054597D01*
X252122001Y-120054597D01*
X252122001Y-119928597D01*
X252141686Y-119861558D01*
X252194490Y-119815803D01*
X252246001Y-119804597D01*
X252934845Y-119804597D01*
X252894405Y-119665402D01*
X252876779Y-119635597D01*
X252859596Y-119567873D01*
X252881756Y-119501611D01*
X252936222Y-119457847D01*
X253005702Y-119450478D01*
X253068136Y-119481842D01*
G37*
%TD.AperFunction*%
%TA.AperFunction,Conductor*%
G36*
X253134669Y-114440174D02*
G01*
X253166386Y-114441301D01*
X253169217Y-114443265D01*
X253172650Y-114443573D01*
X253197712Y-114463041D01*
X253223787Y-114481137D01*
X253226164Y-114485143D01*
X253227828Y-114486435D01*
X253235539Y-114500260D01*
X253235915Y-114500044D01*
X253239978Y-114507080D01*
X253239979Y-114507084D01*
X253245050Y-114515866D01*
X253245051Y-114515870D01*
X253245052Y-114515870D01*
X253279540Y-114575606D01*
X253887394Y-115183460D01*
X253955917Y-115223022D01*
X254032343Y-115243500D01*
X254070500Y-115243500D01*
X254137539Y-115263185D01*
X254183294Y-115315989D01*
X254194500Y-115367500D01*
X254194500Y-115631451D01*
X254174815Y-115698490D01*
X254153833Y-115716671D01*
X254155981Y-115718819D01*
X253714177Y-116160623D01*
X254088111Y-116534557D01*
X254133393Y-116545943D01*
X254181185Y-116596911D01*
X254194500Y-116652810D01*
X254194500Y-117920167D01*
X254186840Y-117946252D01*
X254182630Y-117973108D01*
X254176323Y-117982069D01*
X254174815Y-117987206D01*
X254163173Y-118002555D01*
X254160761Y-118005267D01*
X254089489Y-118076540D01*
X254033540Y-118132489D01*
X254007381Y-118177795D01*
X253998983Y-118187243D01*
X253997196Y-118188359D01*
X253993992Y-118192535D01*
X253946041Y-118240486D01*
X253946035Y-118240494D01*
X253906482Y-118309003D01*
X253906479Y-118309008D01*
X253885999Y-118385439D01*
X253884939Y-118393496D01*
X253882994Y-118393239D01*
X253866315Y-118450044D01*
X253849681Y-118470686D01*
X253845789Y-118474577D01*
X253801354Y-118575212D01*
X253798500Y-118599811D01*
X253798500Y-119000176D01*
X253798501Y-119000185D01*
X253801354Y-119024786D01*
X253801355Y-119024790D01*
X253802419Y-119027199D01*
X253802797Y-119030090D01*
X253803803Y-119033786D01*
X253803299Y-119033923D01*
X253811489Y-119096477D01*
X253781665Y-119159662D01*
X253722415Y-119196691D01*
X253652551Y-119195810D01*
X253601303Y-119164964D01*
X253397443Y-118961104D01*
X253363958Y-118899781D01*
X253361124Y-118873423D01*
X253361124Y-118521063D01*
X253361124Y-118521062D01*
X253340645Y-118444635D01*
X253332301Y-118430183D01*
X253301088Y-118376119D01*
X253301082Y-118376111D01*
X252106818Y-117181847D01*
X252092114Y-117154919D01*
X252075522Y-117129101D01*
X252074630Y-117122900D01*
X252073333Y-117120524D01*
X252070499Y-117094166D01*
X252070499Y-116912169D01*
X252962631Y-116912169D01*
X253089647Y-116981997D01*
X253089655Y-116982000D01*
X253245044Y-117021897D01*
X253245050Y-117021898D01*
X253405484Y-117021898D01*
X253405491Y-117021897D01*
X253560879Y-116982000D01*
X253560885Y-116981998D01*
X253701477Y-116904707D01*
X253701484Y-116904702D01*
X253728269Y-116881823D01*
X253360623Y-116514177D01*
X252962631Y-116912169D01*
X252070499Y-116912169D01*
X252070499Y-115905960D01*
X252090184Y-115838921D01*
X252142988Y-115793166D01*
X252212146Y-115783222D01*
X252275702Y-115812247D01*
X252282180Y-115818279D01*
X252394579Y-115930678D01*
X252394583Y-115930681D01*
X252394587Y-115930685D01*
X252433682Y-115960684D01*
X252433684Y-115960684D01*
X252433686Y-115960686D01*
X252441738Y-115965104D01*
X252491046Y-116014607D01*
X252505762Y-116082909D01*
X252502201Y-116104654D01*
X252499350Y-116115757D01*
X252499350Y-116276203D01*
X252539249Y-116431598D01*
X252609078Y-116558615D01*
X253758616Y-115409078D01*
X253631598Y-115339249D01*
X253476203Y-115299350D01*
X253315757Y-115299350D01*
X253304654Y-115302201D01*
X253234825Y-115299806D01*
X253177376Y-115260038D01*
X253165104Y-115241738D01*
X253160686Y-115233686D01*
X253160684Y-115233684D01*
X253160684Y-115233682D01*
X253130685Y-115194587D01*
X253130681Y-115194583D01*
X253130678Y-115194579D01*
X252976195Y-115040096D01*
X252942710Y-114978773D01*
X252939876Y-114952415D01*
X252939876Y-114899815D01*
X252939876Y-114899814D01*
X252919397Y-114823387D01*
X252903078Y-114795121D01*
X252879840Y-114754871D01*
X252879834Y-114754863D01*
X252806819Y-114681848D01*
X252792115Y-114654920D01*
X252775523Y-114629102D01*
X252774631Y-114622901D01*
X252773334Y-114620525D01*
X252770500Y-114594167D01*
X252770500Y-114567498D01*
X252790185Y-114500459D01*
X252842989Y-114454704D01*
X252894496Y-114443498D01*
X253072132Y-114443498D01*
X253103061Y-114437346D01*
X253134669Y-114440174D01*
G37*
%TD.AperFunction*%
%TA.AperFunction,Conductor*%
G36*
X249600000Y-108238649D02*
G01*
X249600000Y-108673000D01*
X248900000Y-108673000D01*
X248900000Y-108821495D01*
X248938427Y-109014681D01*
X248938430Y-109014693D01*
X249013807Y-109196671D01*
X249013814Y-109196684D01*
X249123248Y-109360462D01*
X249123251Y-109360466D01*
X249262533Y-109499748D01*
X249262537Y-109499751D01*
X249426315Y-109609185D01*
X249426328Y-109609192D01*
X249608308Y-109684569D01*
X249650000Y-109692862D01*
X249650000Y-108889988D01*
X249659940Y-108907205D01*
X249715795Y-108963060D01*
X249784204Y-109002556D01*
X249860504Y-109023000D01*
X249939496Y-109023000D01*
X250015796Y-109002556D01*
X250084205Y-108963060D01*
X250140060Y-108907205D01*
X250150000Y-108889988D01*
X250150000Y-109692862D01*
X250191690Y-109684569D01*
X250191692Y-109684569D01*
X250373671Y-109609192D01*
X250373684Y-109609185D01*
X250537462Y-109499751D01*
X250537466Y-109499748D01*
X250676748Y-109360466D01*
X250676751Y-109360462D01*
X250786185Y-109196684D01*
X250786192Y-109196671D01*
X250861569Y-109014693D01*
X250861572Y-109014681D01*
X250899999Y-108821495D01*
X250900000Y-108821492D01*
X250900000Y-108673000D01*
X250200000Y-108673000D01*
X250200000Y-108240490D01*
X258240000Y-108265153D01*
X258240000Y-108673000D01*
X257540000Y-108673000D01*
X257540000Y-108821495D01*
X257578427Y-109014681D01*
X257578430Y-109014693D01*
X257653807Y-109196671D01*
X257653814Y-109196684D01*
X257763248Y-109360462D01*
X257763251Y-109360466D01*
X257902533Y-109499748D01*
X257902537Y-109499751D01*
X258066315Y-109609185D01*
X258066328Y-109609192D01*
X258248308Y-109684569D01*
X258290000Y-109692862D01*
X258290000Y-108889988D01*
X258299940Y-108907205D01*
X258355795Y-108963060D01*
X258424204Y-109002556D01*
X258500504Y-109023000D01*
X258579496Y-109023000D01*
X258655796Y-109002556D01*
X258724205Y-108963060D01*
X258780060Y-108907205D01*
X258790000Y-108889988D01*
X258790000Y-109692862D01*
X258831690Y-109684569D01*
X258831692Y-109684569D01*
X259013671Y-109609192D01*
X259013684Y-109609185D01*
X259177462Y-109499751D01*
X259177466Y-109499748D01*
X259316748Y-109360466D01*
X259316751Y-109360462D01*
X259426185Y-109196684D01*
X259426192Y-109196671D01*
X259501569Y-109014693D01*
X259501572Y-109014681D01*
X259539999Y-108821495D01*
X259540000Y-108821492D01*
X259540000Y-108673000D01*
X258840000Y-108673000D01*
X258840000Y-108266993D01*
X269476140Y-108299620D01*
X269543119Y-108319510D01*
X269588712Y-108372454D01*
X269599760Y-108423858D01*
X269500628Y-159774563D01*
X269496686Y-159787892D01*
X269497554Y-159801761D01*
X269486975Y-159820730D01*
X269480814Y-159841565D01*
X269469594Y-159851897D01*
X269463524Y-159862783D01*
X269435082Y-159883682D01*
X269356848Y-159925500D01*
X269334389Y-159934803D01*
X269189583Y-159978729D01*
X269165742Y-159983471D01*
X269009061Y-159998903D01*
X268996907Y-159999500D01*
X237703093Y-159999500D01*
X237690939Y-159998903D01*
X237534257Y-159983471D01*
X237510416Y-159978729D01*
X237386979Y-159941285D01*
X237328540Y-159902987D01*
X237300084Y-159839175D01*
X237298976Y-159823355D01*
X237287747Y-157884530D01*
X238166701Y-157884530D01*
X238166701Y-158091469D01*
X238207069Y-158294412D01*
X238207071Y-158294420D01*
X238286259Y-158485596D01*
X238401225Y-158657657D01*
X238547543Y-158803975D01*
X238547546Y-158803977D01*
X238719603Y-158918941D01*
X238910781Y-158998130D01*
X239055253Y-159026867D01*
X239113731Y-159038499D01*
X239113735Y-159038500D01*
X239113736Y-159038500D01*
X239320667Y-159038500D01*
X239320668Y-159038499D01*
X239523621Y-158998130D01*
X239714799Y-158918941D01*
X239886856Y-158803977D01*
X240033178Y-158657655D01*
X240148142Y-158485598D01*
X240227331Y-158294420D01*
X240267701Y-158091465D01*
X240267701Y-157884535D01*
X240227331Y-157681580D01*
X240177395Y-157561026D01*
X240169927Y-157491559D01*
X240201202Y-157429080D01*
X240204248Y-157425922D01*
X243378621Y-154251550D01*
X243439942Y-154218067D01*
X243509634Y-154223051D01*
X243565567Y-154264923D01*
X243589984Y-154330387D01*
X243590300Y-154339233D01*
X243590300Y-155678566D01*
X243570615Y-155745605D01*
X243553981Y-155766247D01*
X242319304Y-157000923D01*
X242257981Y-157034408D01*
X242188289Y-157029424D01*
X242184171Y-157027803D01*
X242063624Y-156977871D01*
X242063612Y-156977868D01*
X241860669Y-156937500D01*
X241860665Y-156937500D01*
X241653735Y-156937500D01*
X241653730Y-156937500D01*
X241450787Y-156977868D01*
X241450779Y-156977870D01*
X241259603Y-157057058D01*
X241087542Y-157172024D01*
X240941224Y-157318342D01*
X240826258Y-157490403D01*
X240747070Y-157681579D01*
X240747068Y-157681587D01*
X240706700Y-157884530D01*
X240706700Y-158091469D01*
X240747068Y-158294412D01*
X240747070Y-158294420D01*
X240826258Y-158485596D01*
X240941224Y-158657657D01*
X241087542Y-158803975D01*
X241087545Y-158803977D01*
X241259602Y-158918941D01*
X241450780Y-158998130D01*
X241595252Y-159026867D01*
X241653730Y-159038499D01*
X241653734Y-159038500D01*
X241653735Y-159038500D01*
X241860666Y-159038500D01*
X241860667Y-159038499D01*
X242063620Y-158998130D01*
X242254798Y-158918941D01*
X242426855Y-158803977D01*
X242573177Y-158657655D01*
X242688141Y-158485598D01*
X242767330Y-158294420D01*
X242807700Y-158091465D01*
X242807700Y-157884535D01*
X242767330Y-157681580D01*
X242717394Y-157561026D01*
X242709926Y-157491559D01*
X242741201Y-157429080D01*
X242744246Y-157425923D01*
X243785020Y-156385149D01*
X243846342Y-156351666D01*
X243916034Y-156356650D01*
X243971967Y-156398522D01*
X243996384Y-156463986D01*
X243996700Y-156472832D01*
X243996700Y-156892563D01*
X243977015Y-156959602D01*
X243924211Y-157005357D01*
X243920153Y-157007124D01*
X243799604Y-157057057D01*
X243627542Y-157172024D01*
X243481224Y-157318342D01*
X243366258Y-157490403D01*
X243287070Y-157681579D01*
X243287068Y-157681587D01*
X243246700Y-157884530D01*
X243246700Y-158091469D01*
X243287068Y-158294412D01*
X243287070Y-158294420D01*
X243366258Y-158485596D01*
X243481224Y-158657657D01*
X243627542Y-158803975D01*
X243627545Y-158803977D01*
X243799602Y-158918941D01*
X243990780Y-158998130D01*
X244135252Y-159026867D01*
X244193730Y-159038499D01*
X244193734Y-159038500D01*
X244193735Y-159038500D01*
X244400666Y-159038500D01*
X244400667Y-159038499D01*
X244603620Y-158998130D01*
X244794798Y-158918941D01*
X244966855Y-158803977D01*
X245113177Y-158657655D01*
X245228141Y-158485598D01*
X245307330Y-158294420D01*
X245347700Y-158091465D01*
X245347700Y-157884535D01*
X245307330Y-157681580D01*
X245228141Y-157490402D01*
X245113177Y-157318345D01*
X245113175Y-157318342D01*
X244966857Y-157172024D01*
X244794795Y-157057057D01*
X244674247Y-157007124D01*
X244619843Y-156963282D01*
X244597779Y-156896988D01*
X244597700Y-156892563D01*
X244597700Y-153649518D01*
X244617385Y-153582479D01*
X244634014Y-153561842D01*
X246325019Y-151870836D01*
X246386342Y-151837352D01*
X246456034Y-151842336D01*
X246511967Y-151884208D01*
X246536384Y-151949672D01*
X246536700Y-151958518D01*
X246536700Y-156892563D01*
X246517015Y-156959602D01*
X246464211Y-157005357D01*
X246460153Y-157007124D01*
X246339604Y-157057057D01*
X246167542Y-157172024D01*
X246021224Y-157318342D01*
X245906258Y-157490403D01*
X245827070Y-157681579D01*
X245827068Y-157681587D01*
X245786700Y-157884530D01*
X245786700Y-158091469D01*
X245827068Y-158294412D01*
X245827070Y-158294420D01*
X245906258Y-158485596D01*
X246021224Y-158657657D01*
X246167542Y-158803975D01*
X246167545Y-158803977D01*
X246339602Y-158918941D01*
X246530780Y-158998130D01*
X246675252Y-159026867D01*
X246733730Y-159038499D01*
X246733734Y-159038500D01*
X246733735Y-159038500D01*
X246940666Y-159038500D01*
X246940667Y-159038499D01*
X247143620Y-158998130D01*
X247334798Y-158918941D01*
X247506855Y-158803977D01*
X247653177Y-158657655D01*
X247768141Y-158485598D01*
X247847330Y-158294420D01*
X247887700Y-158091465D01*
X247887700Y-157884535D01*
X247847330Y-157681580D01*
X247768141Y-157490402D01*
X247653177Y-157318345D01*
X247653175Y-157318342D01*
X247506857Y-157172024D01*
X247334795Y-157057057D01*
X247214247Y-157007124D01*
X247159843Y-156963282D01*
X247137779Y-156896988D01*
X247137700Y-156892563D01*
X247137700Y-151908547D01*
X247157385Y-151841508D01*
X247174019Y-151820866D01*
X248865018Y-150129867D01*
X248926341Y-150096382D01*
X248996033Y-150101366D01*
X249051966Y-150143238D01*
X249076383Y-150208702D01*
X249076699Y-150217548D01*
X249076699Y-156892563D01*
X249057014Y-156959602D01*
X249004210Y-157005357D01*
X249000152Y-157007124D01*
X248879603Y-157057057D01*
X248707541Y-157172024D01*
X248561223Y-157318342D01*
X248446257Y-157490403D01*
X248367069Y-157681579D01*
X248367067Y-157681587D01*
X248326699Y-157884530D01*
X248326699Y-158091469D01*
X248367067Y-158294412D01*
X248367069Y-158294420D01*
X248446257Y-158485596D01*
X248561223Y-158657657D01*
X248707541Y-158803975D01*
X248707544Y-158803977D01*
X248879601Y-158918941D01*
X249070779Y-158998130D01*
X249215251Y-159026867D01*
X249273729Y-159038499D01*
X249273733Y-159038500D01*
X249273734Y-159038500D01*
X249480665Y-159038500D01*
X249480666Y-159038499D01*
X249683619Y-158998130D01*
X249874797Y-158918941D01*
X250046854Y-158803977D01*
X250193176Y-158657655D01*
X250308140Y-158485598D01*
X250387329Y-158294420D01*
X250427699Y-158091465D01*
X250427699Y-157884535D01*
X250427698Y-157884530D01*
X250866700Y-157884530D01*
X250866700Y-158091469D01*
X250907068Y-158294412D01*
X250907070Y-158294420D01*
X250986258Y-158485596D01*
X251101224Y-158657657D01*
X251247542Y-158803975D01*
X251247545Y-158803977D01*
X251419602Y-158918941D01*
X251610780Y-158998130D01*
X251755252Y-159026867D01*
X251813730Y-159038499D01*
X251813734Y-159038500D01*
X251813735Y-159038500D01*
X252020666Y-159038500D01*
X252020667Y-159038499D01*
X252223620Y-158998130D01*
X252414798Y-158918941D01*
X252586855Y-158803977D01*
X252733177Y-158657655D01*
X252848141Y-158485598D01*
X252927330Y-158294420D01*
X252967700Y-158091465D01*
X252967700Y-157884535D01*
X252967699Y-157884530D01*
X253406700Y-157884530D01*
X253406700Y-158091469D01*
X253447068Y-158294412D01*
X253447070Y-158294420D01*
X253526258Y-158485596D01*
X253641224Y-158657657D01*
X253787542Y-158803975D01*
X253787545Y-158803977D01*
X253959602Y-158918941D01*
X254150780Y-158998130D01*
X254295252Y-159026867D01*
X254353730Y-159038499D01*
X254353734Y-159038500D01*
X254353735Y-159038500D01*
X254560666Y-159038500D01*
X254560667Y-159038499D01*
X254763620Y-158998130D01*
X254954798Y-158918941D01*
X255126855Y-158803977D01*
X255273177Y-158657655D01*
X255388141Y-158485598D01*
X255467330Y-158294420D01*
X255507700Y-158091465D01*
X255507700Y-157884535D01*
X255467330Y-157681580D01*
X255388141Y-157490402D01*
X255273177Y-157318345D01*
X255273175Y-157318342D01*
X255126857Y-157172024D01*
X254958855Y-157059770D01*
X254954798Y-157057059D01*
X254954793Y-157057057D01*
X254763620Y-156977870D01*
X254763612Y-156977868D01*
X254560669Y-156937500D01*
X254560665Y-156937500D01*
X254353735Y-156937500D01*
X254353730Y-156937500D01*
X254150787Y-156977868D01*
X254150779Y-156977870D01*
X253959603Y-157057058D01*
X253787542Y-157172024D01*
X253641224Y-157318342D01*
X253526258Y-157490403D01*
X253447070Y-157681579D01*
X253447068Y-157681587D01*
X253406700Y-157884530D01*
X252967699Y-157884530D01*
X252927330Y-157681580D01*
X252848141Y-157490402D01*
X252733177Y-157318345D01*
X252733175Y-157318342D01*
X252586857Y-157172024D01*
X252418855Y-157059770D01*
X252414798Y-157057059D01*
X252414793Y-157057057D01*
X252223620Y-156977870D01*
X252223612Y-156977868D01*
X252020669Y-156937500D01*
X252020665Y-156937500D01*
X251813735Y-156937500D01*
X251813730Y-156937500D01*
X251610787Y-156977868D01*
X251610779Y-156977870D01*
X251419603Y-157057058D01*
X251247542Y-157172024D01*
X251101224Y-157318342D01*
X250986258Y-157490403D01*
X250907070Y-157681579D01*
X250907068Y-157681587D01*
X250866700Y-157884530D01*
X250427698Y-157884530D01*
X250387329Y-157681580D01*
X250308140Y-157490402D01*
X250193176Y-157318345D01*
X250193174Y-157318342D01*
X250046856Y-157172024D01*
X249874794Y-157057057D01*
X249754246Y-157007124D01*
X249699842Y-156963282D01*
X249677778Y-156896988D01*
X249677699Y-156892563D01*
X249677699Y-150644895D01*
X249697384Y-150577856D01*
X249750188Y-150532101D01*
X249819346Y-150522157D01*
X249882902Y-150551182D01*
X249920676Y-150609960D01*
X249920776Y-150610301D01*
X249935968Y-150662595D01*
X250018278Y-150801774D01*
X250018285Y-150801783D01*
X250132616Y-150916114D01*
X250138785Y-150920899D01*
X250137265Y-150922857D01*
X250176625Y-150964999D01*
X250189139Y-151033739D01*
X250188769Y-151036861D01*
X250187500Y-151046501D01*
X250187500Y-151406294D01*
X250187501Y-151406300D01*
X250194028Y-151455887D01*
X250194029Y-151455889D01*
X250194029Y-151455890D01*
X250237532Y-151549181D01*
X250244776Y-151564716D01*
X250329684Y-151649624D01*
X250438513Y-151700372D01*
X250488099Y-151706900D01*
X250907900Y-151706899D01*
X250957487Y-151700372D01*
X251066316Y-151649624D01*
X251151224Y-151564716D01*
X251157763Y-151550691D01*
X251190992Y-151507644D01*
X251199061Y-151500951D01*
X251206946Y-151496399D01*
X255193497Y-151496399D01*
X255235969Y-151642594D01*
X255318279Y-151781773D01*
X255318286Y-151781782D01*
X255432617Y-151896113D01*
X255432626Y-151896120D01*
X255571805Y-151978430D01*
X255727090Y-152023544D01*
X255748001Y-152025188D01*
X255748001Y-151496399D01*
X255193497Y-151496399D01*
X251206946Y-151496399D01*
X251258111Y-151466860D01*
X251314060Y-151410911D01*
X251888152Y-150836819D01*
X251949475Y-150803334D01*
X251975833Y-150800500D01*
X252804270Y-150800500D01*
X252834699Y-150797646D01*
X252834701Y-150797646D01*
X252901475Y-150774280D01*
X252962882Y-150752793D01*
X253072150Y-150672150D01*
X253133225Y-150589395D01*
X253188870Y-150547147D01*
X253258526Y-150541688D01*
X253320075Y-150574755D01*
X253350699Y-150624026D01*
X253365642Y-150669121D01*
X253365643Y-150669124D01*
X253457684Y-150818345D01*
X253581654Y-150942315D01*
X253730875Y-151034356D01*
X253730880Y-151034358D01*
X253897302Y-151089505D01*
X253897309Y-151089506D01*
X254000019Y-151099999D01*
X254249999Y-151099999D01*
X254250000Y-151099998D01*
X254250000Y-150124000D01*
X254269685Y-150056961D01*
X254322489Y-150011206D01*
X254374000Y-150000000D01*
X254626000Y-150000000D01*
X254693039Y-150019685D01*
X254738794Y-150072489D01*
X254750000Y-150124000D01*
X254750000Y-151099999D01*
X254999973Y-151099999D01*
X254999985Y-151099998D01*
X255058000Y-151094071D01*
X255069456Y-151081384D01*
X255077686Y-151053360D01*
X255130490Y-151007605D01*
X255182001Y-150996399D01*
X255874001Y-150996399D01*
X255941040Y-151016084D01*
X255986795Y-151068888D01*
X255998001Y-151120399D01*
X255998001Y-151246399D01*
X256124001Y-151246399D01*
X256191040Y-151266084D01*
X256236795Y-151318888D01*
X256248001Y-151370399D01*
X256248001Y-152025188D01*
X256268911Y-152023544D01*
X256424196Y-151978430D01*
X256509579Y-151927935D01*
X256577302Y-151910752D01*
X256643565Y-151932912D01*
X256687329Y-151987378D01*
X256696700Y-152034667D01*
X256696700Y-156892563D01*
X256677015Y-156959602D01*
X256624211Y-157005357D01*
X256620153Y-157007124D01*
X256499604Y-157057057D01*
X256327542Y-157172024D01*
X256181224Y-157318342D01*
X256066258Y-157490403D01*
X255987070Y-157681579D01*
X255987068Y-157681587D01*
X255946700Y-157884530D01*
X255946700Y-158091469D01*
X255987068Y-158294412D01*
X255987070Y-158294420D01*
X256066258Y-158485596D01*
X256181224Y-158657657D01*
X256327542Y-158803975D01*
X256327545Y-158803977D01*
X256499602Y-158918941D01*
X256690780Y-158998130D01*
X256835252Y-159026867D01*
X256893730Y-159038499D01*
X256893734Y-159038500D01*
X256893735Y-159038500D01*
X257100666Y-159038500D01*
X257100667Y-159038499D01*
X257303620Y-158998130D01*
X257494798Y-158918941D01*
X257666855Y-158803977D01*
X257813177Y-158657655D01*
X257928141Y-158485598D01*
X258007330Y-158294420D01*
X258047700Y-158091465D01*
X258047700Y-157884535D01*
X258007330Y-157681580D01*
X257928141Y-157490402D01*
X257813177Y-157318345D01*
X257813175Y-157318342D01*
X257666857Y-157172024D01*
X257494795Y-157057057D01*
X257374247Y-157007124D01*
X257319843Y-156963282D01*
X257297779Y-156896988D01*
X257297700Y-156892563D01*
X257297700Y-147952205D01*
X257317385Y-147885166D01*
X257370189Y-147839411D01*
X257439347Y-147829467D01*
X257502903Y-147858492D01*
X257509381Y-147864524D01*
X258350381Y-148705524D01*
X258383866Y-148766847D01*
X258386700Y-148793205D01*
X258386700Y-157177562D01*
X258407179Y-157253989D01*
X258414311Y-157266342D01*
X258446740Y-157322511D01*
X258553945Y-157429716D01*
X258557410Y-157433843D01*
X258569350Y-157461104D01*
X258583609Y-157487218D01*
X258583212Y-157492756D01*
X258585441Y-157497844D01*
X258580747Y-157527228D01*
X258578625Y-157556910D01*
X258577004Y-157561029D01*
X258527070Y-157681579D01*
X258527068Y-157681587D01*
X258486700Y-157884530D01*
X258486700Y-158091469D01*
X258527068Y-158294412D01*
X258527070Y-158294420D01*
X258606258Y-158485596D01*
X258721224Y-158657657D01*
X258867542Y-158803975D01*
X258867545Y-158803977D01*
X259039602Y-158918941D01*
X259230780Y-158998130D01*
X259375252Y-159026867D01*
X259433730Y-159038499D01*
X259433734Y-159038500D01*
X259433735Y-159038500D01*
X259640666Y-159038500D01*
X259640667Y-159038499D01*
X259843620Y-158998130D01*
X260034798Y-158918941D01*
X260206855Y-158803977D01*
X260353177Y-158657655D01*
X260468141Y-158485598D01*
X260547330Y-158294420D01*
X260587700Y-158091465D01*
X260587700Y-157884535D01*
X260547330Y-157681580D01*
X260468141Y-157490402D01*
X260353177Y-157318345D01*
X260353175Y-157318342D01*
X260206857Y-157172024D01*
X260038855Y-157059770D01*
X260034798Y-157057059D01*
X260034793Y-157057057D01*
X259843620Y-156977870D01*
X259843612Y-156977868D01*
X259640669Y-156937500D01*
X259640665Y-156937500D01*
X259433735Y-156937500D01*
X259433730Y-156937500D01*
X259230787Y-156977868D01*
X259230779Y-156977870D01*
X259159153Y-157007539D01*
X259089683Y-157015008D01*
X259027204Y-156983733D01*
X258991552Y-156923644D01*
X258987700Y-156892978D01*
X258987700Y-149076518D01*
X258993938Y-149055272D01*
X258995518Y-149033184D01*
X259003590Y-149022400D01*
X259007385Y-149009479D01*
X259024118Y-148994979D01*
X259037390Y-148977251D01*
X259050010Y-148972543D01*
X259060189Y-148963724D01*
X259082106Y-148960572D01*
X259102854Y-148952834D01*
X259116014Y-148955696D01*
X259129347Y-148953780D01*
X259149490Y-148962979D01*
X259171127Y-148967686D01*
X259188852Y-148980954D01*
X259192903Y-148982805D01*
X259199381Y-148988837D01*
X259200381Y-148989837D01*
X259233866Y-149051160D01*
X259236700Y-149077518D01*
X259236700Y-155487561D01*
X259246939Y-155525774D01*
X259257179Y-155563990D01*
X259257181Y-155563993D01*
X259286018Y-155613939D01*
X259286020Y-155613941D01*
X259296742Y-155632513D01*
X261090124Y-157425895D01*
X261123609Y-157487218D01*
X261118625Y-157556910D01*
X261117004Y-157561028D01*
X261067072Y-157681575D01*
X261067069Y-157681587D01*
X261026701Y-157884530D01*
X261026701Y-158091469D01*
X261067069Y-158294412D01*
X261067071Y-158294420D01*
X261146259Y-158485596D01*
X261261225Y-158657657D01*
X261407543Y-158803975D01*
X261407546Y-158803977D01*
X261579603Y-158918941D01*
X261770781Y-158998130D01*
X261915253Y-159026867D01*
X261973731Y-159038499D01*
X261973735Y-159038500D01*
X261973736Y-159038500D01*
X262180667Y-159038500D01*
X262180668Y-159038499D01*
X262383621Y-158998130D01*
X262574799Y-158918941D01*
X262746856Y-158803977D01*
X262893178Y-158657655D01*
X263008142Y-158485598D01*
X263087331Y-158294420D01*
X263127701Y-158091465D01*
X263127701Y-157884535D01*
X263087331Y-157681580D01*
X263008142Y-157490402D01*
X262893178Y-157318345D01*
X262893176Y-157318342D01*
X262746858Y-157172024D01*
X262578856Y-157059770D01*
X262574799Y-157057059D01*
X262574794Y-157057057D01*
X262383621Y-156977870D01*
X262383613Y-156977868D01*
X262180670Y-156937500D01*
X262180666Y-156937500D01*
X261973736Y-156937500D01*
X261973731Y-156937500D01*
X261770788Y-156977868D01*
X261770780Y-156977870D01*
X261650230Y-157027804D01*
X261580760Y-157035273D01*
X261518281Y-157003998D01*
X261515096Y-157000924D01*
X259874019Y-155359847D01*
X259840534Y-155298524D01*
X259837700Y-155272166D01*
X259837700Y-153932833D01*
X259857385Y-153865794D01*
X259910189Y-153820039D01*
X259979347Y-153810095D01*
X260042903Y-153839120D01*
X260049381Y-153845152D01*
X263630124Y-157425895D01*
X263663609Y-157487218D01*
X263658625Y-157556910D01*
X263657004Y-157561029D01*
X263607070Y-157681579D01*
X263607068Y-157681587D01*
X263566700Y-157884530D01*
X263566700Y-158091469D01*
X263607068Y-158294412D01*
X263607070Y-158294420D01*
X263686258Y-158485596D01*
X263801224Y-158657657D01*
X263947542Y-158803975D01*
X263947545Y-158803977D01*
X264119602Y-158918941D01*
X264310780Y-158998130D01*
X264455252Y-159026867D01*
X264513730Y-159038499D01*
X264513734Y-159038500D01*
X264513735Y-159038500D01*
X264720666Y-159038500D01*
X264720667Y-159038499D01*
X264923620Y-158998130D01*
X265114798Y-158918941D01*
X265286855Y-158803977D01*
X265433177Y-158657655D01*
X265548141Y-158485598D01*
X265627330Y-158294420D01*
X265667700Y-158091465D01*
X265667700Y-157884535D01*
X265627330Y-157681580D01*
X265548141Y-157490402D01*
X265433177Y-157318345D01*
X265433175Y-157318342D01*
X265286857Y-157172024D01*
X265118855Y-157059770D01*
X265114798Y-157057059D01*
X265114793Y-157057057D01*
X264923620Y-156977870D01*
X264923612Y-156977868D01*
X264720669Y-156937500D01*
X264720665Y-156937500D01*
X264513735Y-156937500D01*
X264513730Y-156937500D01*
X264310787Y-156977868D01*
X264310779Y-156977870D01*
X264190229Y-157027804D01*
X264120759Y-157035273D01*
X264058280Y-157003998D01*
X264055095Y-157000924D01*
X260274019Y-153219848D01*
X260240534Y-153158525D01*
X260237700Y-153132167D01*
X260237700Y-148752033D01*
X260257385Y-148684994D01*
X260310189Y-148639239D01*
X260379347Y-148629295D01*
X260442903Y-148658320D01*
X260449381Y-148664352D01*
X261587981Y-149802952D01*
X261621466Y-149864275D01*
X261624300Y-149890633D01*
X261624300Y-152795162D01*
X261644779Y-152871589D01*
X261644780Y-152871590D01*
X261658448Y-152895265D01*
X261684337Y-152940107D01*
X261684341Y-152940112D01*
X266070381Y-157326152D01*
X266103866Y-157387475D01*
X266106700Y-157413833D01*
X266106700Y-158857752D01*
X266118331Y-158916229D01*
X266118332Y-158916230D01*
X266162647Y-158982552D01*
X266228969Y-159026867D01*
X266228970Y-159026868D01*
X266287447Y-159038499D01*
X266287450Y-159038500D01*
X266287452Y-159038500D01*
X268026950Y-159038500D01*
X268026951Y-159038499D01*
X268041768Y-159035552D01*
X268085429Y-159026868D01*
X268085429Y-159026867D01*
X268085431Y-159026867D01*
X268151752Y-158982552D01*
X268196067Y-158916231D01*
X268196067Y-158916229D01*
X268196068Y-158916229D01*
X268207699Y-158857752D01*
X268207700Y-158857750D01*
X268207700Y-157118249D01*
X268207699Y-157118247D01*
X268196068Y-157059770D01*
X268196067Y-157059769D01*
X268151752Y-156993447D01*
X268085430Y-156949132D01*
X268085429Y-156949131D01*
X268026952Y-156937500D01*
X268026948Y-156937500D01*
X266583033Y-156937500D01*
X266515994Y-156917815D01*
X266495352Y-156901181D01*
X264696416Y-155102245D01*
X264662931Y-155040922D01*
X264667915Y-154971230D01*
X264709787Y-154915297D01*
X264775251Y-154890880D01*
X264808288Y-154892947D01*
X264861255Y-154903482D01*
X264896532Y-154910499D01*
X264896534Y-154910500D01*
X264896535Y-154910500D01*
X265103466Y-154910500D01*
X265103467Y-154910499D01*
X265306420Y-154870130D01*
X265497598Y-154790941D01*
X265669655Y-154675977D01*
X265815977Y-154529655D01*
X265930941Y-154357598D01*
X266010130Y-154166420D01*
X266050500Y-153963465D01*
X266050500Y-153756535D01*
X266010130Y-153553580D01*
X265930941Y-153362402D01*
X265815977Y-153190345D01*
X265815975Y-153190342D01*
X265669657Y-153044024D01*
X265583626Y-152986541D01*
X265497598Y-152929059D01*
X265445002Y-152907273D01*
X265306420Y-152849870D01*
X265306412Y-152849868D01*
X265103469Y-152809500D01*
X265103465Y-152809500D01*
X264896535Y-152809500D01*
X264896530Y-152809500D01*
X264693587Y-152849868D01*
X264693579Y-152849870D01*
X264573029Y-152899804D01*
X264503559Y-152907273D01*
X264441080Y-152875998D01*
X264437895Y-152872924D01*
X263786819Y-152221848D01*
X263753334Y-152160525D01*
X263750500Y-152134167D01*
X263750500Y-151671919D01*
X263770185Y-151604880D01*
X263822989Y-151559125D01*
X263892147Y-151549181D01*
X263955703Y-151578206D01*
X263989061Y-151624466D01*
X263989869Y-151626418D01*
X263989870Y-151626420D01*
X264069059Y-151817598D01*
X264095510Y-151857185D01*
X264184024Y-151989657D01*
X264330342Y-152135975D01*
X264330345Y-152135977D01*
X264502402Y-152250941D01*
X264693580Y-152330130D01*
X264896530Y-152370499D01*
X264896534Y-152370500D01*
X264896535Y-152370500D01*
X265103466Y-152370500D01*
X265103467Y-152370499D01*
X265306420Y-152330130D01*
X265497598Y-152250941D01*
X265669655Y-152135977D01*
X265815977Y-151989655D01*
X265930941Y-151817598D01*
X266010130Y-151626420D01*
X266050500Y-151423465D01*
X266050500Y-151216535D01*
X266010130Y-151013580D01*
X265930941Y-150822402D01*
X265815977Y-150650345D01*
X265815975Y-150650342D01*
X265669657Y-150504024D01*
X265583626Y-150446541D01*
X265497598Y-150389059D01*
X265474781Y-150379608D01*
X265306420Y-150309870D01*
X265306412Y-150309868D01*
X265103469Y-150269500D01*
X265103465Y-150269500D01*
X264896535Y-150269500D01*
X264896530Y-150269500D01*
X264693587Y-150309868D01*
X264693579Y-150309870D01*
X264573029Y-150359804D01*
X264503559Y-150367273D01*
X264441080Y-150335998D01*
X264437895Y-150332924D01*
X264186819Y-150081848D01*
X264153334Y-150020525D01*
X264150500Y-149994167D01*
X264150500Y-149707796D01*
X264170185Y-149640757D01*
X264222989Y-149595002D01*
X264292147Y-149585058D01*
X264343390Y-149604694D01*
X264502400Y-149710940D01*
X264502401Y-149710940D01*
X264502402Y-149710941D01*
X264693580Y-149790130D01*
X264896530Y-149830499D01*
X264896534Y-149830500D01*
X264896535Y-149830500D01*
X265103466Y-149830500D01*
X265103467Y-149830499D01*
X265306420Y-149790130D01*
X265497598Y-149710941D01*
X265669655Y-149595977D01*
X265815977Y-149449655D01*
X265930941Y-149277598D01*
X266010130Y-149086420D01*
X266050500Y-148883465D01*
X266050500Y-148676535D01*
X266010130Y-148473580D01*
X265930941Y-148282402D01*
X265815977Y-148110345D01*
X265815975Y-148110342D01*
X265669657Y-147964024D01*
X265583626Y-147906541D01*
X265497598Y-147849059D01*
X265495413Y-147848154D01*
X265306420Y-147769870D01*
X265306412Y-147769868D01*
X265103469Y-147729500D01*
X265103465Y-147729500D01*
X264896535Y-147729500D01*
X264871079Y-147734563D01*
X264831367Y-147742462D01*
X264761775Y-147736233D01*
X264719496Y-147708525D01*
X264396094Y-147385123D01*
X264362609Y-147323800D01*
X264367593Y-147254108D01*
X264409465Y-147198175D01*
X264474929Y-147173758D01*
X264531227Y-147182880D01*
X264693580Y-147250130D01*
X264882609Y-147287730D01*
X264896530Y-147290499D01*
X264896534Y-147290500D01*
X264896535Y-147290500D01*
X265103466Y-147290500D01*
X265103467Y-147290499D01*
X265306420Y-147250130D01*
X265497598Y-147170941D01*
X265669655Y-147055977D01*
X265815977Y-146909655D01*
X265930941Y-146737598D01*
X266010130Y-146546420D01*
X266050500Y-146343465D01*
X266050500Y-146136535D01*
X266010130Y-145933580D01*
X265930941Y-145742402D01*
X265815977Y-145570345D01*
X265815975Y-145570342D01*
X265669657Y-145424024D01*
X265567999Y-145356099D01*
X265497598Y-145309059D01*
X265477053Y-145300549D01*
X265306420Y-145229870D01*
X265306412Y-145229868D01*
X265103469Y-145189500D01*
X265103465Y-145189500D01*
X264896535Y-145189500D01*
X264896530Y-145189500D01*
X264693587Y-145229868D01*
X264693579Y-145229870D01*
X264573029Y-145279804D01*
X264503559Y-145287273D01*
X264441080Y-145255998D01*
X264437895Y-145252924D01*
X260367152Y-141182181D01*
X260333667Y-141120858D01*
X260338651Y-141051166D01*
X260380523Y-140995233D01*
X260445987Y-140970816D01*
X260454833Y-140970500D01*
X261894167Y-140970500D01*
X261961206Y-140990185D01*
X261981848Y-141006819D01*
X264042213Y-143067184D01*
X264075698Y-143128507D01*
X264070714Y-143198199D01*
X264069093Y-143202317D01*
X263989871Y-143393575D01*
X263989868Y-143393587D01*
X263949500Y-143596530D01*
X263949500Y-143803469D01*
X263989868Y-144006412D01*
X263989870Y-144006420D01*
X264069058Y-144197596D01*
X264184024Y-144369657D01*
X264330342Y-144515975D01*
X264330345Y-144515977D01*
X264502402Y-144630941D01*
X264693580Y-144710130D01*
X264896530Y-144750499D01*
X264896534Y-144750500D01*
X264896535Y-144750500D01*
X265103466Y-144750500D01*
X265103467Y-144750499D01*
X265306420Y-144710130D01*
X265497598Y-144630941D01*
X265530009Y-144609283D01*
X265596686Y-144588405D01*
X265630990Y-144592609D01*
X265660438Y-144600500D01*
X265660441Y-144600500D01*
X265739560Y-144600500D01*
X265739562Y-144600500D01*
X265815988Y-144580021D01*
X265884511Y-144540460D01*
X265940460Y-144484511D01*
X265980021Y-144415988D01*
X266000500Y-144339562D01*
X266000500Y-144260438D01*
X265980021Y-144184012D01*
X265980017Y-144184005D01*
X265977951Y-144179016D01*
X265970481Y-144109547D01*
X265977948Y-144084112D01*
X266010130Y-144006420D01*
X266050500Y-143803465D01*
X266050500Y-143596535D01*
X266010130Y-143393580D01*
X265930941Y-143202402D01*
X265815977Y-143030345D01*
X265815975Y-143030342D01*
X265669657Y-142884024D01*
X265543156Y-142799500D01*
X265497598Y-142769059D01*
X265438737Y-142744678D01*
X265306420Y-142689870D01*
X265306412Y-142689868D01*
X265103469Y-142649500D01*
X265103465Y-142649500D01*
X264896535Y-142649500D01*
X264896530Y-142649500D01*
X264693587Y-142689867D01*
X264693579Y-142689870D01*
X264643736Y-142710515D01*
X264574267Y-142717982D01*
X264511788Y-142686706D01*
X264508605Y-142683634D01*
X262607152Y-140782181D01*
X262573667Y-140720858D01*
X262578651Y-140651166D01*
X262620523Y-140595233D01*
X262685987Y-140570816D01*
X262694833Y-140570500D01*
X263921547Y-140570500D01*
X263988586Y-140590185D01*
X264034341Y-140642989D01*
X264044285Y-140712147D01*
X264036108Y-140741950D01*
X264034981Y-140744674D01*
X263989870Y-140853579D01*
X263989868Y-140853587D01*
X263949500Y-141056530D01*
X263949500Y-141263469D01*
X263989868Y-141466412D01*
X263989870Y-141466420D01*
X264049336Y-141609984D01*
X264069059Y-141657598D01*
X264122761Y-141737969D01*
X264184024Y-141829657D01*
X264330342Y-141975975D01*
X264330345Y-141975977D01*
X264502402Y-142090941D01*
X264693580Y-142170130D01*
X264867673Y-142204759D01*
X264896530Y-142210499D01*
X264896534Y-142210500D01*
X264896535Y-142210500D01*
X265103466Y-142210500D01*
X265103467Y-142210499D01*
X265306420Y-142170130D01*
X265497598Y-142090941D01*
X265530011Y-142069282D01*
X265596684Y-142048405D01*
X265630990Y-142052609D01*
X265660438Y-142060500D01*
X265660440Y-142060500D01*
X265739560Y-142060500D01*
X265739562Y-142060500D01*
X265815988Y-142040022D01*
X265884511Y-142000460D01*
X265940460Y-141944511D01*
X265980022Y-141875988D01*
X266000500Y-141799562D01*
X266000500Y-141720438D01*
X265980022Y-141644012D01*
X265980019Y-141644008D01*
X265977952Y-141639016D01*
X265970480Y-141569547D01*
X265977951Y-141544105D01*
X265987581Y-141520858D01*
X266010130Y-141466420D01*
X266050500Y-141263465D01*
X266050500Y-141056535D01*
X266010130Y-140853580D01*
X265930941Y-140662402D01*
X265815977Y-140490345D01*
X265815975Y-140490342D01*
X265669657Y-140344024D01*
X265547395Y-140262332D01*
X265497598Y-140229059D01*
X265474781Y-140219608D01*
X265306420Y-140149870D01*
X265306412Y-140149868D01*
X265103469Y-140109500D01*
X265103465Y-140109500D01*
X264896535Y-140109500D01*
X264896530Y-140109500D01*
X264693587Y-140149867D01*
X264693579Y-140149870D01*
X264643736Y-140170515D01*
X264626740Y-140172341D01*
X264611026Y-140179074D01*
X264592719Y-140175998D01*
X264574267Y-140177982D01*
X264558627Y-140170270D01*
X264542122Y-140167498D01*
X264517617Y-140150050D01*
X264512890Y-140147720D01*
X264510708Y-140145737D01*
X264394512Y-140029541D01*
X264374072Y-140017740D01*
X264360863Y-140010114D01*
X264325992Y-139989981D01*
X264325991Y-139989980D01*
X264249560Y-139969500D01*
X258704500Y-139969500D01*
X258637461Y-139949815D01*
X258591706Y-139897011D01*
X258581835Y-139863648D01*
X258580500Y-139854624D01*
X258580500Y-139795326D01*
X258565966Y-139722260D01*
X258559480Y-139712554D01*
X258555870Y-139688148D01*
X258558667Y-139668107D01*
X258556504Y-139647992D01*
X258563977Y-139622539D01*
X258565962Y-139617745D01*
X258565966Y-139617740D01*
X258580500Y-139544674D01*
X258580500Y-139494499D01*
X258600185Y-139427460D01*
X258652989Y-139381705D01*
X258704500Y-139370499D01*
X262422095Y-139370499D01*
X262422097Y-139370499D01*
X262498524Y-139350020D01*
X262567046Y-139310459D01*
X262622995Y-139254510D01*
X263850259Y-138027245D01*
X263911579Y-137993762D01*
X263981270Y-137998746D01*
X264037204Y-138040617D01*
X264061621Y-138106082D01*
X264052498Y-138162380D01*
X263989871Y-138313575D01*
X263989868Y-138313587D01*
X263949500Y-138516530D01*
X263949500Y-138723469D01*
X263989868Y-138926412D01*
X263989870Y-138926420D01*
X264018411Y-138995325D01*
X264069059Y-139117598D01*
X264103738Y-139169499D01*
X264184024Y-139289657D01*
X264330342Y-139435975D01*
X264330345Y-139435977D01*
X264502402Y-139550941D01*
X264693580Y-139630130D01*
X264894021Y-139670000D01*
X264896530Y-139670499D01*
X264896534Y-139670500D01*
X264896535Y-139670500D01*
X265103466Y-139670500D01*
X265103467Y-139670499D01*
X265306420Y-139630130D01*
X265497598Y-139550941D01*
X265669655Y-139435977D01*
X265815977Y-139289655D01*
X265930941Y-139117598D01*
X266010130Y-138926420D01*
X266050500Y-138723465D01*
X266050500Y-138516535D01*
X266010130Y-138313580D01*
X265930941Y-138122402D01*
X265815977Y-137950345D01*
X265815975Y-137950342D01*
X265669657Y-137804024D01*
X265576283Y-137741634D01*
X265497598Y-137689059D01*
X265474781Y-137679608D01*
X265306420Y-137609870D01*
X265306412Y-137609868D01*
X265103469Y-137569500D01*
X265103465Y-137569500D01*
X264896535Y-137569500D01*
X264896530Y-137569500D01*
X264693587Y-137609868D01*
X264693575Y-137609871D01*
X264542380Y-137672498D01*
X264472911Y-137679967D01*
X264410432Y-137648692D01*
X264374780Y-137588602D01*
X264377274Y-137518777D01*
X264407245Y-137470259D01*
X264724948Y-137152555D01*
X264786269Y-137119072D01*
X264836816Y-137118621D01*
X264884961Y-137128197D01*
X264896534Y-137130500D01*
X264896535Y-137130500D01*
X265103466Y-137130500D01*
X265103467Y-137130499D01*
X265306420Y-137090130D01*
X265497598Y-137010941D01*
X265669655Y-136895977D01*
X265815977Y-136749655D01*
X265930941Y-136577598D01*
X266010130Y-136386420D01*
X266050500Y-136183465D01*
X266050500Y-135976535D01*
X266010130Y-135773580D01*
X265930941Y-135582402D01*
X265815977Y-135410345D01*
X265815975Y-135410342D01*
X265669657Y-135264024D01*
X265583626Y-135206541D01*
X265497598Y-135149059D01*
X265479938Y-135141744D01*
X265306420Y-135069870D01*
X265306412Y-135069868D01*
X265103469Y-135029500D01*
X265103465Y-135029500D01*
X264896535Y-135029500D01*
X264896530Y-135029500D01*
X264693587Y-135069868D01*
X264693579Y-135069870D01*
X264502403Y-135149058D01*
X264330342Y-135264024D01*
X264184024Y-135410342D01*
X264069058Y-135582403D01*
X263989870Y-135773579D01*
X263989868Y-135773587D01*
X263949500Y-135976530D01*
X263949500Y-136183469D01*
X263989868Y-136386412D01*
X263989870Y-136386420D01*
X264026125Y-136473948D01*
X264069059Y-136577598D01*
X264093728Y-136614518D01*
X264165091Y-136721321D01*
X264185968Y-136787998D01*
X264167483Y-136855378D01*
X264149669Y-136877892D01*
X263805605Y-137221957D01*
X263744282Y-137255442D01*
X263674591Y-137250458D01*
X263618657Y-137208587D01*
X263594240Y-137143122D01*
X263593924Y-137134276D01*
X263593924Y-135422408D01*
X263613609Y-135355369D01*
X263630239Y-135334731D01*
X264437896Y-134527073D01*
X264499217Y-134493590D01*
X264568908Y-134498574D01*
X264573007Y-134500186D01*
X264693580Y-134550130D01*
X264889472Y-134589095D01*
X264896530Y-134590499D01*
X264896534Y-134590500D01*
X264896535Y-134590500D01*
X265103466Y-134590500D01*
X265103467Y-134590499D01*
X265306420Y-134550130D01*
X265497598Y-134470941D01*
X265669655Y-134355977D01*
X265815977Y-134209655D01*
X265930941Y-134037598D01*
X266010130Y-133846420D01*
X266050500Y-133643465D01*
X266050500Y-133436535D01*
X266010130Y-133233580D01*
X265930941Y-133042402D01*
X265815977Y-132870345D01*
X265815975Y-132870342D01*
X265669657Y-132724024D01*
X265517353Y-132622259D01*
X265497598Y-132609059D01*
X265473166Y-132598939D01*
X265306420Y-132529870D01*
X265306412Y-132529868D01*
X265103469Y-132489500D01*
X265103465Y-132489500D01*
X264896535Y-132489500D01*
X264896530Y-132489500D01*
X264693587Y-132529868D01*
X264693579Y-132529870D01*
X264502403Y-132609058D01*
X264343390Y-132715306D01*
X264276712Y-132736183D01*
X264209332Y-132717698D01*
X264162643Y-132665719D01*
X264150500Y-132612203D01*
X264150500Y-132325833D01*
X264159144Y-132296392D01*
X264165668Y-132266406D01*
X264169422Y-132261390D01*
X264170185Y-132258794D01*
X264186819Y-132238152D01*
X264338152Y-132086819D01*
X264399475Y-132053334D01*
X264425833Y-132050500D01*
X265869750Y-132050500D01*
X265869751Y-132050499D01*
X265884568Y-132047552D01*
X265928229Y-132038868D01*
X265928229Y-132038867D01*
X265928231Y-132038867D01*
X265994552Y-131994552D01*
X266038867Y-131928231D01*
X266038867Y-131928229D01*
X266038868Y-131928229D01*
X266050499Y-131869752D01*
X266050500Y-131869750D01*
X266050500Y-130130249D01*
X266050499Y-130130247D01*
X266038868Y-130071770D01*
X266038867Y-130071769D01*
X265994552Y-130005447D01*
X265928230Y-129961132D01*
X265928229Y-129961131D01*
X265869752Y-129949500D01*
X265869748Y-129949500D01*
X264130252Y-129949500D01*
X264130247Y-129949500D01*
X264071770Y-129961131D01*
X264071769Y-129961132D01*
X264005447Y-130005447D01*
X263961132Y-130071769D01*
X263961131Y-130071770D01*
X263949500Y-130130247D01*
X263949500Y-131574167D01*
X263929815Y-131641206D01*
X263913181Y-131661848D01*
X263609541Y-131965487D01*
X263609535Y-131965495D01*
X263569982Y-132034004D01*
X263569979Y-132034009D01*
X263549500Y-132110439D01*
X263549500Y-133288382D01*
X263529815Y-133355421D01*
X263513181Y-133376063D01*
X262559109Y-134330134D01*
X262497786Y-134363619D01*
X262428094Y-134358635D01*
X262372161Y-134316763D01*
X262347744Y-134251299D01*
X262359046Y-134190048D01*
X262363972Y-134179487D01*
X262370500Y-134129901D01*
X262370499Y-133770100D01*
X262369230Y-133760463D01*
X262379994Y-133691433D01*
X262420350Y-133645962D01*
X262419215Y-133644499D01*
X262425383Y-133639714D01*
X262539714Y-133525383D01*
X262539721Y-133525374D01*
X262622031Y-133386195D01*
X262664504Y-133240000D01*
X261685464Y-133240000D01*
X261682596Y-133241566D01*
X261656238Y-133244400D01*
X260926000Y-133244400D01*
X260858961Y-133224715D01*
X260813206Y-133171911D01*
X260802000Y-133120400D01*
X260802000Y-132994400D01*
X260676000Y-132994400D01*
X260608961Y-132974715D01*
X260563206Y-132921911D01*
X260552000Y-132870400D01*
X260552000Y-132189894D01*
X261052000Y-132189894D01*
X261052000Y-132740000D01*
X261610000Y-132740000D01*
X262110000Y-132740000D01*
X262664504Y-132740000D01*
X262622031Y-132593804D01*
X262539721Y-132454625D01*
X262539714Y-132454616D01*
X262425383Y-132340285D01*
X262425374Y-132340278D01*
X262286195Y-132257968D01*
X262286190Y-132257966D01*
X262130918Y-132212855D01*
X262130912Y-132212854D01*
X262110000Y-132211209D01*
X262110000Y-132740000D01*
X261610000Y-132740000D01*
X261610000Y-132211210D01*
X261609999Y-132211209D01*
X261589087Y-132212854D01*
X261589081Y-132212855D01*
X261433809Y-132257966D01*
X261433806Y-132257967D01*
X261400763Y-132277509D01*
X261333039Y-132294690D01*
X261274522Y-132277508D01*
X261198193Y-132232367D01*
X261198190Y-132232365D01*
X261052001Y-132189893D01*
X261052000Y-132189894D01*
X260552000Y-132189894D01*
X260551998Y-132189893D01*
X260405809Y-132232365D01*
X260405806Y-132232367D01*
X260266625Y-132314678D01*
X260266620Y-132314682D01*
X260152282Y-132429021D01*
X260147499Y-132435188D01*
X260145544Y-132433672D01*
X260145488Y-132433724D01*
X260140241Y-132444787D01*
X260120424Y-132457118D01*
X260103362Y-132473044D01*
X260089857Y-132476140D01*
X260080920Y-132481702D01*
X260058844Y-132483251D01*
X260045915Y-132486216D01*
X260038694Y-132486110D01*
X260021901Y-132483900D01*
X259886787Y-132483900D01*
X259885894Y-132483887D01*
X259853318Y-132473804D01*
X259820660Y-132464215D01*
X259819615Y-132463373D01*
X259819149Y-132463229D01*
X259818543Y-132462509D01*
X259800018Y-132447581D01*
X258971978Y-131619541D01*
X258971970Y-131619535D01*
X258903461Y-131579982D01*
X258903456Y-131579979D01*
X258877979Y-131573152D01*
X258827028Y-131559500D01*
X258827026Y-131559500D01*
X258599505Y-131559500D01*
X258532466Y-131539815D01*
X258486711Y-131487011D01*
X258476767Y-131417853D01*
X258479730Y-131403407D01*
X258482899Y-131391579D01*
X258500500Y-131325892D01*
X258500500Y-131194108D01*
X258466392Y-131066814D01*
X258400500Y-130952686D01*
X258347020Y-130899206D01*
X258313536Y-130837882D01*
X258318521Y-130768190D01*
X258360392Y-130712257D01*
X258378398Y-130701044D01*
X258433342Y-130673050D01*
X258523050Y-130583342D01*
X258580646Y-130470304D01*
X258580646Y-130470302D01*
X258580647Y-130470301D01*
X258595499Y-130376524D01*
X258595500Y-130376519D01*
X258595499Y-129763482D01*
X258580646Y-129669696D01*
X258573270Y-129655220D01*
X258560373Y-129586555D01*
X258586647Y-129521814D01*
X258621753Y-129491540D01*
X258733807Y-129426846D01*
X258826993Y-129333660D01*
X258892885Y-129219532D01*
X258926993Y-129092238D01*
X258926993Y-128976785D01*
X258931143Y-128961295D01*
X258930489Y-128947549D01*
X258943607Y-128914784D01*
X258946163Y-128910357D01*
X258946163Y-128910356D01*
X258956639Y-128892211D01*
X258956638Y-128892211D01*
X258956641Y-128892208D01*
X258959427Y-128881809D01*
X258995787Y-128822151D01*
X259006499Y-128813589D01*
X259007022Y-128813065D01*
X259007024Y-128813065D01*
X259090685Y-128729404D01*
X259090685Y-128729402D01*
X259098355Y-128721733D01*
X259101185Y-128724563D01*
X259139568Y-128693855D01*
X259209063Y-128686630D01*
X259271432Y-128718124D01*
X259274709Y-128721905D01*
X259274882Y-128721733D01*
X259282553Y-128729404D01*
X259366214Y-128813065D01*
X259473445Y-128863068D01*
X259522301Y-128869500D01*
X259674653Y-128869500D01*
X259741692Y-128889185D01*
X259787447Y-128941989D01*
X259797391Y-129011147D01*
X259768366Y-129074703D01*
X259762334Y-129081181D01*
X259484189Y-129359325D01*
X259422866Y-129392810D01*
X259415904Y-129394118D01*
X259413485Y-129394500D01*
X259413482Y-129394501D01*
X259319696Y-129409354D01*
X259206658Y-129466950D01*
X259206657Y-129466951D01*
X259206652Y-129466954D01*
X259116954Y-129556652D01*
X259116951Y-129556657D01*
X259059352Y-129669698D01*
X259044500Y-129763475D01*
X259044500Y-130376517D01*
X259048625Y-130402561D01*
X259059354Y-130470304D01*
X259116950Y-130583342D01*
X259116952Y-130583344D01*
X259116954Y-130583347D01*
X259206652Y-130673045D01*
X259206654Y-130673046D01*
X259206658Y-130673050D01*
X259319694Y-130730645D01*
X259319698Y-130730647D01*
X259413475Y-130745499D01*
X259413481Y-130745500D01*
X259876518Y-130745499D01*
X259970304Y-130730646D01*
X260083342Y-130673050D01*
X260167894Y-130588497D01*
X260229215Y-130555014D01*
X260298907Y-130559998D01*
X260354841Y-130601869D01*
X260367954Y-130623771D01*
X260386395Y-130663317D01*
X260471303Y-130748225D01*
X260580132Y-130798973D01*
X260584636Y-130799565D01*
X260648531Y-130827830D01*
X260656133Y-130834824D01*
X260848916Y-131027607D01*
X260882401Y-131088930D01*
X260885235Y-131115288D01*
X260885235Y-131150157D01*
X260893469Y-131180886D01*
X260919343Y-131277452D01*
X260943685Y-131319612D01*
X260985235Y-131391579D01*
X261078421Y-131484765D01*
X261192549Y-131550657D01*
X261319843Y-131584765D01*
X261319845Y-131584765D01*
X261451625Y-131584765D01*
X261451627Y-131584765D01*
X261578921Y-131550657D01*
X261693049Y-131484765D01*
X261786235Y-131391579D01*
X261852127Y-131277451D01*
X261886235Y-131150157D01*
X261886235Y-131018373D01*
X261852127Y-130891079D01*
X261786235Y-130776951D01*
X261693049Y-130683765D01*
X261635985Y-130650819D01*
X261578922Y-130617873D01*
X261519193Y-130601869D01*
X261451627Y-130583765D01*
X261451626Y-130583765D01*
X261443777Y-130581662D01*
X261444573Y-130578689D01*
X261394018Y-130556313D01*
X261355558Y-130497981D01*
X261350118Y-130461661D01*
X261350118Y-130145101D01*
X261348849Y-130135464D01*
X261359613Y-130066434D01*
X261399969Y-130020963D01*
X261398834Y-130019500D01*
X261405002Y-130014715D01*
X261519333Y-129900384D01*
X261519340Y-129900375D01*
X261601650Y-129761196D01*
X261644123Y-129615001D01*
X260963619Y-129615001D01*
X260896580Y-129595316D01*
X260850825Y-129542512D01*
X260839619Y-129491001D01*
X260839619Y-129239001D01*
X260859304Y-129171962D01*
X260912108Y-129126207D01*
X260963619Y-129115001D01*
X261644123Y-129115001D01*
X261601650Y-128968805D01*
X261601649Y-128968803D01*
X261575839Y-128925161D01*
X261558655Y-128857437D01*
X261580814Y-128791174D01*
X261616432Y-128760135D01*
X261615450Y-128758783D01*
X261623335Y-128753053D01*
X261623342Y-128753050D01*
X261713050Y-128663342D01*
X261770646Y-128550304D01*
X261770646Y-128550302D01*
X261770647Y-128550301D01*
X261785499Y-128456524D01*
X261785500Y-128456519D01*
X261785499Y-127993482D01*
X261770646Y-127899696D01*
X261713050Y-127786658D01*
X261713046Y-127786654D01*
X261713045Y-127786652D01*
X261623347Y-127696954D01*
X261623343Y-127696951D01*
X261623342Y-127696950D01*
X261621724Y-127696126D01*
X261574386Y-127672005D01*
X261523590Y-127624030D01*
X261506796Y-127556209D01*
X261529334Y-127490074D01*
X261584050Y-127446623D01*
X261593792Y-127443135D01*
X261674399Y-127418017D01*
X261819877Y-127330072D01*
X261940072Y-127209877D01*
X262028019Y-127064395D01*
X262078590Y-126902106D01*
X262085000Y-126831572D01*
X262085000Y-126825000D01*
X261234000Y-126825000D01*
X261166961Y-126805315D01*
X261121206Y-126752511D01*
X261110000Y-126701000D01*
X261110000Y-126575000D01*
X260984000Y-126575000D01*
X260916961Y-126555315D01*
X260871206Y-126502511D01*
X260860000Y-126451000D01*
X260860000Y-126325000D01*
X261360000Y-126325000D01*
X262084999Y-126325000D01*
X262084999Y-126318417D01*
X262078591Y-126247897D01*
X262078590Y-126247892D01*
X262028018Y-126085603D01*
X261940072Y-125940122D01*
X261819877Y-125819927D01*
X261674395Y-125731980D01*
X261674396Y-125731980D01*
X261512105Y-125681409D01*
X261512106Y-125681409D01*
X261441572Y-125675000D01*
X261360000Y-125675000D01*
X261360000Y-126325000D01*
X260860000Y-126325000D01*
X260860000Y-125675000D01*
X260859999Y-125674999D01*
X260778417Y-125675000D01*
X260778412Y-125675001D01*
X260715571Y-125680710D01*
X260647026Y-125667172D01*
X260613985Y-125635375D01*
X260611289Y-125637740D01*
X260574245Y-125595499D01*
X259790118Y-125595499D01*
X259790118Y-125846499D01*
X259787567Y-125855184D01*
X259788856Y-125864146D01*
X259777877Y-125888186D01*
X259770433Y-125913538D01*
X259763592Y-125919465D01*
X259759831Y-125927702D01*
X259737596Y-125941991D01*
X259717629Y-125959293D01*
X259707114Y-125961580D01*
X259701053Y-125965476D01*
X259666118Y-125970499D01*
X259664118Y-125970499D01*
X259597079Y-125950814D01*
X259551324Y-125898010D01*
X259540118Y-125846499D01*
X259540118Y-125345499D01*
X259790118Y-125345499D01*
X260574244Y-125345499D01*
X260563139Y-125261152D01*
X260561036Y-125253302D01*
X260564287Y-125252430D01*
X260558484Y-125198494D01*
X260561609Y-125187849D01*
X260561036Y-125187696D01*
X260563139Y-125179845D01*
X260574244Y-125095499D01*
X259790118Y-125095499D01*
X259790118Y-125345499D01*
X259540118Y-125345499D01*
X259540118Y-124845499D01*
X259790118Y-124845499D01*
X260574244Y-124845499D01*
X260563139Y-124761158D01*
X260563139Y-124761156D01*
X260506461Y-124624323D01*
X260416297Y-124506819D01*
X260298793Y-124416655D01*
X260161959Y-124359977D01*
X260051995Y-124345499D01*
X259790118Y-124345499D01*
X259790118Y-124845499D01*
X259540118Y-124845499D01*
X259540118Y-124345499D01*
X259402117Y-124345499D01*
X259335078Y-124325814D01*
X259289323Y-124273010D01*
X259278117Y-124221499D01*
X259278117Y-123882101D01*
X259278117Y-123882099D01*
X259262858Y-123805382D01*
X259262856Y-123805379D01*
X259262856Y-123805378D01*
X259262557Y-123804655D01*
X259260930Y-123796479D01*
X259258142Y-123792140D01*
X259253119Y-123757205D01*
X259253119Y-123751831D01*
X259272804Y-123684792D01*
X259289434Y-123664154D01*
X259645771Y-123307816D01*
X259707094Y-123274332D01*
X259733452Y-123271498D01*
X259848512Y-123271498D01*
X259848517Y-123271498D01*
X259898104Y-123264971D01*
X260006933Y-123214223D01*
X260091841Y-123129315D01*
X260142589Y-123020486D01*
X260149117Y-122970900D01*
X260149116Y-122551099D01*
X260142589Y-122501512D01*
X260091841Y-122392683D01*
X260006933Y-122307775D01*
X259898104Y-122257027D01*
X259898102Y-122257026D01*
X259898103Y-122257026D01*
X259848519Y-122250499D01*
X259848518Y-122250499D01*
X259634451Y-122250499D01*
X259567412Y-122230814D01*
X259546770Y-122214180D01*
X259243131Y-121910541D01*
X259243130Y-121910540D01*
X259219085Y-121896658D01*
X259219085Y-121896656D01*
X259219082Y-121896656D01*
X259174611Y-121870980D01*
X259174608Y-121870978D01*
X259136392Y-121860738D01*
X259098179Y-121850499D01*
X256437924Y-121850499D01*
X256407353Y-121858690D01*
X256361494Y-121870978D01*
X256361493Y-121870979D01*
X256317019Y-121896657D01*
X256317018Y-121896657D01*
X256292981Y-121910534D01*
X256292973Y-121910540D01*
X255703019Y-122500494D01*
X255641696Y-122533979D01*
X255572004Y-122528995D01*
X255516071Y-122487123D01*
X255491654Y-122421659D01*
X255506506Y-122353386D01*
X255507918Y-122350869D01*
X255541522Y-122292668D01*
X255562000Y-122216242D01*
X255562000Y-122137118D01*
X255562000Y-120916995D01*
X255581685Y-120849956D01*
X255598319Y-120829314D01*
X255600173Y-120827460D01*
X255602211Y-120825422D01*
X255646646Y-120724786D01*
X255649500Y-120700185D01*
X255649499Y-120299816D01*
X255646646Y-120275214D01*
X255618658Y-120211828D01*
X255602211Y-120174578D01*
X255524422Y-120096789D01*
X255423787Y-120052354D01*
X255399185Y-120049500D01*
X255123823Y-120049500D01*
X255123814Y-120049501D01*
X255099213Y-120052354D01*
X255099212Y-120052354D01*
X255089550Y-120056621D01*
X255020271Y-120065691D01*
X254957087Y-120035867D01*
X254951784Y-120030867D01*
X254630461Y-119709543D01*
X254624013Y-119704596D01*
X254625331Y-119702876D01*
X254584974Y-119660547D01*
X254571754Y-119591940D01*
X254574000Y-119586330D01*
X254574000Y-119011660D01*
X254576005Y-119004831D01*
X254575849Y-119003843D01*
X254574552Y-119003767D01*
X254574500Y-119003768D01*
X254574499Y-119003764D01*
X254574293Y-119003753D01*
X254574497Y-119000210D01*
X254574500Y-119000185D01*
X254574499Y-118848998D01*
X254577049Y-118840314D01*
X254575761Y-118831353D01*
X254586738Y-118807315D01*
X254594183Y-118781961D01*
X254601025Y-118776032D01*
X254604786Y-118767797D01*
X254627017Y-118753510D01*
X254646987Y-118736206D01*
X254657502Y-118733918D01*
X254663564Y-118730023D01*
X254698499Y-118725000D01*
X254749500Y-118725000D01*
X254816539Y-118744685D01*
X254862294Y-118797489D01*
X254873500Y-118848999D01*
X254873500Y-119000178D01*
X254873708Y-119003762D01*
X254873543Y-119003771D01*
X254874000Y-119011655D01*
X254874000Y-119545086D01*
X254874001Y-119545087D01*
X254949098Y-119535201D01*
X254949103Y-119535200D01*
X255088978Y-119477263D01*
X255209094Y-119385094D01*
X255275148Y-119299012D01*
X255331576Y-119257810D01*
X255373523Y-119250499D01*
X255399184Y-119250499D01*
X255423786Y-119247646D01*
X255524422Y-119203211D01*
X255602211Y-119125422D01*
X255646646Y-119024786D01*
X255649500Y-119000185D01*
X255649499Y-118599816D01*
X255646646Y-118575214D01*
X255644343Y-118569999D01*
X255602211Y-118474578D01*
X255598319Y-118470686D01*
X255564834Y-118409363D01*
X255563969Y-118405013D01*
X255562000Y-118394095D01*
X255562000Y-118385437D01*
X255558563Y-118372611D01*
X255557224Y-118367613D01*
X255541523Y-118309012D01*
X255521234Y-118273872D01*
X255501960Y-118240488D01*
X255453200Y-118191728D01*
X255433493Y-118166046D01*
X255414460Y-118133079D01*
X255285819Y-118004438D01*
X255252334Y-117943115D01*
X255249500Y-117916757D01*
X255249500Y-117419440D01*
X255248439Y-117411382D01*
X255248551Y-117411367D01*
X255245500Y-117388185D01*
X255245500Y-117022887D01*
X255265185Y-116955848D01*
X255317989Y-116910093D01*
X255387147Y-116900149D01*
X255450703Y-116929174D01*
X255457181Y-116935206D01*
X255572705Y-117050730D01*
X255572714Y-117050737D01*
X255710808Y-117132405D01*
X255710811Y-117132406D01*
X255864871Y-117177165D01*
X255864877Y-117177166D01*
X255900000Y-117179930D01*
X255900000Y-117179929D01*
X256400000Y-117179929D01*
X256435122Y-117177166D01*
X256435128Y-117177165D01*
X256589188Y-117132406D01*
X256589191Y-117132405D01*
X256727285Y-117050737D01*
X256727294Y-117050730D01*
X256840731Y-116937293D01*
X256840738Y-116937284D01*
X256922404Y-116799193D01*
X256962844Y-116659999D01*
X256400000Y-116659999D01*
X256400000Y-117179929D01*
X255900000Y-117179929D01*
X255900000Y-116533999D01*
X255919685Y-116466960D01*
X255972489Y-116421205D01*
X256024000Y-116409999D01*
X256150000Y-116409999D01*
X256150000Y-116283999D01*
X256169685Y-116216960D01*
X256222489Y-116171205D01*
X256274000Y-116159999D01*
X256962844Y-116159999D01*
X256922404Y-116020804D01*
X256840738Y-115882713D01*
X256840731Y-115882704D01*
X256727294Y-115769267D01*
X256727283Y-115769258D01*
X256717422Y-115763427D01*
X256669738Y-115712359D01*
X256657234Y-115643617D01*
X256661497Y-115621991D01*
X256664067Y-115613176D01*
X256664068Y-115613174D01*
X256670500Y-115564317D01*
X256670500Y-115215685D01*
X256664068Y-115166828D01*
X256614065Y-115059597D01*
X256530404Y-114975936D01*
X256446583Y-114936849D01*
X256394145Y-114890677D01*
X256391600Y-114886465D01*
X256390460Y-114884490D01*
X256128047Y-114622077D01*
X256117951Y-114603587D01*
X256103871Y-114587913D01*
X256101541Y-114573535D01*
X256094562Y-114560754D01*
X256096064Y-114539739D01*
X256092695Y-114518943D01*
X256098506Y-114505590D01*
X256099546Y-114491062D01*
X256112173Y-114474194D01*
X256120581Y-114454879D01*
X256139057Y-114438281D01*
X256141418Y-114435129D01*
X256146837Y-114431294D01*
X256152491Y-114427515D01*
X256152495Y-114427515D01*
X256200408Y-114395499D01*
X256267083Y-114374623D01*
X256323755Y-114387202D01*
X256406214Y-114427514D01*
X256418608Y-114433573D01*
X256486740Y-114443500D01*
X256701967Y-114443500D01*
X256769006Y-114463185D01*
X256799949Y-114491503D01*
X256802320Y-114494560D01*
X256918438Y-114610678D01*
X256918447Y-114610685D01*
X257059801Y-114694281D01*
X257217514Y-114740100D01*
X257217511Y-114740100D01*
X257219998Y-114740295D01*
X257220000Y-114740295D01*
X257220000Y-113642000D01*
X257239685Y-113574961D01*
X257292489Y-113529206D01*
X257344000Y-113518000D01*
X257596000Y-113518000D01*
X257663039Y-113537685D01*
X257708794Y-113590489D01*
X257720000Y-113642000D01*
X257720000Y-114740295D01*
X257720001Y-114740295D01*
X257722486Y-114740100D01*
X257880198Y-114694281D01*
X258021552Y-114610685D01*
X258021561Y-114610678D01*
X258137678Y-114494561D01*
X258137685Y-114494552D01*
X258221282Y-114353196D01*
X258221283Y-114353193D01*
X258267099Y-114195495D01*
X258267100Y-114195488D01*
X258267487Y-114190574D01*
X258290000Y-114131501D01*
X258290000Y-113319988D01*
X258299940Y-113337205D01*
X258355795Y-113393060D01*
X258424204Y-113432556D01*
X258500504Y-113453000D01*
X258579496Y-113453000D01*
X258655796Y-113432556D01*
X258724205Y-113393060D01*
X258780060Y-113337205D01*
X258790000Y-113319988D01*
X258790000Y-114122862D01*
X258831690Y-114114569D01*
X258831692Y-114114569D01*
X259013671Y-114039192D01*
X259013684Y-114039185D01*
X259177462Y-113929751D01*
X259177466Y-113929748D01*
X259316748Y-113790466D01*
X259316751Y-113790462D01*
X259426185Y-113626684D01*
X259426192Y-113626671D01*
X259501569Y-113444693D01*
X259501572Y-113444681D01*
X259539999Y-113251495D01*
X259540000Y-113251492D01*
X259540000Y-112853000D01*
X258840000Y-112853000D01*
X258840000Y-112353000D01*
X259540000Y-112353000D01*
X259540000Y-111954508D01*
X259539999Y-111954504D01*
X259501572Y-111761318D01*
X259501569Y-111761306D01*
X259426192Y-111579328D01*
X259426185Y-111579315D01*
X259316751Y-111415537D01*
X259316748Y-111415533D01*
X259177466Y-111276251D01*
X259177462Y-111276248D01*
X259013684Y-111166814D01*
X259013671Y-111166807D01*
X258831691Y-111091429D01*
X258831683Y-111091427D01*
X258790000Y-111083135D01*
X258790000Y-111886011D01*
X258780060Y-111868795D01*
X258724205Y-111812940D01*
X258655796Y-111773444D01*
X258579496Y-111753000D01*
X258500504Y-111753000D01*
X258424204Y-111773444D01*
X258355795Y-111812940D01*
X258299940Y-111868795D01*
X258290000Y-111886011D01*
X258290000Y-111083136D01*
X258289999Y-111083135D01*
X258248316Y-111091427D01*
X258248308Y-111091429D01*
X258066328Y-111166807D01*
X258066315Y-111166814D01*
X257902537Y-111276248D01*
X257902533Y-111276251D01*
X257763248Y-111415536D01*
X257650427Y-111584387D01*
X257649003Y-111583435D01*
X257605742Y-111627451D01*
X257537600Y-111642892D01*
X257471927Y-111619041D01*
X257469907Y-111617306D01*
X257469811Y-111617432D01*
X257463367Y-111612487D01*
X257463365Y-111612485D01*
X257397750Y-111574602D01*
X257332136Y-111536719D01*
X257258950Y-111517109D01*
X257185766Y-111497500D01*
X257034234Y-111497500D01*
X256887863Y-111536719D01*
X256756635Y-111612485D01*
X256756632Y-111612487D01*
X256649487Y-111719632D01*
X256649485Y-111719635D01*
X256595593Y-111812979D01*
X256573719Y-111850865D01*
X256573270Y-111852541D01*
X256540364Y-111975349D01*
X256503999Y-112035009D01*
X256441152Y-112065538D01*
X256371776Y-112057243D01*
X256332908Y-112030936D01*
X256154513Y-111852541D01*
X256151615Y-111850868D01*
X256151616Y-111850868D01*
X256151610Y-111850865D01*
X256085991Y-111812980D01*
X256085990Y-111812979D01*
X256060513Y-111806152D01*
X256009562Y-111792500D01*
X252430438Y-111792500D01*
X252392224Y-111802739D01*
X252354009Y-111812979D01*
X252354008Y-111812980D01*
X252312407Y-111836998D01*
X252288390Y-111850865D01*
X252288385Y-111850868D01*
X252285486Y-111852541D01*
X252107091Y-112030936D01*
X252045768Y-112064421D01*
X251976076Y-112059437D01*
X251920143Y-112017565D01*
X251899636Y-111975351D01*
X251866281Y-111850865D01*
X251790515Y-111719635D01*
X251683365Y-111612485D01*
X251617750Y-111574602D01*
X251552136Y-111536719D01*
X251478950Y-111517109D01*
X251405766Y-111497500D01*
X251254234Y-111497500D01*
X251107863Y-111536719D01*
X250976635Y-111612485D01*
X250970189Y-111617432D01*
X250968099Y-111614709D01*
X250920217Y-111640466D01*
X250850558Y-111635043D01*
X250794888Y-111592821D01*
X250789299Y-111583976D01*
X250676751Y-111415537D01*
X250676748Y-111415533D01*
X250537466Y-111276251D01*
X250537462Y-111276248D01*
X250373684Y-111166814D01*
X250373671Y-111166807D01*
X250191691Y-111091429D01*
X250191683Y-111091427D01*
X250150000Y-111083135D01*
X250150000Y-111886011D01*
X250140060Y-111868795D01*
X250084205Y-111812940D01*
X250015796Y-111773444D01*
X249939496Y-111753000D01*
X249860504Y-111753000D01*
X249784204Y-111773444D01*
X249715795Y-111812940D01*
X249659940Y-111868795D01*
X249650000Y-111886011D01*
X249650000Y-111083136D01*
X249649999Y-111083135D01*
X249608316Y-111091427D01*
X249608308Y-111091429D01*
X249426328Y-111166807D01*
X249426315Y-111166814D01*
X249262537Y-111276248D01*
X249262533Y-111276251D01*
X249123251Y-111415533D01*
X249123248Y-111415537D01*
X249013814Y-111579315D01*
X249013807Y-111579328D01*
X248938430Y-111761306D01*
X248938427Y-111761318D01*
X248900000Y-111954504D01*
X248900000Y-112353000D01*
X249600000Y-112353000D01*
X249600000Y-112853000D01*
X248900000Y-112853000D01*
X248900000Y-113251495D01*
X248938427Y-113444681D01*
X248938430Y-113444693D01*
X249013807Y-113626671D01*
X249013814Y-113626684D01*
X249123248Y-113790462D01*
X249123251Y-113790466D01*
X249262533Y-113929748D01*
X249262537Y-113929751D01*
X249426315Y-114039185D01*
X249426328Y-114039192D01*
X249608308Y-114114569D01*
X249650000Y-114122862D01*
X249650000Y-113319988D01*
X249659940Y-113337205D01*
X249715795Y-113393060D01*
X249784204Y-113432556D01*
X249860504Y-113453000D01*
X249939496Y-113453000D01*
X250015796Y-113432556D01*
X250084205Y-113393060D01*
X250140060Y-113337205D01*
X250150000Y-113319988D01*
X250150000Y-114137390D01*
X250166894Y-114162193D01*
X250172511Y-114190563D01*
X250172898Y-114195482D01*
X250172900Y-114195495D01*
X250218716Y-114353193D01*
X250218717Y-114353196D01*
X250302314Y-114494552D01*
X250302321Y-114494561D01*
X250418438Y-114610678D01*
X250418447Y-114610685D01*
X250559801Y-114694281D01*
X250717514Y-114740100D01*
X250717511Y-114740100D01*
X250719998Y-114740295D01*
X250720000Y-114740295D01*
X250720000Y-113642000D01*
X250739685Y-113574961D01*
X250792489Y-113529206D01*
X250844000Y-113518000D01*
X251096000Y-113518000D01*
X251163039Y-113537685D01*
X251208794Y-113590489D01*
X251220000Y-113642000D01*
X251220000Y-114740295D01*
X251220001Y-114740295D01*
X251222488Y-114740100D01*
X251222494Y-114740099D01*
X251310904Y-114714414D01*
X251380774Y-114714613D01*
X251439444Y-114752555D01*
X251468287Y-114816194D01*
X251469499Y-114833490D01*
X251469499Y-117309561D01*
X251479738Y-117347774D01*
X251489978Y-117385990D01*
X251489979Y-117385991D01*
X251525072Y-117446773D01*
X251525073Y-117446775D01*
X251529538Y-117454510D01*
X251529540Y-117454512D01*
X252427447Y-118352418D01*
X252460932Y-118413741D01*
X252455948Y-118483432D01*
X252414076Y-118539366D01*
X252348612Y-118563783D01*
X252339766Y-118564099D01*
X251897684Y-118564099D01*
X251848829Y-118570530D01*
X251741596Y-118620534D01*
X251657935Y-118704195D01*
X251642133Y-118738083D01*
X251595960Y-118790521D01*
X251591753Y-118793062D01*
X251589895Y-118794134D01*
X251589887Y-118794140D01*
X251037683Y-119346345D01*
X250976360Y-119379830D01*
X250906668Y-119374846D01*
X250863848Y-119342790D01*
X250862321Y-119344318D01*
X250851697Y-119333694D01*
X250850735Y-119332974D01*
X250850591Y-119332588D01*
X250826002Y-119307999D01*
X250150502Y-119307999D01*
X250083463Y-119288314D01*
X250037708Y-119235510D01*
X250026502Y-119184004D01*
X250026501Y-119158866D01*
X250046183Y-119091826D01*
X250062821Y-119071179D01*
X250076001Y-119057999D01*
X250326002Y-119057999D01*
X250826002Y-119057999D01*
X250826002Y-118796135D01*
X250826001Y-118796121D01*
X250811523Y-118686157D01*
X250811523Y-118686156D01*
X250754845Y-118549323D01*
X250664681Y-118431819D01*
X250547177Y-118341655D01*
X250410343Y-118284977D01*
X250326002Y-118273872D01*
X250326002Y-119057999D01*
X250076001Y-119057999D01*
X250076002Y-119057998D01*
X250076002Y-118273872D01*
X249991661Y-118284977D01*
X249991659Y-118284977D01*
X249854826Y-118341655D01*
X249737320Y-118431821D01*
X249663069Y-118528586D01*
X249641443Y-118544376D01*
X249622169Y-118562975D01*
X249610179Y-118567204D01*
X249606641Y-118569788D01*
X249588885Y-118574716D01*
X249533524Y-118585728D01*
X249463933Y-118579501D01*
X249421652Y-118551792D01*
X249029402Y-118159542D01*
X249029395Y-118159536D01*
X249029305Y-118159485D01*
X249029206Y-118159428D01*
X248960881Y-118119980D01*
X248960882Y-118119980D01*
X248951849Y-118117559D01*
X248884451Y-118099500D01*
X248176572Y-118099500D01*
X248139252Y-118109500D01*
X248100143Y-118119979D01*
X248079070Y-118132146D01*
X248031715Y-118159487D01*
X248031623Y-118159540D01*
X248026181Y-118164981D01*
X247984569Y-118190831D01*
X247964121Y-118196495D01*
X247945496Y-118206666D01*
X247919138Y-118209500D01*
X247654000Y-118209500D01*
X247586961Y-118189815D01*
X247541206Y-118137011D01*
X247530000Y-118085500D01*
X247530000Y-117095494D01*
X248030000Y-117095494D01*
X248030000Y-117650000D01*
X248558790Y-117650000D01*
X248557145Y-117629089D01*
X248512031Y-117473804D01*
X248429721Y-117334625D01*
X248429714Y-117334616D01*
X248315383Y-117220285D01*
X248315374Y-117220278D01*
X248176193Y-117137967D01*
X248176190Y-117137965D01*
X248030001Y-117095493D01*
X248030000Y-117095494D01*
X247530000Y-117095494D01*
X247529998Y-117095493D01*
X247383809Y-117137965D01*
X247383806Y-117137967D01*
X247244625Y-117220278D01*
X247244620Y-117220282D01*
X247130282Y-117334621D01*
X247125499Y-117340788D01*
X247123544Y-117339272D01*
X247081362Y-117378644D01*
X247012618Y-117391135D01*
X247009537Y-117390768D01*
X246999904Y-117389500D01*
X246640105Y-117389500D01*
X246627686Y-117391135D01*
X246590513Y-117396028D01*
X246590511Y-117396029D01*
X246590509Y-117396029D01*
X246481683Y-117446776D01*
X246396775Y-117531684D01*
X246390553Y-117540571D01*
X246388594Y-117539199D01*
X246352360Y-117580348D01*
X246286156Y-117599500D01*
X245960438Y-117599500D01*
X245922224Y-117609739D01*
X245884009Y-117619979D01*
X245884004Y-117619982D01*
X245815495Y-117659535D01*
X245815487Y-117659541D01*
X244762181Y-118712848D01*
X244700858Y-118746333D01*
X244631166Y-118741349D01*
X244575233Y-118699477D01*
X244550816Y-118634013D01*
X244550500Y-118625167D01*
X244550500Y-118290249D01*
X244550499Y-118290247D01*
X244538868Y-118231770D01*
X244538867Y-118231769D01*
X244494552Y-118165447D01*
X244428230Y-118121132D01*
X244428229Y-118121131D01*
X244369752Y-118109500D01*
X244369748Y-118109500D01*
X242630252Y-118109500D01*
X242630247Y-118109500D01*
X242571770Y-118121131D01*
X242571769Y-118121132D01*
X242505447Y-118165447D01*
X242461132Y-118231769D01*
X242461131Y-118231770D01*
X242449500Y-118290247D01*
X242449500Y-120029752D01*
X242461131Y-120088229D01*
X242461132Y-120088230D01*
X242505447Y-120154552D01*
X242571769Y-120198867D01*
X242571770Y-120198868D01*
X242630247Y-120210499D01*
X242630250Y-120210500D01*
X242933952Y-120210500D01*
X243000991Y-120230185D01*
X243046746Y-120282989D01*
X243056690Y-120352147D01*
X243027665Y-120415703D01*
X242985735Y-120445938D01*
X242986121Y-120446694D01*
X242792439Y-120545380D01*
X242738282Y-120584727D01*
X242738282Y-120584728D01*
X243370591Y-121217037D01*
X243307007Y-121234075D01*
X243192993Y-121299901D01*
X243099901Y-121392993D01*
X243034075Y-121507007D01*
X243017037Y-121570591D01*
X242384728Y-120938282D01*
X242384727Y-120938282D01*
X242345380Y-120992439D01*
X242248904Y-121181782D01*
X242183242Y-121383869D01*
X242183242Y-121383872D01*
X242150000Y-121593753D01*
X242150000Y-121806246D01*
X242183242Y-122016127D01*
X242183242Y-122016130D01*
X242248904Y-122218217D01*
X242345375Y-122407550D01*
X242384728Y-122461716D01*
X243017037Y-121829408D01*
X243034075Y-121892993D01*
X243099901Y-122007007D01*
X243192993Y-122100099D01*
X243307007Y-122165925D01*
X243370590Y-122182962D01*
X242738282Y-122815269D01*
X242738282Y-122815270D01*
X242792449Y-122854624D01*
X242981782Y-122951095D01*
X243183870Y-123016757D01*
X243393754Y-123050000D01*
X243606246Y-123050000D01*
X243816127Y-123016757D01*
X243816130Y-123016757D01*
X244018217Y-122951095D01*
X244207554Y-122854622D01*
X244261716Y-122815270D01*
X244261717Y-122815270D01*
X243629408Y-122182962D01*
X243692993Y-122165925D01*
X243807007Y-122100099D01*
X243900099Y-122007007D01*
X243965925Y-121892993D01*
X243982962Y-121829409D01*
X244615270Y-122461717D01*
X244615270Y-122461716D01*
X244654622Y-122407554D01*
X244751095Y-122218217D01*
X244816757Y-122016130D01*
X244816757Y-122016127D01*
X244850000Y-121806246D01*
X244850000Y-121593753D01*
X244816757Y-121383872D01*
X244816757Y-121383869D01*
X244751095Y-121181782D01*
X244654624Y-120992449D01*
X244615270Y-120938282D01*
X244615269Y-120938282D01*
X243982962Y-121570590D01*
X243965925Y-121507007D01*
X243900099Y-121392993D01*
X243807007Y-121299901D01*
X243692993Y-121234075D01*
X243629409Y-121217037D01*
X244261716Y-120584728D01*
X244207550Y-120545375D01*
X244013879Y-120446694D01*
X244014396Y-120445678D01*
X243964192Y-120405221D01*
X243942127Y-120338927D01*
X243959406Y-120271228D01*
X244010542Y-120223617D01*
X244066048Y-120210500D01*
X244369750Y-120210500D01*
X244369751Y-120210499D01*
X244384568Y-120207552D01*
X244428229Y-120198868D01*
X244428229Y-120198867D01*
X244428231Y-120198867D01*
X244494552Y-120154552D01*
X244538867Y-120088231D01*
X244538867Y-120088229D01*
X244538868Y-120088229D01*
X244550499Y-120029752D01*
X244550500Y-120029750D01*
X244550500Y-119584500D01*
X244570185Y-119517461D01*
X244622989Y-119471706D01*
X244674500Y-119460500D01*
X244779560Y-119460500D01*
X244779562Y-119460500D01*
X244855989Y-119440021D01*
X244924511Y-119400460D01*
X244980460Y-119344511D01*
X246088152Y-118236819D01*
X246115079Y-118222115D01*
X246140898Y-118205523D01*
X246147098Y-118204631D01*
X246149475Y-118203334D01*
X246175833Y-118200500D01*
X246286156Y-118200500D01*
X246353195Y-118220185D01*
X246388643Y-118260765D01*
X246390553Y-118259429D01*
X246396775Y-118268315D01*
X246396776Y-118268316D01*
X246481684Y-118353224D01*
X246590513Y-118403972D01*
X246640099Y-118410500D01*
X246854165Y-118410499D01*
X246921205Y-118430183D01*
X246941847Y-118446818D01*
X247189540Y-118694511D01*
X247245489Y-118750460D01*
X247245491Y-118750461D01*
X247245495Y-118750464D01*
X247314004Y-118790017D01*
X247314011Y-118790021D01*
X247390438Y-118810500D01*
X247390440Y-118810500D01*
X247952002Y-118810500D01*
X247977535Y-118817997D01*
X248003867Y-118821868D01*
X248010543Y-118827689D01*
X248019041Y-118830185D01*
X248036466Y-118850295D01*
X248056527Y-118867788D01*
X248059017Y-118876320D01*
X248064796Y-118882989D01*
X248068514Y-118908852D01*
X248076002Y-118934500D01*
X248076002Y-119057999D01*
X248751502Y-119057999D01*
X248760157Y-119060540D01*
X248769088Y-119059252D01*
X248793163Y-119070232D01*
X248818541Y-119077684D01*
X248824447Y-119084500D01*
X248832658Y-119088245D01*
X248846975Y-119110498D01*
X248864296Y-119130488D01*
X248866578Y-119140969D01*
X248870462Y-119147005D01*
X248875502Y-119181937D01*
X248875502Y-119183938D01*
X248855852Y-119250986D01*
X248803071Y-119296768D01*
X248751503Y-119307999D01*
X248076002Y-119307999D01*
X248039683Y-119344318D01*
X248037433Y-119342068D01*
X248003513Y-119371461D01*
X247934355Y-119381405D01*
X247870799Y-119352380D01*
X247864321Y-119346348D01*
X247746513Y-119228540D01*
X247746505Y-119228534D01*
X247702642Y-119203210D01*
X247702640Y-119203210D01*
X247677990Y-119188978D01*
X247651713Y-119181937D01*
X247601563Y-119168499D01*
X247601561Y-119168499D01*
X247279603Y-119168499D01*
X247212564Y-119148814D01*
X247191922Y-119132180D01*
X247156317Y-119096575D01*
X247099824Y-119070232D01*
X247047488Y-119045827D01*
X247047486Y-119045826D01*
X247047487Y-119045826D01*
X246997902Y-119039299D01*
X246578106Y-119039299D01*
X246562387Y-119041368D01*
X246528514Y-119045827D01*
X246528512Y-119045828D01*
X246528510Y-119045828D01*
X246419683Y-119096575D01*
X246380580Y-119135678D01*
X246319257Y-119169162D01*
X246249565Y-119164176D01*
X246230901Y-119155382D01*
X246193189Y-119133609D01*
X246193186Y-119133608D01*
X246065892Y-119099500D01*
X245934108Y-119099500D01*
X245806812Y-119133608D01*
X245692686Y-119199500D01*
X245692683Y-119199502D01*
X245599502Y-119292683D01*
X245599500Y-119292686D01*
X245533608Y-119406812D01*
X245499500Y-119534108D01*
X245499500Y-119665891D01*
X245533608Y-119793187D01*
X245546666Y-119815803D01*
X245599500Y-119907314D01*
X245692686Y-120000500D01*
X245806814Y-120066392D01*
X245892470Y-120089343D01*
X245952131Y-120125708D01*
X245982660Y-120188555D01*
X245980494Y-120225801D01*
X245983496Y-120229799D01*
X247635939Y-120229799D01*
X247650258Y-120234003D01*
X247665169Y-120233293D01*
X247684161Y-120243958D01*
X247702978Y-120249484D01*
X247711487Y-120259304D01*
X247723620Y-120266118D01*
X247728001Y-120270499D01*
X247864502Y-120270499D01*
X247931541Y-120290184D01*
X247977296Y-120342988D01*
X247988502Y-120394499D01*
X247988502Y-120396499D01*
X247968817Y-120463538D01*
X247916013Y-120509293D01*
X247864502Y-120520499D01*
X247728000Y-120520499D01*
X247714818Y-120533681D01*
X247690382Y-120547023D01*
X247667698Y-120563178D01*
X247660136Y-120563538D01*
X247653495Y-120567165D01*
X247627144Y-120569999D01*
X247612604Y-120569999D01*
X247566508Y-120579168D01*
X247535885Y-120585259D01*
X247535884Y-120585259D01*
X247535881Y-120585260D01*
X247535153Y-120585562D01*
X247487705Y-120594999D01*
X247449589Y-120594999D01*
X247373161Y-120615477D01*
X247304640Y-120655039D01*
X247304637Y-120655041D01*
X247266199Y-120693480D01*
X247204876Y-120726965D01*
X247178518Y-120729799D01*
X245983497Y-120729799D01*
X246025969Y-120875994D01*
X246108279Y-121015173D01*
X246108286Y-121015182D01*
X246222617Y-121129513D01*
X246222626Y-121129520D01*
X246361805Y-121211830D01*
X246459592Y-121240239D01*
X246518478Y-121277845D01*
X246547685Y-121341317D01*
X246537940Y-121410504D01*
X246512679Y-121446997D01*
X245870492Y-122089185D01*
X245814907Y-122121278D01*
X245768895Y-122133607D01*
X245654767Y-122199500D01*
X245654764Y-122199502D01*
X245561583Y-122292683D01*
X245561581Y-122292686D01*
X245495689Y-122406812D01*
X245470315Y-122501512D01*
X245461581Y-122534108D01*
X245461581Y-122665892D01*
X245463200Y-122671935D01*
X245495689Y-122793187D01*
X245522646Y-122839878D01*
X245539118Y-122907778D01*
X245516265Y-122973805D01*
X245513635Y-122977362D01*
X245504693Y-122989014D01*
X245504693Y-122989015D01*
X245464227Y-123100196D01*
X245464227Y-123218512D01*
X245504692Y-123329692D01*
X245504693Y-123329693D01*
X245534692Y-123368788D01*
X245534694Y-123368790D01*
X245534698Y-123368795D01*
X245781204Y-123615301D01*
X245781208Y-123615304D01*
X245781212Y-123615308D01*
X245820307Y-123645307D01*
X245931488Y-123685773D01*
X245931490Y-123685773D01*
X246060651Y-123685773D01*
X246060651Y-123689779D01*
X246109483Y-123695193D01*
X246163741Y-123739214D01*
X246185586Y-123805581D01*
X246185230Y-123810597D01*
X246185475Y-123810597D01*
X246185475Y-123939760D01*
X246225940Y-124050940D01*
X246225941Y-124050941D01*
X246255940Y-124090036D01*
X246255942Y-124090038D01*
X246255946Y-124090043D01*
X246502452Y-124336549D01*
X246502456Y-124336552D01*
X246502460Y-124336556D01*
X246541555Y-124366555D01*
X246652736Y-124407021D01*
X246652738Y-124407021D01*
X246771049Y-124407021D01*
X246771051Y-124407021D01*
X246882232Y-124366555D01*
X246921327Y-124336556D01*
X246921334Y-124336549D01*
X246921336Y-124336548D01*
X247238550Y-124019334D01*
X247238551Y-124019332D01*
X247238558Y-124019325D01*
X247268557Y-123980230D01*
X247309023Y-123869049D01*
X247309023Y-123800557D01*
X247317667Y-123771116D01*
X247324191Y-123741130D01*
X247327945Y-123736114D01*
X247328708Y-123733518D01*
X247345342Y-123712876D01*
X247356502Y-123701716D01*
X247417825Y-123668231D01*
X247444183Y-123665397D01*
X247553424Y-123665397D01*
X247553426Y-123665397D01*
X247664607Y-123624931D01*
X247703702Y-123594932D01*
X247858192Y-123440440D01*
X247919514Y-123406957D01*
X247945872Y-123404123D01*
X248442290Y-123404123D01*
X248509329Y-123423808D01*
X248555084Y-123476612D01*
X248565028Y-123545770D01*
X248561129Y-123560423D01*
X248561751Y-123560583D01*
X248519598Y-123724757D01*
X248519598Y-123886468D01*
X248559812Y-124043088D01*
X248559812Y-124043089D01*
X248633151Y-124176492D01*
X249114342Y-123695302D01*
X249175665Y-123661817D01*
X249245356Y-123666801D01*
X249289704Y-123695302D01*
X249467896Y-123873494D01*
X249501381Y-123934817D01*
X249496397Y-124004509D01*
X249467896Y-124048856D01*
X248986705Y-124530046D01*
X249120113Y-124603388D01*
X249276731Y-124643601D01*
X249276737Y-124643602D01*
X249438436Y-124643602D01*
X249446176Y-124642624D01*
X249446487Y-124645086D01*
X249504099Y-124647044D01*
X249561560Y-124686792D01*
X249563518Y-124689278D01*
X249569430Y-124696983D01*
X249569440Y-124696994D01*
X249823852Y-124951405D01*
X249823861Y-124951413D01*
X249835026Y-124959980D01*
X249863533Y-124981855D01*
X249976371Y-125022924D01*
X249976373Y-125022924D01*
X250096447Y-125022924D01*
X250096449Y-125022924D01*
X250209287Y-124981855D01*
X250248965Y-124951408D01*
X250400333Y-124800038D01*
X250461655Y-124766555D01*
X250488013Y-124763721D01*
X251076339Y-124763721D01*
X251076341Y-124763721D01*
X251152768Y-124743242D01*
X251221290Y-124703681D01*
X251277239Y-124647732D01*
X252490460Y-123434511D01*
X252530022Y-123365988D01*
X252550500Y-123289562D01*
X252550500Y-123210438D01*
X252550500Y-122279936D01*
X252550500Y-121802886D01*
X252570185Y-121735847D01*
X252586814Y-121715210D01*
X253604710Y-120697313D01*
X253666031Y-120663830D01*
X253735723Y-120668814D01*
X253791656Y-120710686D01*
X253805823Y-120734909D01*
X253845789Y-120825422D01*
X253931703Y-120911336D01*
X253929909Y-120913129D01*
X253963757Y-120954588D01*
X253967403Y-120964365D01*
X253973500Y-120983083D01*
X253973500Y-121021972D01*
X253993979Y-121098399D01*
X254026680Y-121155039D01*
X254033173Y-121166285D01*
X254033541Y-121166922D01*
X254474680Y-121608061D01*
X254489383Y-121634988D01*
X254505976Y-121660807D01*
X254506867Y-121667007D01*
X254508165Y-121669384D01*
X254510999Y-121695742D01*
X254510999Y-121814480D01*
X254491314Y-121881519D01*
X254474680Y-121902161D01*
X254099561Y-122277279D01*
X254099555Y-122277287D01*
X254060002Y-122345796D01*
X254059999Y-122345801D01*
X254047437Y-122392683D01*
X254039520Y-122422230D01*
X254039520Y-124488016D01*
X254050782Y-124530046D01*
X254059999Y-124564443D01*
X254068523Y-124579206D01*
X254068524Y-124579210D01*
X254099555Y-124632958D01*
X254099561Y-124632966D01*
X254474680Y-125008085D01*
X254508165Y-125069408D01*
X254510999Y-125095766D01*
X254510999Y-130702669D01*
X254491314Y-130769708D01*
X254474680Y-130790350D01*
X254161848Y-131103182D01*
X254100525Y-131136667D01*
X254074167Y-131139501D01*
X253855683Y-131139501D01*
X253806827Y-131145932D01*
X253806826Y-131145933D01*
X253706904Y-131192527D01*
X253637827Y-131203019D01*
X253574043Y-131174499D01*
X253535804Y-131116022D01*
X253530500Y-131080145D01*
X253530500Y-128403629D01*
X253550185Y-128336590D01*
X253585607Y-128300528D01*
X253594552Y-128294552D01*
X253638867Y-128228231D01*
X253638867Y-128228229D01*
X253638868Y-128228229D01*
X253647837Y-128183138D01*
X253650500Y-128169748D01*
X253650500Y-126430252D01*
X253650500Y-126430249D01*
X253650499Y-126430247D01*
X253638868Y-126371770D01*
X253638867Y-126371769D01*
X253594552Y-126305447D01*
X253528230Y-126261132D01*
X253528229Y-126261131D01*
X253469752Y-126249500D01*
X253469748Y-126249500D01*
X251730252Y-126249500D01*
X251730247Y-126249500D01*
X251671770Y-126261131D01*
X251671769Y-126261132D01*
X251605447Y-126305447D01*
X251561132Y-126371769D01*
X251561131Y-126371770D01*
X251549500Y-126430247D01*
X251549500Y-127865167D01*
X251529815Y-127932206D01*
X251477011Y-127977961D01*
X251407853Y-127987905D01*
X251344297Y-127958880D01*
X251337819Y-127952848D01*
X251103933Y-127718962D01*
X251070448Y-127657639D01*
X251069997Y-127607090D01*
X251090602Y-127503501D01*
X251110500Y-127403465D01*
X251110500Y-127196535D01*
X251070130Y-126993580D01*
X250990941Y-126802402D01*
X250875977Y-126630345D01*
X250875975Y-126630342D01*
X250729657Y-126484024D01*
X250596833Y-126395275D01*
X250557598Y-126369059D01*
X250547306Y-126364796D01*
X250366420Y-126289870D01*
X250366412Y-126289868D01*
X250163469Y-126249500D01*
X250163465Y-126249500D01*
X249956535Y-126249500D01*
X249956530Y-126249500D01*
X249753587Y-126289868D01*
X249753579Y-126289870D01*
X249562403Y-126369058D01*
X249390342Y-126484024D01*
X249244024Y-126630342D01*
X249129058Y-126802403D01*
X249049870Y-126993579D01*
X249049868Y-126993587D01*
X249009500Y-127196530D01*
X249009500Y-127403469D01*
X249049868Y-127606412D01*
X249049870Y-127606420D01*
X249128396Y-127795999D01*
X249129059Y-127797598D01*
X249172160Y-127862104D01*
X249244024Y-127969657D01*
X249390342Y-128115975D01*
X249390345Y-128115977D01*
X249562402Y-128230941D01*
X249753580Y-128310130D01*
X249956530Y-128350499D01*
X249956534Y-128350500D01*
X249956535Y-128350500D01*
X250163466Y-128350500D01*
X250163467Y-128350499D01*
X250366420Y-128310130D01*
X250557598Y-128230941D01*
X250557603Y-128230937D01*
X250557606Y-128230936D01*
X250597893Y-128204017D01*
X250664570Y-128183138D01*
X250731951Y-128201622D01*
X250754466Y-128219437D01*
X252493180Y-129958151D01*
X252526665Y-130019474D01*
X252529499Y-130045832D01*
X252529499Y-131385165D01*
X252509814Y-131452204D01*
X252457010Y-131497959D01*
X252387852Y-131507903D01*
X252324296Y-131478878D01*
X252317818Y-131472846D01*
X248563934Y-127718962D01*
X248530449Y-127657639D01*
X248529998Y-127607090D01*
X248550603Y-127503501D01*
X248570501Y-127403465D01*
X248570501Y-127196535D01*
X248530131Y-126993580D01*
X248450942Y-126802402D01*
X248335978Y-126630345D01*
X248335976Y-126630342D01*
X248189658Y-126484024D01*
X248056834Y-126395275D01*
X248017599Y-126369059D01*
X248007307Y-126364796D01*
X247826421Y-126289870D01*
X247826413Y-126289868D01*
X247623470Y-126249500D01*
X247623466Y-126249500D01*
X247416536Y-126249500D01*
X247416531Y-126249500D01*
X247213588Y-126289868D01*
X247213580Y-126289870D01*
X247022404Y-126369058D01*
X246850343Y-126484024D01*
X246704025Y-126630342D01*
X246589059Y-126802403D01*
X246509871Y-126993579D01*
X246509869Y-126993587D01*
X246469501Y-127196530D01*
X246469501Y-127403469D01*
X246509869Y-127606412D01*
X246509872Y-127606424D01*
X246512257Y-127612181D01*
X246519726Y-127681650D01*
X246488451Y-127744129D01*
X246428361Y-127779781D01*
X246358536Y-127777287D01*
X246310015Y-127747314D01*
X246066202Y-127503501D01*
X246032717Y-127442178D01*
X246030822Y-127409557D01*
X246030500Y-127409557D01*
X246030500Y-127404007D01*
X246030480Y-127403663D01*
X246030499Y-127403468D01*
X246030500Y-127403465D01*
X246030500Y-127196535D01*
X245990130Y-126993580D01*
X245910941Y-126802402D01*
X245795977Y-126630345D01*
X245795975Y-126630342D01*
X245649657Y-126484024D01*
X245516833Y-126395275D01*
X245477598Y-126369059D01*
X245467306Y-126364796D01*
X245286420Y-126289870D01*
X245286412Y-126289868D01*
X245083469Y-126249500D01*
X245083465Y-126249500D01*
X244876535Y-126249500D01*
X244876530Y-126249500D01*
X244673587Y-126289868D01*
X244673579Y-126289870D01*
X244482403Y-126369058D01*
X244310342Y-126484024D01*
X244164024Y-126630342D01*
X244049058Y-126802403D01*
X243969870Y-126993579D01*
X243969868Y-126993587D01*
X243929500Y-127196530D01*
X243929500Y-127403469D01*
X243969868Y-127606412D01*
X243969870Y-127606420D01*
X244049059Y-127797599D01*
X244049059Y-127797600D01*
X244155306Y-127956610D01*
X244176184Y-128023287D01*
X244157699Y-128090667D01*
X244105720Y-128137357D01*
X244052204Y-128149500D01*
X243765833Y-128149500D01*
X243698794Y-128129815D01*
X243678152Y-128113181D01*
X243427075Y-127862104D01*
X243393590Y-127800781D01*
X243398574Y-127731089D01*
X243400163Y-127727049D01*
X243450130Y-127606420D01*
X243490500Y-127403465D01*
X243490500Y-127196535D01*
X243450130Y-126993580D01*
X243370941Y-126802402D01*
X243255977Y-126630345D01*
X243255975Y-126630342D01*
X243109657Y-126484024D01*
X242976833Y-126395275D01*
X242937598Y-126369059D01*
X242927306Y-126364796D01*
X242746420Y-126289870D01*
X242746412Y-126289868D01*
X242543469Y-126249500D01*
X242543465Y-126249500D01*
X242336535Y-126249500D01*
X242336530Y-126249500D01*
X242133587Y-126289868D01*
X242133579Y-126289870D01*
X241942403Y-126369058D01*
X241770342Y-126484024D01*
X241624024Y-126630342D01*
X241509058Y-126802403D01*
X241429870Y-126993579D01*
X241429868Y-126993587D01*
X241389500Y-127196530D01*
X241389500Y-127403469D01*
X241429868Y-127606412D01*
X241429870Y-127606420D01*
X241508396Y-127795999D01*
X241509059Y-127797598D01*
X241552160Y-127862104D01*
X241624024Y-127969657D01*
X241770342Y-128115975D01*
X241770345Y-128115977D01*
X241942402Y-128230941D01*
X242133580Y-128310130D01*
X242133581Y-128310130D01*
X242135534Y-128310939D01*
X242189937Y-128354780D01*
X242212002Y-128421074D01*
X242194723Y-128488773D01*
X242143586Y-128536384D01*
X242088081Y-128549500D01*
X241625833Y-128549500D01*
X241558794Y-128529815D01*
X241538152Y-128513181D01*
X240887075Y-127862104D01*
X240853590Y-127800781D01*
X240858574Y-127731089D01*
X240860163Y-127727049D01*
X240910130Y-127606420D01*
X240950500Y-127403465D01*
X240950500Y-127196535D01*
X240910130Y-126993580D01*
X240830941Y-126802402D01*
X240715977Y-126630345D01*
X240715975Y-126630342D01*
X240569657Y-126484024D01*
X240436833Y-126395275D01*
X240397598Y-126369059D01*
X240387306Y-126364796D01*
X240206420Y-126289870D01*
X240206412Y-126289868D01*
X240003469Y-126249500D01*
X240003465Y-126249500D01*
X239796535Y-126249500D01*
X239796530Y-126249500D01*
X239593587Y-126289868D01*
X239593579Y-126289870D01*
X239402403Y-126369058D01*
X239230342Y-126484024D01*
X239084024Y-126630342D01*
X238969058Y-126802403D01*
X238889870Y-126993579D01*
X238889868Y-126993587D01*
X238849500Y-127196530D01*
X238849500Y-127403469D01*
X238889868Y-127606412D01*
X238889870Y-127606420D01*
X238968396Y-127795999D01*
X238969059Y-127797598D01*
X239012160Y-127862104D01*
X239084024Y-127969657D01*
X239230342Y-128115975D01*
X239230345Y-128115977D01*
X239402402Y-128230941D01*
X239593580Y-128310130D01*
X239796530Y-128350499D01*
X239796534Y-128350500D01*
X239796535Y-128350500D01*
X240003466Y-128350500D01*
X240003467Y-128350499D01*
X240206420Y-128310130D01*
X240326974Y-128260194D01*
X240396438Y-128252726D01*
X240458918Y-128284000D01*
X240462104Y-128287075D01*
X241209540Y-129034511D01*
X241265489Y-129090460D01*
X241265491Y-129090461D01*
X241265495Y-129090464D01*
X241307995Y-129115001D01*
X241334011Y-129130021D01*
X241410438Y-129150500D01*
X241489562Y-129150500D01*
X245680528Y-129150500D01*
X245747567Y-129170185D01*
X245768209Y-129186819D01*
X250489209Y-133907819D01*
X250522694Y-133969142D01*
X250517710Y-134038834D01*
X250475838Y-134094767D01*
X250420086Y-134118103D01*
X250410857Y-134119500D01*
X250355326Y-134119500D01*
X250282260Y-134134034D01*
X250272717Y-134140410D01*
X250248558Y-134144067D01*
X250228307Y-134141308D01*
X250207983Y-134143494D01*
X250182548Y-134136025D01*
X250177740Y-134134033D01*
X250104676Y-134119500D01*
X250104674Y-134119500D01*
X249955326Y-134119500D01*
X249955324Y-134119500D01*
X249882261Y-134134033D01*
X249877450Y-134136026D01*
X249807980Y-134143492D01*
X249782551Y-134136025D01*
X249777740Y-134134032D01*
X249704676Y-134119499D01*
X249704674Y-134119499D01*
X249555326Y-134119499D01*
X249555324Y-134119499D01*
X249482259Y-134134032D01*
X249477449Y-134136025D01*
X249407979Y-134143492D01*
X249382550Y-134136026D01*
X249377738Y-134134033D01*
X249304676Y-134119500D01*
X249304674Y-134119500D01*
X249155326Y-134119500D01*
X249155323Y-134119500D01*
X249082264Y-134134032D01*
X249082260Y-134134033D01*
X248999399Y-134189399D01*
X248944033Y-134272260D01*
X248944032Y-134272264D01*
X248929500Y-134345321D01*
X248929500Y-134995500D01*
X248909815Y-135062539D01*
X248857011Y-135108294D01*
X248805500Y-135119500D01*
X247835833Y-135119500D01*
X247806392Y-135110855D01*
X247776406Y-135104332D01*
X247771390Y-135100577D01*
X247768794Y-135099815D01*
X247748152Y-135083181D01*
X247746818Y-135081847D01*
X247713333Y-135020524D01*
X247710499Y-134994166D01*
X247710499Y-134780105D01*
X247710499Y-134780100D01*
X247709230Y-134770463D01*
X247719994Y-134701433D01*
X247760350Y-134655962D01*
X247759215Y-134654499D01*
X247765383Y-134649714D01*
X247879714Y-134535383D01*
X247879721Y-134535374D01*
X247962031Y-134396195D01*
X248004504Y-134250000D01*
X244195496Y-134250000D01*
X244231377Y-134373507D01*
X244231177Y-134443376D01*
X244193234Y-134502046D01*
X244129596Y-134530889D01*
X244060466Y-134520747D01*
X244024619Y-134495782D01*
X243278837Y-133750000D01*
X244195496Y-133750000D01*
X244750000Y-133750000D01*
X244750000Y-133221210D01*
X244749999Y-133221209D01*
X245250000Y-133221209D01*
X245250000Y-133750000D01*
X245916002Y-133750000D01*
X245916002Y-133221210D01*
X245916001Y-133221209D01*
X246416002Y-133221209D01*
X246416002Y-133750000D01*
X246950000Y-133750000D01*
X247450000Y-133750000D01*
X248004504Y-133750000D01*
X247962031Y-133603804D01*
X247879721Y-133464625D01*
X247879714Y-133464616D01*
X247765383Y-133350285D01*
X247765374Y-133350278D01*
X247626195Y-133267968D01*
X247626190Y-133267966D01*
X247470918Y-133222855D01*
X247470912Y-133222854D01*
X247450000Y-133221209D01*
X247450000Y-133750000D01*
X246950000Y-133750000D01*
X246950000Y-133221210D01*
X246949999Y-133221209D01*
X246929087Y-133222854D01*
X246929081Y-133222855D01*
X246773809Y-133267966D01*
X246773801Y-133267969D01*
X246746120Y-133284340D01*
X246678396Y-133301521D01*
X246619882Y-133284340D01*
X246592200Y-133267969D01*
X246592192Y-133267966D01*
X246436920Y-133222855D01*
X246436914Y-133222854D01*
X246416002Y-133221209D01*
X245916001Y-133221209D01*
X245895089Y-133222854D01*
X245895083Y-133222855D01*
X245739811Y-133267966D01*
X245739806Y-133267968D01*
X245646122Y-133323373D01*
X245578398Y-133340556D01*
X245519880Y-133323373D01*
X245426195Y-133267968D01*
X245426190Y-133267966D01*
X245270918Y-133222855D01*
X245270912Y-133222854D01*
X245250000Y-133221209D01*
X244749999Y-133221209D01*
X244729087Y-133222854D01*
X244729081Y-133222855D01*
X244573809Y-133267966D01*
X244573804Y-133267968D01*
X244434625Y-133350278D01*
X244434616Y-133350285D01*
X244320285Y-133464616D01*
X244320278Y-133464625D01*
X244237968Y-133603804D01*
X244195496Y-133750000D01*
X243278837Y-133750000D01*
X241395915Y-131867078D01*
X241362430Y-131805755D01*
X241367414Y-131736063D01*
X241395914Y-131691717D01*
X241404777Y-131682855D01*
X241519741Y-131510798D01*
X241598930Y-131319620D01*
X241639300Y-131116665D01*
X241639300Y-130909735D01*
X241598930Y-130706780D01*
X241519741Y-130515602D01*
X241404777Y-130343545D01*
X241404775Y-130343542D01*
X241258457Y-130197224D01*
X241158218Y-130130247D01*
X241086398Y-130082259D01*
X241061075Y-130071770D01*
X240895220Y-130003070D01*
X240895212Y-130003068D01*
X240692269Y-129962700D01*
X240692265Y-129962700D01*
X240485335Y-129962700D01*
X240485330Y-129962700D01*
X240282387Y-130003068D01*
X240282379Y-130003070D01*
X240091203Y-130082258D01*
X239919142Y-130197224D01*
X239772824Y-130343542D01*
X239657858Y-130515603D01*
X239578670Y-130706779D01*
X239578668Y-130706787D01*
X239538300Y-130909730D01*
X239538300Y-131116669D01*
X239578668Y-131319612D01*
X239578670Y-131319620D01*
X239626745Y-131435684D01*
X239657859Y-131510798D01*
X239700201Y-131574167D01*
X239772824Y-131682857D01*
X239919142Y-131829175D01*
X239919145Y-131829177D01*
X240091202Y-131944141D01*
X240282380Y-132023330D01*
X240485330Y-132063699D01*
X240485334Y-132063700D01*
X240691233Y-132063700D01*
X240758272Y-132083385D01*
X240778914Y-132100019D01*
X241014198Y-132335303D01*
X241047683Y-132396626D01*
X241042699Y-132466318D01*
X241000827Y-132522251D01*
X240935363Y-132546668D01*
X240901470Y-132542872D01*
X240901195Y-132544258D01*
X240692269Y-132502700D01*
X240692265Y-132502700D01*
X240485335Y-132502700D01*
X240485330Y-132502700D01*
X240282387Y-132543068D01*
X240282379Y-132543070D01*
X240091203Y-132622258D01*
X239919142Y-132737224D01*
X239772824Y-132883542D01*
X239657858Y-133055603D01*
X239578670Y-133246779D01*
X239578668Y-133246787D01*
X239538300Y-133449730D01*
X239538300Y-133656669D01*
X239578668Y-133859612D01*
X239578670Y-133859620D01*
X239652390Y-134037596D01*
X239657859Y-134050798D01*
X239702872Y-134118165D01*
X239772824Y-134222857D01*
X239919142Y-134369175D01*
X239919145Y-134369177D01*
X240091202Y-134484141D01*
X240282380Y-134563330D01*
X240418969Y-134590499D01*
X240485330Y-134603699D01*
X240485334Y-134603700D01*
X240485335Y-134603700D01*
X240692266Y-134603700D01*
X240692267Y-134603699D01*
X240895220Y-134563330D01*
X241015774Y-134513394D01*
X241085238Y-134505926D01*
X241147718Y-134537200D01*
X241150904Y-134540275D01*
X242768448Y-136157819D01*
X242801933Y-136219142D01*
X242796949Y-136288834D01*
X242755077Y-136344767D01*
X242689613Y-136369184D01*
X242680767Y-136369500D01*
X241756015Y-136369500D01*
X241688976Y-136349815D01*
X241643221Y-136297011D01*
X241633277Y-136227853D01*
X241634398Y-136221308D01*
X241634829Y-136219142D01*
X241639300Y-136196664D01*
X241639300Y-135989734D01*
X241598930Y-135786779D01*
X241519741Y-135595601D01*
X241404777Y-135423544D01*
X241404775Y-135423541D01*
X241258457Y-135277223D01*
X241153382Y-135207015D01*
X241086398Y-135162258D01*
X240895220Y-135083069D01*
X240895212Y-135083067D01*
X240692269Y-135042699D01*
X240692265Y-135042699D01*
X240485335Y-135042699D01*
X240485330Y-135042699D01*
X240282387Y-135083067D01*
X240282379Y-135083069D01*
X240091203Y-135162257D01*
X239919142Y-135277223D01*
X239772824Y-135423541D01*
X239657858Y-135595602D01*
X239578670Y-135786778D01*
X239578668Y-135786786D01*
X239538300Y-135989729D01*
X239538300Y-136196668D01*
X239578668Y-136399611D01*
X239578670Y-136399619D01*
X239657858Y-136590795D01*
X239772824Y-136762856D01*
X239919142Y-136909174D01*
X239919145Y-136909176D01*
X240091202Y-137024140D01*
X240282380Y-137103329D01*
X240482434Y-137143122D01*
X240485330Y-137143698D01*
X240485334Y-137143699D01*
X240485335Y-137143699D01*
X240692266Y-137143699D01*
X240692267Y-137143698D01*
X240895220Y-137103329D01*
X241086398Y-137024140D01*
X241135402Y-136991396D01*
X241202080Y-136970520D01*
X241204292Y-136970500D01*
X241527167Y-136970500D01*
X241594206Y-136990185D01*
X241639961Y-137042989D01*
X241649905Y-137112147D01*
X241620880Y-137175703D01*
X241614848Y-137182181D01*
X241150904Y-137646123D01*
X241089581Y-137679608D01*
X241019889Y-137674624D01*
X241015771Y-137673003D01*
X240895224Y-137623071D01*
X240895212Y-137623068D01*
X240692269Y-137582700D01*
X240692265Y-137582700D01*
X240485335Y-137582700D01*
X240485330Y-137582700D01*
X240282387Y-137623068D01*
X240282379Y-137623070D01*
X240091203Y-137702258D01*
X239919142Y-137817224D01*
X239772824Y-137963542D01*
X239657858Y-138135603D01*
X239578670Y-138326779D01*
X239578668Y-138326787D01*
X239538300Y-138529730D01*
X239538300Y-138736669D01*
X239578668Y-138939612D01*
X239578670Y-138939620D01*
X239652390Y-139117596D01*
X239657859Y-139130798D01*
X239683718Y-139169499D01*
X239772824Y-139302857D01*
X239919142Y-139449175D01*
X239919145Y-139449177D01*
X240091202Y-139564141D01*
X240282380Y-139643330D01*
X240418969Y-139670499D01*
X240485330Y-139683699D01*
X240485334Y-139683700D01*
X240485335Y-139683700D01*
X240692266Y-139683700D01*
X240692267Y-139683699D01*
X240895220Y-139643330D01*
X241086398Y-139564141D01*
X241258455Y-139449177D01*
X241404777Y-139302855D01*
X241519741Y-139130798D01*
X241598930Y-138939620D01*
X241639300Y-138736665D01*
X241639300Y-138529735D01*
X241598930Y-138326780D01*
X241548994Y-138206226D01*
X241541526Y-138136759D01*
X241572801Y-138074280D01*
X241575847Y-138071122D01*
X242240151Y-137406819D01*
X242301474Y-137373334D01*
X242327832Y-137370500D01*
X243693385Y-137370500D01*
X243760424Y-137390185D01*
X243806179Y-137442989D01*
X243816123Y-137512147D01*
X243787098Y-137575703D01*
X243755385Y-137601887D01*
X243707492Y-137629537D01*
X243707487Y-137629541D01*
X241150904Y-140186123D01*
X241089581Y-140219608D01*
X241019889Y-140214624D01*
X241015771Y-140213003D01*
X240895224Y-140163071D01*
X240895212Y-140163068D01*
X240692269Y-140122700D01*
X240692265Y-140122700D01*
X240485335Y-140122700D01*
X240485330Y-140122700D01*
X240282387Y-140163068D01*
X240282379Y-140163070D01*
X240091203Y-140242258D01*
X239919142Y-140357224D01*
X239772824Y-140503542D01*
X239657858Y-140675603D01*
X239578670Y-140866779D01*
X239578668Y-140866787D01*
X239538300Y-141069730D01*
X239538300Y-141276669D01*
X239578668Y-141479612D01*
X239578670Y-141479620D01*
X239652390Y-141657596D01*
X239657859Y-141670798D01*
X239692244Y-141722259D01*
X239772824Y-141842857D01*
X239919142Y-141989175D01*
X240091205Y-142104143D01*
X240212610Y-142154430D01*
X240267014Y-142198271D01*
X240289079Y-142264565D01*
X240288300Y-142280928D01*
X240288300Y-142617763D01*
X240268615Y-142684802D01*
X240215811Y-142730557D01*
X240211753Y-142732324D01*
X240091204Y-142782257D01*
X239919142Y-142897224D01*
X239772824Y-143043542D01*
X239657858Y-143215603D01*
X239578670Y-143406779D01*
X239578668Y-143406787D01*
X239538300Y-143609730D01*
X239538300Y-143816669D01*
X239578668Y-144019612D01*
X239578670Y-144019620D01*
X239652390Y-144197596D01*
X239657859Y-144210798D01*
X239680928Y-144245323D01*
X239772824Y-144382857D01*
X239919142Y-144529175D01*
X239919145Y-144529177D01*
X240091202Y-144644141D01*
X240282380Y-144723330D01*
X240418969Y-144750499D01*
X240485330Y-144763699D01*
X240485334Y-144763700D01*
X240485335Y-144763700D01*
X240692266Y-144763700D01*
X240692267Y-144763699D01*
X240895220Y-144723330D01*
X241086398Y-144644141D01*
X241258455Y-144529177D01*
X241404777Y-144382855D01*
X241519741Y-144210798D01*
X241598930Y-144019620D01*
X241639300Y-143816665D01*
X241639300Y-143609735D01*
X241598930Y-143406780D01*
X241519741Y-143215602D01*
X241404777Y-143043545D01*
X241404775Y-143043542D01*
X241258455Y-142897222D01*
X241149812Y-142824630D01*
X241105007Y-142771018D01*
X241096300Y-142701693D01*
X241126454Y-142638666D01*
X241174681Y-142608874D01*
X241173628Y-142606330D01*
X241181124Y-142603223D01*
X241181135Y-142603221D01*
X241249657Y-142563660D01*
X241305606Y-142507711D01*
X241979260Y-141834057D01*
X242018822Y-141765534D01*
X242039300Y-141689108D01*
X242039300Y-141609984D01*
X242039300Y-141316633D01*
X242058985Y-141249594D01*
X242075619Y-141228952D01*
X242342359Y-140962212D01*
X242661995Y-140642575D01*
X242723316Y-140609092D01*
X242793007Y-140614076D01*
X242848941Y-140655947D01*
X242873358Y-140721412D01*
X242858506Y-140789685D01*
X242858336Y-140789995D01*
X242817811Y-140863709D01*
X242817811Y-140863710D01*
X242777597Y-141020330D01*
X242777597Y-141182041D01*
X242817808Y-141338652D01*
X242817811Y-141338662D01*
X242895706Y-141480353D01*
X242895713Y-141480363D01*
X242909333Y-141496310D01*
X243372341Y-141033303D01*
X243433664Y-140999818D01*
X243503355Y-141004802D01*
X243547703Y-141033303D01*
X243725895Y-141211495D01*
X243759380Y-141272818D01*
X243754396Y-141342510D01*
X243725895Y-141386857D01*
X243262889Y-141849863D01*
X243262889Y-141849865D01*
X243278837Y-141863487D01*
X243278842Y-141863490D01*
X243420538Y-141941388D01*
X243578461Y-141981935D01*
X243638499Y-142017673D01*
X243669685Y-142080197D01*
X243662118Y-142149655D01*
X243635305Y-142189721D01*
X243261447Y-142563581D01*
X243200124Y-142597066D01*
X243173766Y-142599900D01*
X242507962Y-142599900D01*
X242428838Y-142599900D01*
X242390624Y-142610139D01*
X242352409Y-142620379D01*
X242352404Y-142620382D01*
X242283895Y-142659935D01*
X242283887Y-142659941D01*
X242227941Y-142715887D01*
X242227935Y-142715895D01*
X242188382Y-142784404D01*
X242188379Y-142784409D01*
X242167900Y-142860839D01*
X242167900Y-149277766D01*
X242148215Y-149344805D01*
X242131581Y-149365447D01*
X241150904Y-150346123D01*
X241089581Y-150379608D01*
X241019889Y-150374624D01*
X241015771Y-150373003D01*
X240895224Y-150323071D01*
X240895212Y-150323068D01*
X240692269Y-150282700D01*
X240692265Y-150282700D01*
X240485335Y-150282700D01*
X240485330Y-150282700D01*
X240282387Y-150323068D01*
X240282379Y-150323070D01*
X240091203Y-150402258D01*
X239919142Y-150517224D01*
X239772824Y-150663542D01*
X239657858Y-150835603D01*
X239578670Y-151026779D01*
X239578668Y-151026787D01*
X239538300Y-151229730D01*
X239538300Y-151436669D01*
X239578668Y-151639612D01*
X239578670Y-151639620D01*
X239652390Y-151817596D01*
X239657859Y-151830798D01*
X239709679Y-151908352D01*
X239772824Y-152002857D01*
X239919142Y-152149175D01*
X239919145Y-152149177D01*
X240091202Y-152264141D01*
X240282380Y-152343330D01*
X240418969Y-152370499D01*
X240485330Y-152383699D01*
X240485334Y-152383700D01*
X240485335Y-152383700D01*
X240692266Y-152383700D01*
X240692267Y-152383699D01*
X240895220Y-152343330D01*
X241086398Y-152264141D01*
X241258455Y-152149177D01*
X241404777Y-152002855D01*
X241519741Y-151830798D01*
X241598930Y-151639620D01*
X241639300Y-151436665D01*
X241639300Y-151229735D01*
X241598930Y-151026780D01*
X241548994Y-150906226D01*
X241541526Y-150836759D01*
X241572801Y-150774280D01*
X241575846Y-150771124D01*
X242356220Y-149990750D01*
X242417542Y-149957266D01*
X242487234Y-149962250D01*
X242543167Y-150004122D01*
X242567584Y-150069586D01*
X242567900Y-150078432D01*
X242567900Y-151417767D01*
X242548215Y-151484806D01*
X242531581Y-151505448D01*
X241250648Y-152786381D01*
X241189325Y-152819866D01*
X241162967Y-152822700D01*
X239719047Y-152822700D01*
X239660570Y-152834331D01*
X239660569Y-152834332D01*
X239594247Y-152878647D01*
X239549932Y-152944969D01*
X239549931Y-152944970D01*
X239538300Y-153003447D01*
X239538300Y-154742952D01*
X239549931Y-154801429D01*
X239549932Y-154801430D01*
X239594247Y-154867752D01*
X239660569Y-154912067D01*
X239660570Y-154912068D01*
X239719047Y-154923699D01*
X239719050Y-154923700D01*
X239719052Y-154923700D01*
X241458550Y-154923700D01*
X241458551Y-154923699D01*
X241473368Y-154920752D01*
X241517029Y-154912068D01*
X241517030Y-154912067D01*
X241517031Y-154912067D01*
X241583352Y-154867752D01*
X241627667Y-154801431D01*
X241627667Y-154801430D01*
X241627668Y-154801429D01*
X241639299Y-154742952D01*
X241639300Y-154742950D01*
X241639300Y-153299033D01*
X241658985Y-153231994D01*
X241675619Y-153211352D01*
X242978619Y-151908352D01*
X243039942Y-151874867D01*
X243109634Y-151879851D01*
X243165567Y-151921723D01*
X243189984Y-151987187D01*
X243190300Y-151996033D01*
X243190300Y-153538567D01*
X243170615Y-153605606D01*
X243153981Y-153626248D01*
X241810845Y-154969383D01*
X239779305Y-157000923D01*
X239717982Y-157034408D01*
X239648290Y-157029424D01*
X239644172Y-157027803D01*
X239523625Y-156977871D01*
X239523613Y-156977868D01*
X239320670Y-156937500D01*
X239320666Y-156937500D01*
X239113736Y-156937500D01*
X239113731Y-156937500D01*
X238910788Y-156977868D01*
X238910780Y-156977870D01*
X238719604Y-157057058D01*
X238547543Y-157172024D01*
X238401225Y-157318342D01*
X238286259Y-157490403D01*
X238207071Y-157681579D01*
X238207069Y-157681587D01*
X238166701Y-157884530D01*
X237287747Y-157884530D01*
X237234495Y-148689731D01*
X239538300Y-148689731D01*
X239538300Y-148896670D01*
X239578668Y-149099613D01*
X239578670Y-149099621D01*
X239652460Y-149277766D01*
X239657859Y-149290799D01*
X239707737Y-149365447D01*
X239772824Y-149462858D01*
X239919142Y-149609176D01*
X239919145Y-149609178D01*
X240091202Y-149724142D01*
X240282380Y-149803331D01*
X240463064Y-149839271D01*
X240485330Y-149843700D01*
X240485334Y-149843701D01*
X240485335Y-149843701D01*
X240692266Y-149843701D01*
X240692267Y-149843700D01*
X240895220Y-149803331D01*
X241086398Y-149724142D01*
X241258455Y-149609178D01*
X241404777Y-149462856D01*
X241519741Y-149290799D01*
X241598930Y-149099621D01*
X241639300Y-148896666D01*
X241639300Y-148689736D01*
X241598930Y-148486781D01*
X241519741Y-148295603D01*
X241404777Y-148123546D01*
X241404775Y-148123543D01*
X241258457Y-147977225D01*
X241103272Y-147873535D01*
X241086398Y-147862260D01*
X241077301Y-147858492D01*
X240895220Y-147783071D01*
X240895212Y-147783069D01*
X240692269Y-147742701D01*
X240692265Y-147742701D01*
X240485335Y-147742701D01*
X240485330Y-147742701D01*
X240282387Y-147783069D01*
X240282379Y-147783071D01*
X240091203Y-147862259D01*
X239919142Y-147977225D01*
X239772824Y-148123543D01*
X239657858Y-148295604D01*
X239578670Y-148486780D01*
X239578668Y-148486788D01*
X239538300Y-148689731D01*
X237234495Y-148689731D01*
X237219785Y-146149730D01*
X239538300Y-146149730D01*
X239538300Y-146356669D01*
X239578668Y-146559612D01*
X239578670Y-146559620D01*
X239652390Y-146737596D01*
X239657859Y-146750798D01*
X239685979Y-146792883D01*
X239772824Y-146922857D01*
X239919142Y-147069175D01*
X239919145Y-147069177D01*
X240091202Y-147184141D01*
X240282380Y-147263330D01*
X240485330Y-147303699D01*
X240485334Y-147303700D01*
X240485335Y-147303700D01*
X240692266Y-147303700D01*
X240692267Y-147303699D01*
X240895220Y-147263330D01*
X241086398Y-147184141D01*
X241258455Y-147069177D01*
X241404777Y-146922855D01*
X241519741Y-146750798D01*
X241598930Y-146559620D01*
X241639300Y-146356665D01*
X241639300Y-146149735D01*
X241598930Y-145946780D01*
X241519741Y-145755602D01*
X241404777Y-145583545D01*
X241404775Y-145583542D01*
X241258457Y-145437224D01*
X241172426Y-145379741D01*
X241086398Y-145322259D01*
X241062625Y-145312412D01*
X240895220Y-145243070D01*
X240895212Y-145243068D01*
X240692269Y-145202700D01*
X240692265Y-145202700D01*
X240485335Y-145202700D01*
X240485330Y-145202700D01*
X240282387Y-145243068D01*
X240282379Y-145243070D01*
X240091203Y-145322258D01*
X239919142Y-145437224D01*
X239772824Y-145583542D01*
X239657858Y-145755603D01*
X239578670Y-145946779D01*
X239578668Y-145946787D01*
X239538300Y-146149730D01*
X237219785Y-146149730D01*
X237000724Y-108325098D01*
X237020020Y-108257948D01*
X237072558Y-108211888D01*
X237125098Y-108200383D01*
X249600000Y-108238649D01*
G37*
%TD.AperFunction*%
%TD*%
M02*
