%TF.GenerationSoftware,KiCad,Pcbnew,10.0.3*%
%TF.CreationDate,2026-06-19T11:52:41+05:30*%
%TF.ProjectId,ULTRASprig,554c5452-4153-4707-9269-672e6b696361,rev?*%
%TF.SameCoordinates,Original*%
%TF.FileFunction,Soldermask,Top*%
%TF.FilePolarity,Negative*%
%FSLAX46Y46*%
G04 Gerber Fmt 4.6, Leading zero omitted, Abs format (unit mm)*
G04 Created by KiCad (PCBNEW 10.0.3) date 2026-06-19 11:52:41*
%MOMM*%
%LPD*%
G01*
G04 APERTURE LIST*
G04 Aperture macros list*
%AMRoundRect*
0 Rectangle with rounded corners*
0 $1 Rounding radius*
0 $2 $3 $4 $5 $6 $7 $8 $9 X,Y pos of 4 corners*
0 Add a 4 corners polygon primitive as box body*
4,1,4,$2,$3,$4,$5,$6,$7,$8,$9,$2,$3,0*
0 Add four circle primitives for the rounded corners*
1,1,$1+$1,$2,$3*
1,1,$1+$1,$4,$5*
1,1,$1+$1,$6,$7*
1,1,$1+$1,$8,$9*
0 Add four rect primitives between the rounded corners*
20,1,$1+$1,$2,$3,$4,$5,0*
20,1,$1+$1,$4,$5,$6,$7,0*
20,1,$1+$1,$6,$7,$8,$9,0*
20,1,$1+$1,$8,$9,$2,$3,0*%
G04 Aperture macros list end*
%ADD10RoundRect,0.250000X-0.450000X-0.350000X0.450000X-0.350000X0.450000X0.350000X-0.450000X0.350000X0*%
%ADD11R,1.700000X1.700000*%
%ADD12C,1.700000*%
%ADD13RoundRect,0.140000X-0.140000X-0.170000X0.140000X-0.170000X0.140000X0.170000X-0.140000X0.170000X0*%
%ADD14RoundRect,0.050000X-0.350000X-0.050000X0.350000X-0.050000X0.350000X0.050000X-0.350000X0.050000X0*%
%ADD15RoundRect,0.050000X-0.050000X-0.350000X0.050000X-0.350000X0.050000X0.350000X-0.050000X0.350000X0*%
%ADD16R,3.400000X3.400000*%
%ADD17RoundRect,0.135000X-0.226274X-0.035355X-0.035355X-0.226274X0.226274X0.035355X0.035355X0.226274X0*%
%ADD18RoundRect,0.135000X-0.185000X0.135000X-0.185000X-0.135000X0.185000X-0.135000X0.185000X0.135000X0*%
%ADD19RoundRect,0.140000X-0.170000X0.140000X-0.170000X-0.140000X0.170000X-0.140000X0.170000X0.140000X0*%
%ADD20RoundRect,0.062500X-0.062500X0.350000X-0.062500X-0.350000X0.062500X-0.350000X0.062500X0.350000X0*%
%ADD21RoundRect,0.062500X-0.350000X0.062500X-0.350000X-0.062500X0.350000X-0.062500X0.350000X0.062500X0*%
%ADD22R,1.680000X1.680000*%
%ADD23RoundRect,0.135000X0.185000X-0.135000X0.185000X0.135000X-0.185000X0.135000X-0.185000X-0.135000X0*%
%ADD24RoundRect,0.140000X-0.219203X-0.021213X-0.021213X-0.219203X0.219203X0.021213X0.021213X0.219203X0*%
%ADD25RoundRect,0.200000X-0.200000X-0.275000X0.200000X-0.275000X0.200000X0.275000X-0.200000X0.275000X0*%
%ADD26RoundRect,0.140000X0.140000X0.170000X-0.140000X0.170000X-0.140000X-0.170000X0.140000X-0.170000X0*%
%ADD27RoundRect,0.062500X0.062500X-0.350000X0.062500X0.350000X-0.062500X0.350000X-0.062500X-0.350000X0*%
%ADD28RoundRect,0.062500X0.350000X-0.062500X0.350000X0.062500X-0.350000X0.062500X-0.350000X-0.062500X0*%
%ADD29RoundRect,0.200000X0.275000X-0.200000X0.275000X0.200000X-0.275000X0.200000X-0.275000X-0.200000X0*%
%ADD30RoundRect,0.140000X0.170000X-0.140000X0.170000X0.140000X-0.170000X0.140000X-0.170000X-0.140000X0*%
%ADD31RoundRect,0.135000X-0.135000X-0.185000X0.135000X-0.185000X0.135000X0.185000X-0.135000X0.185000X0*%
%ADD32RoundRect,0.093750X-0.093750X0.156250X-0.093750X-0.156250X0.093750X-0.156250X0.093750X0.156250X0*%
%ADD33RoundRect,0.075000X-0.075000X0.250000X-0.075000X-0.250000X0.075000X-0.250000X0.075000X0.250000X0*%
%ADD34RoundRect,0.147500X-0.172500X0.147500X-0.172500X-0.147500X0.172500X-0.147500X0.172500X0.147500X0*%
%ADD35RoundRect,0.150000X0.150000X0.575000X-0.150000X0.575000X-0.150000X-0.575000X0.150000X-0.575000X0*%
%ADD36RoundRect,0.075000X0.075000X0.650000X-0.075000X0.650000X-0.075000X-0.650000X0.075000X-0.650000X0*%
%ADD37O,1.000000X2.100000*%
%ADD38O,1.000000X1.600000*%
%ADD39RoundRect,0.140000X-0.021213X0.219203X-0.219203X0.021213X0.021213X-0.219203X0.219203X-0.021213X0*%
%ADD40RoundRect,0.135000X-0.035355X0.226274X-0.226274X0.035355X0.035355X-0.226274X0.226274X-0.035355X0*%
%ADD41RoundRect,0.140000X0.219203X0.021213X0.021213X0.219203X-0.219203X-0.021213X-0.021213X-0.219203X0*%
G04 APERTURE END LIST*
D10*
%TO.C,Y1*%
X252300000Y-150000000D03*
X254500000Y-150000000D03*
X254500000Y-148300000D03*
X252300000Y-148300000D03*
%TD*%
D11*
%TO.C,J1*%
X252600000Y-127300000D03*
D12*
X250060000Y-127300000D03*
X247520001Y-127300000D03*
X244980000Y-127300000D03*
X242440000Y-127300000D03*
X239900000Y-127300000D03*
%TD*%
D13*
%TO.C,C22*%
X256803619Y-122761000D03*
X257763619Y-122761000D03*
%TD*%
D14*
%TO.C,U1*%
X248080000Y-135870000D03*
X248079999Y-136270000D03*
X248080000Y-136670000D03*
X248080000Y-137070000D03*
X248080000Y-137470001D03*
X248080000Y-137870000D03*
X248080000Y-138270000D03*
X248080000Y-138670000D03*
X248080000Y-139069999D03*
X248080000Y-139470000D03*
X248080000Y-139870000D03*
X248080000Y-140270001D03*
X248080000Y-140670000D03*
X248080000Y-141070000D03*
X248080000Y-141470000D03*
X248080000Y-141869999D03*
X248080000Y-142270000D03*
X248080000Y-142670000D03*
X248079999Y-143070000D03*
X248080000Y-143470000D03*
D15*
X249230000Y-144620000D03*
X249630000Y-144620001D03*
X250030000Y-144620000D03*
X250430000Y-144620000D03*
X250830001Y-144620000D03*
X251230000Y-144620000D03*
X251630000Y-144620000D03*
X252030000Y-144620000D03*
X252429999Y-144620000D03*
X252830000Y-144620000D03*
X253230000Y-144620000D03*
X253630001Y-144620000D03*
X254030000Y-144620000D03*
X254430000Y-144620000D03*
X254830000Y-144620000D03*
X255229999Y-144620000D03*
X255630000Y-144620000D03*
X256030000Y-144620000D03*
X256430000Y-144620001D03*
X256830000Y-144620000D03*
D14*
X257980000Y-143470000D03*
X257980001Y-143070000D03*
X257980000Y-142670000D03*
X257980000Y-142270000D03*
X257980000Y-141869999D03*
X257980000Y-141470000D03*
X257980000Y-141070000D03*
X257980000Y-140670000D03*
X257980000Y-140270001D03*
X257980000Y-139870000D03*
X257980000Y-139470000D03*
X257980000Y-139069999D03*
X257980000Y-138670000D03*
X257980000Y-138270000D03*
X257980000Y-137870000D03*
X257980000Y-137470001D03*
X257980000Y-137070000D03*
X257980000Y-136670000D03*
X257980001Y-136270000D03*
X257980000Y-135870000D03*
D15*
X256830000Y-134720000D03*
X256430000Y-134719999D03*
X256030000Y-134720000D03*
X255630000Y-134720000D03*
X255229999Y-134720000D03*
X254830000Y-134720000D03*
X254430000Y-134720000D03*
X254030000Y-134720000D03*
X253630001Y-134720000D03*
X253230000Y-134720000D03*
X252830000Y-134720000D03*
X252429999Y-134720000D03*
X252030000Y-134720000D03*
X251630000Y-134720000D03*
X251230000Y-134720000D03*
X250830001Y-134720000D03*
X250430000Y-134720000D03*
X250030000Y-134720000D03*
X249630000Y-134719999D03*
X249230000Y-134720000D03*
D16*
X253030000Y-139670000D03*
%TD*%
D11*
%TO.C,J6*%
X265000000Y-131000000D03*
D12*
X265000000Y-133540000D03*
X265000000Y-136080000D03*
X265000000Y-138620000D03*
X265000000Y-141160000D03*
X265000000Y-143700000D03*
X265000000Y-146240000D03*
X265000000Y-148780000D03*
X265000000Y-151320000D03*
X265000000Y-153860000D03*
%TD*%
D17*
%TO.C,R9*%
X246026001Y-123123999D03*
X246747249Y-123845247D03*
%TD*%
D18*
%TO.C,R1*%
X255080000Y-131610001D03*
X255080000Y-132629999D03*
%TD*%
D19*
%TO.C,C2*%
X255998001Y-150286399D03*
X255998001Y-151246399D03*
%TD*%
D20*
%TO.C,U3*%
X250201002Y-119182999D03*
X249701002Y-119182999D03*
X249201002Y-119182999D03*
X248701002Y-119182999D03*
D21*
X247988502Y-119895499D03*
X247988502Y-120395499D03*
X247988502Y-120895499D03*
X247988502Y-121395499D03*
D20*
X248701002Y-122107999D03*
X249201002Y-122107999D03*
X249701002Y-122107999D03*
X250201002Y-122107999D03*
D21*
X250913502Y-121395499D03*
X250913502Y-120895499D03*
X250913502Y-120395499D03*
X250913502Y-119895499D03*
D22*
X249451002Y-120645499D03*
%TD*%
D23*
%TO.C,R4*%
X256300000Y-149000000D03*
X256300000Y-147980002D03*
%TD*%
D24*
%TO.C,C11*%
X245550000Y-144950000D03*
X246228822Y-145628822D03*
%TD*%
D23*
%TO.C,R11*%
X252122001Y-120054597D03*
X252122001Y-119034599D03*
%TD*%
D11*
%TO.C,J4*%
X267157200Y-157988000D03*
D12*
X264617200Y-157988000D03*
X262077201Y-157988000D03*
X259537200Y-157988000D03*
X256997200Y-157988000D03*
X254457200Y-157988000D03*
X251917200Y-157988000D03*
X249377199Y-157988000D03*
X246837200Y-157988000D03*
X244297200Y-157988000D03*
X241757200Y-157988000D03*
X239217201Y-157988000D03*
%TD*%
D19*
%TO.C,C4*%
X246788001Y-119519799D03*
X246788001Y-120479799D03*
%TD*%
D25*
%TO.C,R13*%
X257995000Y-130070000D03*
X259645000Y-130070000D03*
%TD*%
D11*
%TO.C,J10*%
X240588800Y-153873200D03*
D12*
X240588800Y-151333200D03*
X240588800Y-148793201D03*
X240588800Y-146253200D03*
X240588800Y-143713200D03*
X240588800Y-141173200D03*
X240588800Y-138633200D03*
X240588800Y-136093199D03*
X240588800Y-133553200D03*
X240588800Y-131013200D03*
%TD*%
D13*
%TO.C,C18*%
X259842000Y-132994400D03*
X260802000Y-132994400D03*
%TD*%
D26*
%TO.C,C9*%
X258810000Y-132870000D03*
X257850000Y-132870000D03*
%TD*%
D27*
%TO.C,U4*%
X257452618Y-127182999D03*
X257952618Y-127182999D03*
X258452618Y-127182999D03*
X258952618Y-127182999D03*
D28*
X259665118Y-126470499D03*
X259665118Y-125970499D03*
X259665118Y-125470499D03*
X259665118Y-124970499D03*
D27*
X258952618Y-124257999D03*
X258452618Y-124257999D03*
X257952618Y-124257999D03*
X257452618Y-124257999D03*
D28*
X256740118Y-124970499D03*
X256740118Y-125470499D03*
X256740118Y-125970499D03*
X256740118Y-126470499D03*
D22*
X258202618Y-125720499D03*
%TD*%
D29*
%TO.C,R12*%
X261110000Y-128225000D03*
X261110000Y-126575000D03*
%TD*%
D30*
%TO.C,C10*%
X261860000Y-133950000D03*
X261860000Y-132990000D03*
%TD*%
D17*
%TO.C,R8*%
X246808376Y-122382375D03*
X247529624Y-123103623D03*
%TD*%
D31*
%TO.C,R14*%
X258676620Y-128349000D03*
X259696618Y-128349000D03*
%TD*%
D18*
%TO.C,R7*%
X256150000Y-115390001D03*
X256150000Y-116409999D03*
%TD*%
D31*
%TO.C,R6*%
X257790000Y-133910000D03*
X258809998Y-133910000D03*
%TD*%
D30*
%TO.C,C21*%
X260839619Y-130325001D03*
X260839619Y-129365001D03*
%TD*%
D32*
%TO.C,U2*%
X255261500Y-118800000D03*
D33*
X254724000Y-118725000D03*
D32*
X254186500Y-118800000D03*
X254186500Y-120500000D03*
D33*
X254724000Y-120575000D03*
D32*
X255261500Y-120500000D03*
%TD*%
D19*
%TO.C,C8*%
X259790000Y-133910000D03*
X259790000Y-134870000D03*
%TD*%
D34*
%TO.C,L2*%
X256750000Y-128475999D03*
X256750000Y-129445999D03*
%TD*%
D35*
%TO.C,J2*%
X257470000Y-113518000D03*
X256670001Y-113518000D03*
D36*
X255470000Y-113517999D03*
X254470000Y-113518000D03*
X253970000Y-113518000D03*
X252970000Y-113517999D03*
D35*
X251769999Y-113518000D03*
X250970000Y-113518000D03*
X250970000Y-113518000D03*
X251769999Y-113518000D03*
D36*
X252470000Y-113518000D03*
X253470000Y-113518000D03*
X254970000Y-113518000D03*
X255970000Y-113518000D03*
D35*
X256670001Y-113518000D03*
X257470000Y-113518000D03*
D37*
X258540000Y-112603000D03*
D38*
X258540000Y-108423000D03*
D37*
X249900000Y-112603000D03*
D38*
X249900000Y-108423000D03*
%TD*%
D30*
%TO.C,C12*%
X245000000Y-134960000D03*
X245000000Y-134000000D03*
%TD*%
%TO.C,C1*%
X250698000Y-151226400D03*
X250698000Y-150266400D03*
%TD*%
%TO.C,C14*%
X247200000Y-134960000D03*
X247200000Y-134000000D03*
%TD*%
D13*
%TO.C,C5*%
X246820000Y-117900000D03*
X247780000Y-117900000D03*
%TD*%
D17*
%TO.C,R5*%
X252639376Y-115439376D03*
X253360624Y-116160624D03*
%TD*%
D30*
%TO.C,C13*%
X246166002Y-134960000D03*
X246166002Y-134000000D03*
%TD*%
D19*
%TO.C,C23*%
X255800000Y-123140000D03*
X255800000Y-124100000D03*
%TD*%
D11*
%TO.C,J3*%
X243500000Y-119160000D03*
D12*
X243500000Y-121700000D03*
%TD*%
D13*
%TO.C,C24*%
X258708617Y-122760999D03*
X259668617Y-122760999D03*
%TD*%
D24*
%TO.C,C20*%
X244800468Y-145756101D03*
X245479290Y-146434923D03*
%TD*%
D39*
%TO.C,C7*%
X244315622Y-140443578D03*
X243636800Y-141122400D03*
%TD*%
D24*
%TO.C,C19*%
X244079218Y-146449066D03*
X244758040Y-147127888D03*
%TD*%
D39*
%TO.C,C6*%
X245668800Y-139090400D03*
X244989978Y-139769222D03*
%TD*%
D40*
%TO.C,R10*%
X251563201Y-122793799D03*
X250841953Y-123515047D03*
%TD*%
D41*
%TO.C,C3*%
X250057623Y-124463221D03*
X249378801Y-123784399D03*
%TD*%
D18*
%TO.C,R2*%
X254080000Y-131610001D03*
X254080000Y-132629999D03*
%TD*%
D34*
%TO.C,L1*%
X260830000Y-134150000D03*
X260830000Y-135120000D03*
%TD*%
M02*
