%TF.GenerationSoftware,KiCad,Pcbnew,10.0.3*%
%TF.CreationDate,2026-06-19T11:52:41+05:30*%
%TF.ProjectId,ULTRASprig,554c5452-4153-4707-9269-672e6b696361,rev?*%
%TF.SameCoordinates,Original*%
%TF.FileFunction,Copper,L2,Bot*%
%TF.FilePolarity,Positive*%
%FSLAX46Y46*%
G04 Gerber Fmt 4.6, Leading zero omitted, Abs format (unit mm)*
G04 Created by KiCad (PCBNEW 10.0.3) date 2026-06-19 11:52:41*
%MOMM*%
%LPD*%
G01*
G04 APERTURE LIST*
%TA.AperFunction,ComponentPad*%
%ADD10R,1.700000X1.700000*%
%TD*%
%TA.AperFunction,ComponentPad*%
%ADD11C,1.700000*%
%TD*%
%TA.AperFunction,HeatsinkPad*%
%ADD12C,0.500000*%
%TD*%
%TA.AperFunction,HeatsinkPad*%
%ADD13R,1.680000X1.680000*%
%TD*%
%TA.AperFunction,ComponentPad*%
%ADD14O,1.000000X2.100000*%
%TD*%
%TA.AperFunction,ComponentPad*%
%ADD15O,1.000000X1.600000*%
%TD*%
%TA.AperFunction,ViaPad*%
%ADD16C,0.600000*%
%TD*%
%TA.AperFunction,Conductor*%
%ADD17C,0.200000*%
%TD*%
G04 APERTURE END LIST*
D10*
%TO.P,J1,1,Pin_1_1*%
%TO.N,/RP2354 Board/SD3*%
X252600000Y-127300000D03*
D11*
%TO.P,J1,2,Pin_2_2*%
%TO.N,/RP2354 Board/SCLK*%
X250060000Y-127300000D03*
%TO.P,J1,3,Pin_3_3*%
%TO.N,/RP2354 Board/SD0*%
X247520001Y-127300000D03*
%TO.P,J1,4,Pin_4_4*%
%TO.N,/RP2354 Board/SD2*%
X244980000Y-127300000D03*
%TO.P,J1,5,Pin_5_5*%
%TO.N,/RP2354 Board/SD1*%
X242440000Y-127300000D03*
%TO.P,J1,6,Pin_6_6*%
%TO.N,/RP2354 Board/SS*%
X239900000Y-127300000D03*
%TD*%
D10*
%TO.P,J6,1,Pin_1_1*%
%TO.N,/RP2354 Board/CS4*%
X265000000Y-131000000D03*
D11*
%TO.P,J6,2,Pin_2_2*%
%TO.N,/RP2354 Board/CS3*%
X265000000Y-133540000D03*
%TO.P,J6,3,Pin_3_3*%
%TO.N,/RP2354 Board/CS2*%
X265000000Y-136080000D03*
%TO.P,J6,4,Pin_4_4*%
%TO.N,/RP2354 Board/VOUT*%
X265000000Y-138620000D03*
%TO.P,J6,5,Pin_5_5*%
%TO.N,/RP2354 Board/CS1*%
X265000000Y-141160000D03*
%TO.P,J6,6,Pin_6_6*%
%TO.N,/RP2354 Board/SPI0_MOSI*%
X265000000Y-143700000D03*
%TO.P,J6,7,Pin_7_7*%
%TO.N,/RP2354 Board/SPI0_MISO*%
X265000000Y-146240000D03*
%TO.P,J6,8,Pin_8_8*%
%TO.N,/RP2354 Board/SPI1_MISO*%
X265000000Y-148780000D03*
%TO.P,J6,9,Pin_9_9*%
%TO.N,/RP2354 Board/SPI1_MOSI*%
X265000000Y-151320000D03*
%TO.P,J6,10,Pin_10_10*%
%TO.N,/RP2354 Board/IO1*%
X265000000Y-153860000D03*
%TD*%
D12*
%TO.P,U3,17,VSS_17*%
%TO.N,/RP2354 Board/VSS*%
X250041002Y-120055499D03*
X248861002Y-120055499D03*
D13*
X249451002Y-120645499D03*
D12*
X250041002Y-121235499D03*
X248861002Y-121235499D03*
%TD*%
D10*
%TO.P,J4,1,Pin_1_1*%
%TO.N,Net-(J4-Pin_1)*%
X267157200Y-157988000D03*
D11*
%TO.P,J4,2,Pin_2_2*%
%TO.N,Net-(J4-Pin_2)*%
X264617200Y-157988000D03*
%TO.P,J4,3,Pin_3_3*%
%TO.N,Net-(J4-Pin_3)*%
X262077201Y-157988000D03*
%TO.P,J4,4,Pin_4_4*%
%TO.N,Net-(J4-Pin_4)*%
X259537200Y-157988000D03*
%TO.P,J4,5,Pin_5_5*%
%TO.N,Net-(J4-Pin_5)*%
X256997200Y-157988000D03*
%TO.P,J4,6,Pin_6_6*%
%TO.N,Net-(J4-Pin_6)*%
X254457200Y-157988000D03*
%TO.P,J4,7,Pin_7_7*%
%TO.N,Net-(J4-Pin_7)*%
X251917200Y-157988000D03*
%TO.P,J4,8,Pin_8_8*%
%TO.N,Net-(J4-Pin_8)*%
X249377199Y-157988000D03*
%TO.P,J4,9,Pin_9_9*%
%TO.N,Net-(J4-Pin_9)*%
X246837200Y-157988000D03*
%TO.P,J4,10,Pin_10_10*%
%TO.N,Net-(J4-Pin_10)*%
X244297200Y-157988000D03*
%TO.P,J4,11,Pin_11_11*%
%TO.N,Net-(J4-Pin_11)*%
X241757200Y-157988000D03*
%TO.P,J4,12,Pin_12_12*%
%TO.N,Net-(J4-Pin_12)*%
X239217201Y-157988000D03*
%TD*%
D10*
%TO.P,J10,1,Pin_1_1*%
%TO.N,Net-(J10-Pin_1)*%
X240588800Y-153873200D03*
D11*
%TO.P,J10,2,Pin_2_2*%
%TO.N,Net-(J10-Pin_2)*%
X240588800Y-151333200D03*
%TO.P,J10,3,Pin_3_3*%
%TO.N,Net-(J10-Pin_3)*%
X240588800Y-148793201D03*
%TO.P,J10,4,Pin_4_4*%
%TO.N,Net-(J10-Pin_4)*%
X240588800Y-146253200D03*
%TO.P,J10,5,Pin_5_5*%
%TO.N,Net-(J10-Pin_5)*%
X240588800Y-143713200D03*
%TO.P,J10,6,Pin_6_6*%
%TO.N,Net-(J10-Pin_6)*%
X240588800Y-141173200D03*
%TO.P,J10,7,Pin_7_7*%
%TO.N,Net-(J10-Pin_7)*%
X240588800Y-138633200D03*
%TO.P,J10,8,Pin_8_8*%
%TO.N,Net-(J10-Pin_8)*%
X240588800Y-136093199D03*
%TO.P,J10,9,Pin_9_9*%
%TO.N,Net-(J10-Pin_9)*%
X240588800Y-133553200D03*
%TO.P,J10,10,Pin_10_10*%
%TO.N,Net-(J10-Pin_10)*%
X240588800Y-131013200D03*
%TD*%
D12*
%TO.P,U4,17,GND_17*%
%TO.N,GND*%
X257612618Y-126310499D03*
X258792618Y-126310499D03*
D13*
X258202618Y-125720499D03*
D12*
X257612618Y-125130499D03*
X258792618Y-125130499D03*
%TD*%
D14*
%TO.P,J2,SH,SHIELD_SH*%
%TO.N,GND*%
X258540000Y-112603000D03*
D15*
X258540000Y-108423000D03*
D14*
X249900000Y-112603000D03*
D15*
X249900000Y-108423000D03*
%TD*%
D10*
%TO.P,J3,1,Pin_1_1*%
%TO.N,Net-(J3-Pin_1)*%
X243500000Y-119160000D03*
D11*
%TO.P,J3,2,Pin_2_2*%
%TO.N,GND*%
X243500000Y-121700000D03*
%TD*%
D16*
%TO.N,GND*%
X255800000Y-124100000D03*
X253100000Y-137700000D03*
X250950000Y-118800000D03*
X257100000Y-133100000D03*
X248900000Y-117200000D03*
X248576002Y-119100000D03*
X260603529Y-132093529D03*
X257868788Y-122977643D03*
X250717065Y-149267065D03*
X250970766Y-122029234D03*
X258970000Y-134850000D03*
X251950000Y-120900000D03*
X244050000Y-148750000D03*
%TO.N,/RP2354 Board/VBUCK*%
X246000000Y-119600000D03*
X249868262Y-122952253D03*
X256700000Y-123400000D03*
%TO.N,+3V3*%
X250950000Y-142750000D03*
X256700000Y-140700000D03*
X258614468Y-132535532D03*
X253800000Y-135650000D03*
X258000000Y-131260000D03*
X256833751Y-136548626D03*
X261385735Y-131084265D03*
%TO.N,Net-(J10-Pin_4)*%
X246483599Y-138869999D03*
%TO.N,Net-(J10-Pin_3)*%
X249174000Y-139090400D03*
%TO.N,+1V1*%
X249950000Y-141850000D03*
X247100000Y-143150000D03*
%TO.N,Net-(J4-Pin_7)*%
X251830000Y-145796000D03*
%TO.N,Net-(J4-Pin_6)*%
X251583292Y-143720000D03*
%TO.N,/RP2354 Board/CHG*%
X260359937Y-136049999D03*
X248243677Y-122503623D03*
%TO.N,/RP2354 Board/PGD*%
X245962081Y-122600000D03*
X259600000Y-136300000D03*
%TO.N,/RP2354 Board/VOUT*%
X258426493Y-129026346D03*
%TD*%
%TO.N,GND*%
D17*
X249900000Y-112603000D02*
X249900000Y-108423000D01*
X249900000Y-108423000D02*
X258540000Y-108423000D01*
X256582119Y-124100000D02*
X255800000Y-124100000D01*
X250970766Y-122029234D02*
X250970766Y-121879234D01*
X258293999Y-133135532D02*
X259561526Y-133135532D01*
X244050000Y-148750000D02*
X244567065Y-149267065D01*
X259054234Y-134765766D02*
X259924234Y-134765766D01*
X251950000Y-120900000D02*
X250950000Y-119900000D01*
X253100000Y-137700000D02*
X253100000Y-137948529D01*
X257868788Y-123079741D02*
X256848529Y-124100000D01*
X244567065Y-149267065D02*
X250717065Y-149267065D01*
X258970000Y-134850000D02*
X259054234Y-134765766D01*
X256451471Y-141300000D02*
X256948529Y-141300000D01*
X258258467Y-133100000D02*
X258293999Y-133135532D01*
X256948529Y-141300000D02*
X260959937Y-137288592D01*
X258540000Y-108423000D02*
X258540000Y-112603000D01*
X257868788Y-124874329D02*
X257612618Y-125130499D01*
X257868788Y-122977643D02*
X257868788Y-123079741D01*
X260959937Y-135801470D02*
X259924234Y-134765766D01*
X248576002Y-119100000D02*
X248576002Y-117523998D01*
X258258467Y-133100000D02*
X257100000Y-133100000D01*
X260959937Y-137288592D02*
X260959937Y-135801470D01*
X259561526Y-133135532D02*
X260603529Y-132093529D01*
X250950000Y-119900000D02*
X250950000Y-118800000D01*
X253100000Y-137948529D02*
X256451471Y-141300000D01*
X256848529Y-124100000D02*
X255800000Y-124100000D01*
X248576002Y-117523998D02*
X248900000Y-117200000D01*
X257612618Y-125130499D02*
X256582119Y-124100000D01*
X250970766Y-121879234D02*
X251950000Y-120900000D01*
X259924234Y-134765766D02*
X258258467Y-133100000D01*
X257868788Y-122977643D02*
X257868788Y-124874329D01*
%TO.N,/RP2354 Board/VBUCK*%
X250316009Y-123400000D02*
X256700000Y-123400000D01*
X248200000Y-121800000D02*
X248716009Y-121800000D01*
X246000000Y-119600000D02*
X248200000Y-121800000D01*
X249868262Y-122952253D02*
X250316009Y-123400000D01*
X248716009Y-121800000D02*
X249868262Y-122952253D01*
%TO.N,+3V3*%
X258560000Y-130700000D02*
X258000000Y-131260000D01*
X250950000Y-138500000D02*
X253800000Y-135650000D01*
X261385735Y-131084265D02*
X261001470Y-130700000D01*
X250950000Y-142750000D02*
X250950000Y-138500000D01*
X256833751Y-136548626D02*
X254698626Y-136548626D01*
X254698626Y-136548626D02*
X253800000Y-135650000D01*
X261001470Y-130700000D02*
X258560000Y-130700000D01*
X261385735Y-131084265D02*
X260764265Y-131084265D01*
X258614468Y-132535532D02*
X259312997Y-132535532D01*
X256700000Y-140700000D02*
X256700000Y-136682377D01*
X256700000Y-136682377D02*
X256833751Y-136548626D01*
X259312997Y-132535532D02*
X260764265Y-131084265D01*
%TO.N,Net-(J10-Pin_4)*%
X246483599Y-140358401D02*
X240588800Y-146253200D01*
X246483599Y-138869999D02*
X246483599Y-140358401D01*
%TO.N,Net-(J10-Pin_3)*%
X249174000Y-140208001D02*
X240588800Y-148793201D01*
X249174000Y-139090400D02*
X249174000Y-140208001D01*
%TO.N,+1V1*%
X248400000Y-141850000D02*
X249950000Y-141850000D01*
X247100000Y-143150000D02*
X248400000Y-141850000D01*
%TO.N,Net-(J4-Pin_7)*%
X251830000Y-148346998D02*
X251920602Y-148437600D01*
X251830000Y-145796000D02*
X251830000Y-148346998D01*
X251920602Y-148437600D02*
X251920602Y-158619600D01*
%TO.N,Net-(J4-Pin_6)*%
X254460602Y-158619600D02*
X254460602Y-146252978D01*
X254460602Y-146252978D02*
X252858812Y-144651188D01*
X251583292Y-143720000D02*
X251927624Y-143720000D01*
X252858812Y-144651188D02*
X254457200Y-146249577D01*
X251927624Y-143720000D02*
X252858812Y-144651188D01*
%TO.N,/RP2354 Board/CHG*%
X248243677Y-122503623D02*
X251450000Y-125709946D01*
X251450000Y-125709946D02*
X251450000Y-129750660D01*
X252750660Y-129750660D02*
X258700000Y-135700000D01*
X251450000Y-129750660D02*
X252750660Y-129750660D01*
X259848529Y-135700000D02*
X260198528Y-136049999D01*
X260198528Y-136049999D02*
X260359937Y-136049999D01*
X258700000Y-135700000D02*
X259848529Y-135700000D01*
%TO.N,/RP2354 Board/PGD*%
X248670001Y-125307920D02*
X248670001Y-127536347D01*
X257433654Y-136300000D02*
X259600000Y-136300000D01*
X248670001Y-127536347D02*
X257433654Y-136300000D01*
X245962081Y-122600000D02*
X248670001Y-125307920D01*
%TO.N,/RP2354 Board/VOUT*%
X263850000Y-137470000D02*
X265000000Y-138620000D01*
X260176346Y-129026346D02*
X263850000Y-132700000D01*
X258426493Y-129026346D02*
X260176346Y-129026346D01*
X263850000Y-132700000D02*
X263850000Y-137470000D01*
%TD*%
M02*
