%TF.GenerationSoftware,KiCad,Pcbnew,10.0.3*%
%TF.CreationDate,2026-06-18T11:00:45+05:30*%
%TF.ProjectId,Flash,466c6173-682e-46b6-9963-61645f706362,rev?*%
%TF.SameCoordinates,Original*%
%TF.FileFunction,Legend,Top*%
%TF.FilePolarity,Positive*%
%FSLAX46Y46*%
G04 Gerber Fmt 4.6, Leading zero omitted, Abs format (unit mm)*
G04 Created by KiCad (PCBNEW 10.0.3) date 2026-06-18 11:00:45*
%MOMM*%
%LPD*%
G01*
G04 APERTURE LIST*
G04 Aperture macros list*
%AMRoundRect*
0 Rectangle with rounded corners*
0 $1 Rounding radius*
0 $2 $3 $4 $5 $6 $7 $8 $9 X,Y pos of 4 corners*
0 Add a 4 corners polygon primitive as box body*
4,1,4,$2,$3,$4,$5,$6,$7,$8,$9,$2,$3,0*
0 Add four circle primitives for the rounded corners*
1,1,$1+$1,$2,$3*
1,1,$1+$1,$4,$5*
1,1,$1+$1,$6,$7*
1,1,$1+$1,$8,$9*
0 Add four rect primitives between the rounded corners*
20,1,$1+$1,$2,$3,$4,$5,0*
20,1,$1+$1,$4,$5,$6,$7,0*
20,1,$1+$1,$6,$7,$8,$9,0*
20,1,$1+$1,$8,$9,$2,$3,0*%
G04 Aperture macros list end*
%ADD10C,0.150000*%
%ADD11C,0.120000*%
%ADD12RoundRect,0.135000X0.226274X0.035355X0.035355X0.226274X-0.226274X-0.035355X-0.035355X-0.226274X0*%
%ADD13R,1.700000X1.700000*%
%ADD14C,1.700000*%
%ADD15RoundRect,0.162500X-0.162500X0.650000X-0.162500X-0.650000X0.162500X-0.650000X0.162500X0.650000X0*%
%ADD16RoundRect,0.140000X-0.219203X-0.021213X-0.021213X-0.219203X0.219203X0.021213X0.021213X0.219203X0*%
%ADD17RoundRect,0.135000X-0.135000X-0.185000X0.135000X-0.185000X0.135000X0.185000X-0.135000X0.185000X0*%
%ADD18RoundRect,0.218750X0.256250X-0.218750X0.256250X0.218750X-0.256250X0.218750X-0.256250X-0.218750X0*%
G04 APERTURE END LIST*
D10*
X69133228Y-124831069D02*
X69234243Y-124258650D01*
X68729167Y-124427008D02*
X69436274Y-123719902D01*
X69436274Y-123719902D02*
X69705648Y-123989276D01*
X69705648Y-123989276D02*
X69739320Y-124090291D01*
X69739320Y-124090291D02*
X69739320Y-124157634D01*
X69739320Y-124157634D02*
X69705648Y-124258650D01*
X69705648Y-124258650D02*
X69604633Y-124359665D01*
X69604633Y-124359665D02*
X69503617Y-124393337D01*
X69503617Y-124393337D02*
X69436274Y-124393337D01*
X69436274Y-124393337D02*
X69335259Y-124359665D01*
X69335259Y-124359665D02*
X69065885Y-124090291D01*
X70042365Y-124460680D02*
X70109709Y-124460680D01*
X70109709Y-124460680D02*
X70210724Y-124494352D01*
X70210724Y-124494352D02*
X70379083Y-124662711D01*
X70379083Y-124662711D02*
X70412755Y-124763726D01*
X70412755Y-124763726D02*
X70412755Y-124831069D01*
X70412755Y-124831069D02*
X70379083Y-124932085D01*
X70379083Y-124932085D02*
X70311739Y-124999428D01*
X70311739Y-124999428D02*
X70177052Y-125066772D01*
X70177052Y-125066772D02*
X69368930Y-125066772D01*
X69368930Y-125066772D02*
X69806663Y-125504504D01*
X61321666Y-137106819D02*
X61321666Y-137821104D01*
X61321666Y-137821104D02*
X61274047Y-137963961D01*
X61274047Y-137963961D02*
X61178809Y-138059200D01*
X61178809Y-138059200D02*
X61035952Y-138106819D01*
X61035952Y-138106819D02*
X60940714Y-138106819D01*
X62321666Y-138106819D02*
X61750238Y-138106819D01*
X62035952Y-138106819D02*
X62035952Y-137106819D01*
X62035952Y-137106819D02*
X61940714Y-137249676D01*
X61940714Y-137249676D02*
X61845476Y-137344914D01*
X61845476Y-137344914D02*
X61750238Y-137392533D01*
X76359218Y-130575204D02*
X77168741Y-130575204D01*
X77168741Y-130575204D02*
X77263979Y-130527585D01*
X77263979Y-130527585D02*
X77311599Y-130479966D01*
X77311599Y-130479966D02*
X77359218Y-130384728D01*
X77359218Y-130384728D02*
X77359218Y-130194252D01*
X77359218Y-130194252D02*
X77311599Y-130099014D01*
X77311599Y-130099014D02*
X77263979Y-130051395D01*
X77263979Y-130051395D02*
X77168741Y-130003776D01*
X77168741Y-130003776D02*
X76359218Y-130003776D01*
X76454456Y-129575204D02*
X76406837Y-129527585D01*
X76406837Y-129527585D02*
X76359218Y-129432347D01*
X76359218Y-129432347D02*
X76359218Y-129194252D01*
X76359218Y-129194252D02*
X76406837Y-129099014D01*
X76406837Y-129099014D02*
X76454456Y-129051395D01*
X76454456Y-129051395D02*
X76549694Y-129003776D01*
X76549694Y-129003776D02*
X76644932Y-129003776D01*
X76644932Y-129003776D02*
X76787789Y-129051395D01*
X76787789Y-129051395D02*
X77359218Y-129622823D01*
X77359218Y-129622823D02*
X77359218Y-129003776D01*
X69808131Y-128236167D02*
X69740787Y-128236167D01*
X69740787Y-128236167D02*
X69606100Y-128168823D01*
X69606100Y-128168823D02*
X69538757Y-128101480D01*
X69538757Y-128101480D02*
X69471413Y-127966793D01*
X69471413Y-127966793D02*
X69471413Y-127832106D01*
X69471413Y-127832106D02*
X69505085Y-127731091D01*
X69505085Y-127731091D02*
X69606100Y-127562732D01*
X69606100Y-127562732D02*
X69707115Y-127461717D01*
X69707115Y-127461717D02*
X69875474Y-127360701D01*
X69875474Y-127360701D02*
X69976489Y-127327030D01*
X69976489Y-127327030D02*
X70111176Y-127327030D01*
X70111176Y-127327030D02*
X70245863Y-127394373D01*
X70245863Y-127394373D02*
X70313207Y-127461717D01*
X70313207Y-127461717D02*
X70380550Y-127596404D01*
X70380550Y-127596404D02*
X70380550Y-127663747D01*
X70414222Y-128976945D02*
X70010161Y-128572884D01*
X70212192Y-128774915D02*
X70919298Y-128067808D01*
X70919298Y-128067808D02*
X70750940Y-128101480D01*
X70750940Y-128101480D02*
X70616253Y-128101480D01*
X70616253Y-128101480D02*
X70515237Y-128067808D01*
X69433333Y-134884819D02*
X69100000Y-134408628D01*
X68861905Y-134884819D02*
X68861905Y-133884819D01*
X68861905Y-133884819D02*
X69242857Y-133884819D01*
X69242857Y-133884819D02*
X69338095Y-133932438D01*
X69338095Y-133932438D02*
X69385714Y-133980057D01*
X69385714Y-133980057D02*
X69433333Y-134075295D01*
X69433333Y-134075295D02*
X69433333Y-134218152D01*
X69433333Y-134218152D02*
X69385714Y-134313390D01*
X69385714Y-134313390D02*
X69338095Y-134361009D01*
X69338095Y-134361009D02*
X69242857Y-134408628D01*
X69242857Y-134408628D02*
X68861905Y-134408628D01*
X70385714Y-134884819D02*
X69814286Y-134884819D01*
X70100000Y-134884819D02*
X70100000Y-133884819D01*
X70100000Y-133884819D02*
X70004762Y-134027676D01*
X70004762Y-134027676D02*
X69909524Y-134122914D01*
X69909524Y-134122914D02*
X69814286Y-134170533D01*
X68224819Y-126338094D02*
X67224819Y-126338094D01*
X67224819Y-126338094D02*
X67224819Y-126099999D01*
X67224819Y-126099999D02*
X67272438Y-125957142D01*
X67272438Y-125957142D02*
X67367676Y-125861904D01*
X67367676Y-125861904D02*
X67462914Y-125814285D01*
X67462914Y-125814285D02*
X67653390Y-125766666D01*
X67653390Y-125766666D02*
X67796247Y-125766666D01*
X67796247Y-125766666D02*
X67986723Y-125814285D01*
X67986723Y-125814285D02*
X68081961Y-125861904D01*
X68081961Y-125861904D02*
X68177200Y-125957142D01*
X68177200Y-125957142D02*
X68224819Y-126099999D01*
X68224819Y-126099999D02*
X68224819Y-126338094D01*
X68224819Y-124814285D02*
X68224819Y-125385713D01*
X68224819Y-125099999D02*
X67224819Y-125099999D01*
X67224819Y-125099999D02*
X67367676Y-125195237D01*
X67367676Y-125195237D02*
X67462914Y-125290475D01*
X67462914Y-125290475D02*
X67510533Y-125385713D01*
%TO.C,R2*%
D11*
X70239940Y-124177341D02*
X70022659Y-123960060D01*
X70777341Y-123639940D02*
X70560060Y-123422659D01*
%TO.C,J1*%
X55890000Y-117172000D02*
X61889999Y-117172000D01*
X55890000Y-118032000D02*
X55890000Y-117172000D01*
X55890000Y-119712000D02*
X61890000Y-119712000D01*
X55890000Y-120572000D02*
X55890000Y-119712000D01*
X55890000Y-122252000D02*
X61890000Y-122252000D01*
X55890000Y-123112000D02*
X55890000Y-122252000D01*
X55890000Y-124792000D02*
X61890000Y-124792000D01*
X55890000Y-125652000D02*
X55890000Y-124792000D01*
X55890000Y-127332000D02*
X61889999Y-127332000D01*
X55890000Y-128192000D02*
X55890000Y-127332000D01*
X55890000Y-129872000D02*
X61889999Y-129872000D01*
X55890000Y-130732000D02*
X55890000Y-129872000D01*
X55890000Y-132412000D02*
X61890000Y-132412000D01*
X55890000Y-133272000D02*
X55890000Y-132412000D01*
X61889999Y-120572000D02*
X55890000Y-120572000D01*
X61889999Y-130732000D02*
X55890000Y-130732000D01*
X61890000Y-118032000D02*
X55890000Y-118032000D01*
X61890000Y-123112000D02*
X55890000Y-123112000D01*
X61890000Y-125652000D02*
X55890000Y-125652000D01*
X61890000Y-128192000D02*
X55890000Y-128192000D01*
X61890000Y-133272000D02*
X55890000Y-133272000D01*
X64650000Y-121412000D02*
X61890000Y-121412000D01*
X64650000Y-123952000D02*
X61889999Y-123952000D01*
X64650000Y-126492000D02*
X61890000Y-126492000D01*
X64650000Y-131572000D02*
X61890000Y-131572000D01*
X64650000Y-134112000D02*
X61889999Y-134112000D01*
X64650001Y-118872000D02*
X61890000Y-118872000D01*
X64650001Y-129032000D02*
X61890000Y-129032000D01*
X64880000Y-134952000D02*
X64650000Y-134952001D01*
X64880000Y-135812000D02*
X64650000Y-135811999D01*
X64962642Y-117172000D02*
X64650000Y-117172000D01*
X64962642Y-118032000D02*
X64650000Y-118032000D01*
X64962642Y-119712000D02*
X64650000Y-119712000D01*
X64962642Y-120572000D02*
X64650000Y-120572000D01*
X64962642Y-122252000D02*
X64650001Y-122252000D01*
X64962642Y-123112000D02*
X64650000Y-123112000D01*
X64962642Y-124792000D02*
X64650000Y-124792000D01*
X64962642Y-125652000D02*
X64650001Y-125652000D01*
X64962642Y-127332000D02*
X64650000Y-127332000D01*
X64962642Y-128192000D02*
X64650000Y-128192000D01*
X64962642Y-129872000D02*
X64650000Y-129872000D01*
X64962642Y-130732000D02*
X64650000Y-130732000D01*
X64962642Y-132412000D02*
X64650000Y-132411999D01*
X64962642Y-133272000D02*
X64650000Y-133272000D01*
X67310000Y-136652000D02*
X66040000Y-136652001D01*
X67310001Y-135382000D02*
X67310000Y-136652000D01*
X61890000Y-135812000D02*
X55890000Y-135812000D01*
X55890000Y-134952000D01*
X61890000Y-134952000D01*
X61890000Y-135812000D01*
G36*
X61890000Y-135812000D02*
G01*
X55890000Y-135812000D01*
X55890000Y-134952000D01*
X61890000Y-134952000D01*
X61890000Y-135812000D01*
G37*
X64650000Y-136762000D02*
X61890000Y-136761999D01*
X61890000Y-116222000D01*
X64650001Y-116222000D01*
X64650000Y-136762000D01*
%TO.C,U2*%
X70544400Y-127053300D02*
X70814400Y-127053300D01*
X70544400Y-132573300D02*
X70544400Y-127053300D01*
X70814400Y-132573300D02*
X70544400Y-132573300D01*
X75794400Y-127053300D02*
X76064400Y-127053300D01*
X76064400Y-127053300D02*
X76064400Y-132573300D01*
X76064400Y-132573300D02*
X75794400Y-132573300D01*
X75804400Y-126223300D02*
X76274400Y-125883300D01*
X76274400Y-126563300D01*
X75804400Y-126223300D01*
G36*
X76274400Y-126563300D02*
G01*
X75804400Y-126223300D01*
X76274400Y-125883300D01*
X76274400Y-126563300D01*
G37*
%TO.C,C1*%
X69029190Y-129098307D02*
X69181693Y-129250810D01*
X69538307Y-128589190D02*
X69690810Y-128741693D01*
%TO.C,R1*%
X69446359Y-135220000D02*
X69753641Y-135220000D01*
X69446359Y-135980000D02*
X69753641Y-135980000D01*
%TO.C,D1*%
X68465000Y-124800000D02*
X68465000Y-127085000D01*
X68465000Y-127085000D02*
X69935000Y-127085000D01*
X69935000Y-127085000D02*
X69935000Y-124800000D01*
%TD*%
%LPC*%
D12*
%TO.C,R2*%
X70760624Y-124160624D03*
X70039376Y-123439376D03*
%TD*%
D13*
%TO.C,J1*%
X66040000Y-135382000D03*
D14*
X66040000Y-132842000D03*
X66040000Y-130302001D03*
X66040000Y-127762000D03*
X66040000Y-125222000D03*
X66040000Y-122682000D03*
X66040000Y-120142000D03*
X66040000Y-117601999D03*
%TD*%
D15*
%TO.C,U2*%
X75209400Y-126225800D03*
X73939400Y-126225800D03*
X72669400Y-126225800D03*
X71399400Y-126225800D03*
X71399400Y-133400800D03*
X72669400Y-133400800D03*
X73939400Y-133400800D03*
X75209400Y-133400800D03*
%TD*%
D16*
%TO.C,C1*%
X69020589Y-128580589D03*
X69699411Y-129259411D03*
%TD*%
D17*
%TO.C,R1*%
X69090001Y-135600000D03*
X70109999Y-135600000D03*
%TD*%
D18*
%TO.C,D1*%
X69200000Y-126387501D03*
X69200000Y-124812499D03*
%TD*%
%LPD*%
M02*
