%TF.GenerationSoftware,KiCad,Pcbnew,10.0.3*%
%TF.CreationDate,2026-06-18T12:13:33+05:30*%
%TF.ProjectId,ULTRASprig,554c5452-4153-4707-9269-672e6b696361,rev?*%
%TF.SameCoordinates,Original*%
%TF.FileFunction,Legend,Bot*%
%TF.FilePolarity,Positive*%
%FSLAX46Y46*%
G04 Gerber Fmt 4.6, Leading zero omitted, Abs format (unit mm)*
G04 Created by KiCad (PCBNEW 10.0.3) date 2026-06-18 12:13:33*
%MOMM*%
%LPD*%
G01*
G04 APERTURE LIST*
G04 Aperture macros list*
%AMRoundRect*
0 Rectangle with rounded corners*
0 $1 Rounding radius*
0 $2 $3 $4 $5 $6 $7 $8 $9 X,Y pos of 4 corners*
0 Add a 4 corners polygon primitive as box body*
4,1,4,$2,$3,$4,$5,$6,$7,$8,$9,$2,$3,0*
0 Add four circle primitives for the rounded corners*
1,1,$1+$1,$2,$3*
1,1,$1+$1,$4,$5*
1,1,$1+$1,$6,$7*
1,1,$1+$1,$8,$9*
0 Add four rect primitives between the rounded corners*
20,1,$1+$1,$2,$3,$4,$5,0*
20,1,$1+$1,$4,$5,$6,$7,0*
20,1,$1+$1,$6,$7,$8,$9,0*
20,1,$1+$1,$8,$9,$2,$3,0*%
G04 Aperture macros list end*
%ADD10C,0.100000*%
%ADD11C,0.150000*%
%ADD12C,0.120000*%
%ADD13R,1.700000X1.700000*%
%ADD14C,1.700000*%
%ADD15O,3.200000X1.900000*%
%ADD16C,2.200000*%
%ADD17C,4.000000*%
%ADD18R,1.500000X1.500000*%
%ADD19C,1.500000*%
%ADD20RoundRect,0.200000X-0.200000X-0.275000X0.200000X-0.275000X0.200000X0.275000X-0.200000X0.275000X0*%
%ADD21R,1.000000X0.900000*%
G04 APERTURE END LIST*
D10*
X240154782Y-76564609D02*
X240011925Y-76612228D01*
X240011925Y-76612228D02*
X239964306Y-76659847D01*
X239964306Y-76659847D02*
X239916687Y-76755085D01*
X239916687Y-76755085D02*
X239916687Y-76897942D01*
X239916687Y-76897942D02*
X239964306Y-76993180D01*
X239964306Y-76993180D02*
X240011925Y-77040800D01*
X240011925Y-77040800D02*
X240107163Y-77088419D01*
X240107163Y-77088419D02*
X240488115Y-77088419D01*
X240488115Y-77088419D02*
X240488115Y-76088419D01*
X240488115Y-76088419D02*
X240154782Y-76088419D01*
X240154782Y-76088419D02*
X240059544Y-76136038D01*
X240059544Y-76136038D02*
X240011925Y-76183657D01*
X240011925Y-76183657D02*
X239964306Y-76278895D01*
X239964306Y-76278895D02*
X239964306Y-76374133D01*
X239964306Y-76374133D02*
X240011925Y-76469371D01*
X240011925Y-76469371D02*
X240059544Y-76516990D01*
X240059544Y-76516990D02*
X240154782Y-76564609D01*
X240154782Y-76564609D02*
X240488115Y-76564609D01*
X239059544Y-77088419D02*
X239059544Y-76564609D01*
X239059544Y-76564609D02*
X239107163Y-76469371D01*
X239107163Y-76469371D02*
X239202401Y-76421752D01*
X239202401Y-76421752D02*
X239392877Y-76421752D01*
X239392877Y-76421752D02*
X239488115Y-76469371D01*
X239059544Y-77040800D02*
X239154782Y-77088419D01*
X239154782Y-77088419D02*
X239392877Y-77088419D01*
X239392877Y-77088419D02*
X239488115Y-77040800D01*
X239488115Y-77040800D02*
X239535734Y-76945561D01*
X239535734Y-76945561D02*
X239535734Y-76850323D01*
X239535734Y-76850323D02*
X239488115Y-76755085D01*
X239488115Y-76755085D02*
X239392877Y-76707466D01*
X239392877Y-76707466D02*
X239154782Y-76707466D01*
X239154782Y-76707466D02*
X239059544Y-76659847D01*
X238726210Y-76421752D02*
X238345258Y-76421752D01*
X238583353Y-76088419D02*
X238583353Y-76945561D01*
X238583353Y-76945561D02*
X238535734Y-77040800D01*
X238535734Y-77040800D02*
X238440496Y-77088419D01*
X238440496Y-77088419D02*
X238345258Y-77088419D01*
X238154781Y-76421752D02*
X237773829Y-76421752D01*
X238011924Y-76088419D02*
X238011924Y-76945561D01*
X238011924Y-76945561D02*
X237964305Y-77040800D01*
X237964305Y-77040800D02*
X237869067Y-77088419D01*
X237869067Y-77088419D02*
X237773829Y-77088419D01*
X237059543Y-77040800D02*
X237154781Y-77088419D01*
X237154781Y-77088419D02*
X237345257Y-77088419D01*
X237345257Y-77088419D02*
X237440495Y-77040800D01*
X237440495Y-77040800D02*
X237488114Y-76945561D01*
X237488114Y-76945561D02*
X237488114Y-76564609D01*
X237488114Y-76564609D02*
X237440495Y-76469371D01*
X237440495Y-76469371D02*
X237345257Y-76421752D01*
X237345257Y-76421752D02*
X237154781Y-76421752D01*
X237154781Y-76421752D02*
X237059543Y-76469371D01*
X237059543Y-76469371D02*
X237011924Y-76564609D01*
X237011924Y-76564609D02*
X237011924Y-76659847D01*
X237011924Y-76659847D02*
X237488114Y-76755085D01*
X236583352Y-77088419D02*
X236583352Y-76421752D01*
X236583352Y-76612228D02*
X236535733Y-76516990D01*
X236535733Y-76516990D02*
X236488114Y-76469371D01*
X236488114Y-76469371D02*
X236392876Y-76421752D01*
X236392876Y-76421752D02*
X236297638Y-76421752D01*
X236059542Y-76421752D02*
X235821447Y-77088419D01*
X235583352Y-76421752D02*
X235821447Y-77088419D01*
X235821447Y-77088419D02*
X235916685Y-77326514D01*
X235916685Y-77326514D02*
X235964304Y-77374133D01*
X235964304Y-77374133D02*
X236059542Y-77421752D01*
X234440494Y-76707466D02*
X233678590Y-76707466D01*
X233202399Y-76421752D02*
X232440495Y-76707466D01*
X232440495Y-76707466D02*
X233202399Y-76993180D01*
X230869066Y-76564609D02*
X230726209Y-76612228D01*
X230726209Y-76612228D02*
X230678590Y-76659847D01*
X230678590Y-76659847D02*
X230630971Y-76755085D01*
X230630971Y-76755085D02*
X230630971Y-76897942D01*
X230630971Y-76897942D02*
X230678590Y-76993180D01*
X230678590Y-76993180D02*
X230726209Y-77040800D01*
X230726209Y-77040800D02*
X230821447Y-77088419D01*
X230821447Y-77088419D02*
X231202399Y-77088419D01*
X231202399Y-77088419D02*
X231202399Y-76088419D01*
X231202399Y-76088419D02*
X230869066Y-76088419D01*
X230869066Y-76088419D02*
X230773828Y-76136038D01*
X230773828Y-76136038D02*
X230726209Y-76183657D01*
X230726209Y-76183657D02*
X230678590Y-76278895D01*
X230678590Y-76278895D02*
X230678590Y-76374133D01*
X230678590Y-76374133D02*
X230726209Y-76469371D01*
X230726209Y-76469371D02*
X230773828Y-76516990D01*
X230773828Y-76516990D02*
X230869066Y-76564609D01*
X230869066Y-76564609D02*
X231202399Y-76564609D01*
X230059542Y-77088419D02*
X230154780Y-77040800D01*
X230154780Y-77040800D02*
X230202399Y-76993180D01*
X230202399Y-76993180D02*
X230250018Y-76897942D01*
X230250018Y-76897942D02*
X230250018Y-76612228D01*
X230250018Y-76612228D02*
X230202399Y-76516990D01*
X230202399Y-76516990D02*
X230154780Y-76469371D01*
X230154780Y-76469371D02*
X230059542Y-76421752D01*
X230059542Y-76421752D02*
X229916685Y-76421752D01*
X229916685Y-76421752D02*
X229821447Y-76469371D01*
X229821447Y-76469371D02*
X229773828Y-76516990D01*
X229773828Y-76516990D02*
X229726209Y-76612228D01*
X229726209Y-76612228D02*
X229726209Y-76897942D01*
X229726209Y-76897942D02*
X229773828Y-76993180D01*
X229773828Y-76993180D02*
X229821447Y-77040800D01*
X229821447Y-77040800D02*
X229916685Y-77088419D01*
X229916685Y-77088419D02*
X230059542Y-77088419D01*
X228869066Y-77088419D02*
X228869066Y-76564609D01*
X228869066Y-76564609D02*
X228916685Y-76469371D01*
X228916685Y-76469371D02*
X229011923Y-76421752D01*
X229011923Y-76421752D02*
X229202399Y-76421752D01*
X229202399Y-76421752D02*
X229297637Y-76469371D01*
X228869066Y-77040800D02*
X228964304Y-77088419D01*
X228964304Y-77088419D02*
X229202399Y-77088419D01*
X229202399Y-77088419D02*
X229297637Y-77040800D01*
X229297637Y-77040800D02*
X229345256Y-76945561D01*
X229345256Y-76945561D02*
X229345256Y-76850323D01*
X229345256Y-76850323D02*
X229297637Y-76755085D01*
X229297637Y-76755085D02*
X229202399Y-76707466D01*
X229202399Y-76707466D02*
X228964304Y-76707466D01*
X228964304Y-76707466D02*
X228869066Y-76659847D01*
X228392875Y-77088419D02*
X228392875Y-76421752D01*
X228392875Y-76612228D02*
X228345256Y-76516990D01*
X228345256Y-76516990D02*
X228297637Y-76469371D01*
X228297637Y-76469371D02*
X228202399Y-76421752D01*
X228202399Y-76421752D02*
X228107161Y-76421752D01*
X227345256Y-77088419D02*
X227345256Y-76088419D01*
X227345256Y-77040800D02*
X227440494Y-77088419D01*
X227440494Y-77088419D02*
X227630970Y-77088419D01*
X227630970Y-77088419D02*
X227726208Y-77040800D01*
X227726208Y-77040800D02*
X227773827Y-76993180D01*
X227773827Y-76993180D02*
X227821446Y-76897942D01*
X227821446Y-76897942D02*
X227821446Y-76612228D01*
X227821446Y-76612228D02*
X227773827Y-76516990D01*
X227773827Y-76516990D02*
X227726208Y-76469371D01*
X227726208Y-76469371D02*
X227630970Y-76421752D01*
X227630970Y-76421752D02*
X227440494Y-76421752D01*
X227440494Y-76421752D02*
X227345256Y-76469371D01*
X239632609Y-64645217D02*
X239680228Y-64788074D01*
X239680228Y-64788074D02*
X239727847Y-64835693D01*
X239727847Y-64835693D02*
X239823085Y-64883312D01*
X239823085Y-64883312D02*
X239965942Y-64883312D01*
X239965942Y-64883312D02*
X240061180Y-64835693D01*
X240061180Y-64835693D02*
X240108800Y-64788074D01*
X240108800Y-64788074D02*
X240156419Y-64692836D01*
X240156419Y-64692836D02*
X240156419Y-64311884D01*
X240156419Y-64311884D02*
X239156419Y-64311884D01*
X239156419Y-64311884D02*
X239156419Y-64645217D01*
X239156419Y-64645217D02*
X239204038Y-64740455D01*
X239204038Y-64740455D02*
X239251657Y-64788074D01*
X239251657Y-64788074D02*
X239346895Y-64835693D01*
X239346895Y-64835693D02*
X239442133Y-64835693D01*
X239442133Y-64835693D02*
X239537371Y-64788074D01*
X239537371Y-64788074D02*
X239584990Y-64740455D01*
X239584990Y-64740455D02*
X239632609Y-64645217D01*
X239632609Y-64645217D02*
X239632609Y-64311884D01*
X240156419Y-65454741D02*
X240108800Y-65359503D01*
X240108800Y-65359503D02*
X240061180Y-65311884D01*
X240061180Y-65311884D02*
X239965942Y-65264265D01*
X239965942Y-65264265D02*
X239680228Y-65264265D01*
X239680228Y-65264265D02*
X239584990Y-65311884D01*
X239584990Y-65311884D02*
X239537371Y-65359503D01*
X239537371Y-65359503D02*
X239489752Y-65454741D01*
X239489752Y-65454741D02*
X239489752Y-65597598D01*
X239489752Y-65597598D02*
X239537371Y-65692836D01*
X239537371Y-65692836D02*
X239584990Y-65740455D01*
X239584990Y-65740455D02*
X239680228Y-65788074D01*
X239680228Y-65788074D02*
X239965942Y-65788074D01*
X239965942Y-65788074D02*
X240061180Y-65740455D01*
X240061180Y-65740455D02*
X240108800Y-65692836D01*
X240108800Y-65692836D02*
X240156419Y-65597598D01*
X240156419Y-65597598D02*
X240156419Y-65454741D01*
X240156419Y-66645217D02*
X239632609Y-66645217D01*
X239632609Y-66645217D02*
X239537371Y-66597598D01*
X239537371Y-66597598D02*
X239489752Y-66502360D01*
X239489752Y-66502360D02*
X239489752Y-66311884D01*
X239489752Y-66311884D02*
X239537371Y-66216646D01*
X240108800Y-66645217D02*
X240156419Y-66549979D01*
X240156419Y-66549979D02*
X240156419Y-66311884D01*
X240156419Y-66311884D02*
X240108800Y-66216646D01*
X240108800Y-66216646D02*
X240013561Y-66169027D01*
X240013561Y-66169027D02*
X239918323Y-66169027D01*
X239918323Y-66169027D02*
X239823085Y-66216646D01*
X239823085Y-66216646D02*
X239775466Y-66311884D01*
X239775466Y-66311884D02*
X239775466Y-66549979D01*
X239775466Y-66549979D02*
X239727847Y-66645217D01*
X240156419Y-67121408D02*
X239489752Y-67121408D01*
X239680228Y-67121408D02*
X239584990Y-67169027D01*
X239584990Y-67169027D02*
X239537371Y-67216646D01*
X239537371Y-67216646D02*
X239489752Y-67311884D01*
X239489752Y-67311884D02*
X239489752Y-67407122D01*
X240156419Y-68169027D02*
X239156419Y-68169027D01*
X240108800Y-68169027D02*
X240156419Y-68073789D01*
X240156419Y-68073789D02*
X240156419Y-67883313D01*
X240156419Y-67883313D02*
X240108800Y-67788075D01*
X240108800Y-67788075D02*
X240061180Y-67740456D01*
X240061180Y-67740456D02*
X239965942Y-67692837D01*
X239965942Y-67692837D02*
X239680228Y-67692837D01*
X239680228Y-67692837D02*
X239584990Y-67740456D01*
X239584990Y-67740456D02*
X239537371Y-67788075D01*
X239537371Y-67788075D02*
X239489752Y-67883313D01*
X239489752Y-67883313D02*
X239489752Y-68073789D01*
X239489752Y-68073789D02*
X239537371Y-68169027D01*
X239775466Y-69407123D02*
X239775466Y-70169028D01*
X239489752Y-70645218D02*
X239775466Y-71407123D01*
X239775466Y-71407123D02*
X240061180Y-70645218D01*
X240156419Y-72645218D02*
X239156419Y-72645218D01*
X239156419Y-72645218D02*
X239870704Y-72978551D01*
X239870704Y-72978551D02*
X239156419Y-73311884D01*
X239156419Y-73311884D02*
X240156419Y-73311884D01*
X240061180Y-74359503D02*
X240108800Y-74311884D01*
X240108800Y-74311884D02*
X240156419Y-74169027D01*
X240156419Y-74169027D02*
X240156419Y-74073789D01*
X240156419Y-74073789D02*
X240108800Y-73930932D01*
X240108800Y-73930932D02*
X240013561Y-73835694D01*
X240013561Y-73835694D02*
X239918323Y-73788075D01*
X239918323Y-73788075D02*
X239727847Y-73740456D01*
X239727847Y-73740456D02*
X239584990Y-73740456D01*
X239584990Y-73740456D02*
X239394514Y-73788075D01*
X239394514Y-73788075D02*
X239299276Y-73835694D01*
X239299276Y-73835694D02*
X239204038Y-73930932D01*
X239204038Y-73930932D02*
X239156419Y-74073789D01*
X239156419Y-74073789D02*
X239156419Y-74169027D01*
X239156419Y-74169027D02*
X239204038Y-74311884D01*
X239204038Y-74311884D02*
X239251657Y-74359503D01*
X239156419Y-74788075D02*
X239965942Y-74788075D01*
X239965942Y-74788075D02*
X240061180Y-74835694D01*
X240061180Y-74835694D02*
X240108800Y-74883313D01*
X240108800Y-74883313D02*
X240156419Y-74978551D01*
X240156419Y-74978551D02*
X240156419Y-75169027D01*
X240156419Y-75169027D02*
X240108800Y-75264265D01*
X240108800Y-75264265D02*
X240061180Y-75311884D01*
X240061180Y-75311884D02*
X239965942Y-75359503D01*
X239965942Y-75359503D02*
X239156419Y-75359503D01*
D11*
X155644819Y-101710476D02*
X156359104Y-101710476D01*
X156359104Y-101710476D02*
X156501961Y-101662857D01*
X156501961Y-101662857D02*
X156597200Y-101567619D01*
X156597200Y-101567619D02*
X156644819Y-101424762D01*
X156644819Y-101424762D02*
X156644819Y-101329524D01*
X156644819Y-102710476D02*
X156644819Y-102139048D01*
X156644819Y-102424762D02*
X155644819Y-102424762D01*
X155644819Y-102424762D02*
X155787676Y-102329524D01*
X155787676Y-102329524D02*
X155882914Y-102234286D01*
X155882914Y-102234286D02*
X155930533Y-102139048D01*
X155644819Y-103043810D02*
X155644819Y-103662857D01*
X155644819Y-103662857D02*
X156025771Y-103329524D01*
X156025771Y-103329524D02*
X156025771Y-103472381D01*
X156025771Y-103472381D02*
X156073390Y-103567619D01*
X156073390Y-103567619D02*
X156121009Y-103615238D01*
X156121009Y-103615238D02*
X156216247Y-103662857D01*
X156216247Y-103662857D02*
X156454342Y-103662857D01*
X156454342Y-103662857D02*
X156549580Y-103615238D01*
X156549580Y-103615238D02*
X156597200Y-103567619D01*
X156597200Y-103567619D02*
X156644819Y-103472381D01*
X156644819Y-103472381D02*
X156644819Y-103186667D01*
X156644819Y-103186667D02*
X156597200Y-103091429D01*
X156597200Y-103091429D02*
X156549580Y-103043810D01*
X176122133Y-68287419D02*
X176122133Y-69001704D01*
X176122133Y-69001704D02*
X176169752Y-69144561D01*
X176169752Y-69144561D02*
X176264990Y-69239800D01*
X176264990Y-69239800D02*
X176407847Y-69287419D01*
X176407847Y-69287419D02*
X176503085Y-69287419D01*
X175122133Y-69287419D02*
X175693561Y-69287419D01*
X175407847Y-69287419D02*
X175407847Y-68287419D01*
X175407847Y-68287419D02*
X175503085Y-68430276D01*
X175503085Y-68430276D02*
X175598323Y-68525514D01*
X175598323Y-68525514D02*
X175693561Y-68573133D01*
X177835819Y-67687866D02*
X178550104Y-67687866D01*
X178550104Y-67687866D02*
X178692961Y-67640247D01*
X178692961Y-67640247D02*
X178788200Y-67545009D01*
X178788200Y-67545009D02*
X178835819Y-67402152D01*
X178835819Y-67402152D02*
X178835819Y-67306914D01*
X178169152Y-68592628D02*
X178835819Y-68592628D01*
X177788200Y-68354533D02*
X178502485Y-68116438D01*
X178502485Y-68116438D02*
X178502485Y-68735485D01*
X164416666Y-73134819D02*
X164749999Y-72658628D01*
X164988094Y-73134819D02*
X164988094Y-72134819D01*
X164988094Y-72134819D02*
X164607142Y-72134819D01*
X164607142Y-72134819D02*
X164511904Y-72182438D01*
X164511904Y-72182438D02*
X164464285Y-72230057D01*
X164464285Y-72230057D02*
X164416666Y-72325295D01*
X164416666Y-72325295D02*
X164416666Y-72468152D01*
X164416666Y-72468152D02*
X164464285Y-72563390D01*
X164464285Y-72563390D02*
X164511904Y-72611009D01*
X164511904Y-72611009D02*
X164607142Y-72658628D01*
X164607142Y-72658628D02*
X164988094Y-72658628D01*
X164035713Y-72230057D02*
X163988094Y-72182438D01*
X163988094Y-72182438D02*
X163892856Y-72134819D01*
X163892856Y-72134819D02*
X163654761Y-72134819D01*
X163654761Y-72134819D02*
X163559523Y-72182438D01*
X163559523Y-72182438D02*
X163511904Y-72230057D01*
X163511904Y-72230057D02*
X163464285Y-72325295D01*
X163464285Y-72325295D02*
X163464285Y-72420533D01*
X163464285Y-72420533D02*
X163511904Y-72563390D01*
X163511904Y-72563390D02*
X164083332Y-73134819D01*
X164083332Y-73134819D02*
X163464285Y-73134819D01*
X177912019Y-97685266D02*
X178626304Y-97685266D01*
X178626304Y-97685266D02*
X178769161Y-97637647D01*
X178769161Y-97637647D02*
X178864400Y-97542409D01*
X178864400Y-97542409D02*
X178912019Y-97399552D01*
X178912019Y-97399552D02*
X178912019Y-97304314D01*
X177912019Y-98066219D02*
X177912019Y-98685266D01*
X177912019Y-98685266D02*
X178292971Y-98351933D01*
X178292971Y-98351933D02*
X178292971Y-98494790D01*
X178292971Y-98494790D02*
X178340590Y-98590028D01*
X178340590Y-98590028D02*
X178388209Y-98637647D01*
X178388209Y-98637647D02*
X178483447Y-98685266D01*
X178483447Y-98685266D02*
X178721542Y-98685266D01*
X178721542Y-98685266D02*
X178816780Y-98637647D01*
X178816780Y-98637647D02*
X178864400Y-98590028D01*
X178864400Y-98590028D02*
X178912019Y-98494790D01*
X178912019Y-98494790D02*
X178912019Y-98209076D01*
X178912019Y-98209076D02*
X178864400Y-98113838D01*
X178864400Y-98113838D02*
X178816780Y-98066219D01*
X165757199Y-70640477D02*
X165804818Y-70783334D01*
X165804818Y-70783334D02*
X165804818Y-71021429D01*
X165804818Y-71021429D02*
X165757199Y-71116667D01*
X165757199Y-71116667D02*
X165709579Y-71164286D01*
X165709579Y-71164286D02*
X165614341Y-71211905D01*
X165614341Y-71211905D02*
X165519103Y-71211905D01*
X165519103Y-71211905D02*
X165423865Y-71164286D01*
X165423865Y-71164286D02*
X165376246Y-71116667D01*
X165376246Y-71116667D02*
X165328627Y-71021429D01*
X165328627Y-71021429D02*
X165281008Y-70830953D01*
X165281008Y-70830953D02*
X165233389Y-70735715D01*
X165233389Y-70735715D02*
X165185770Y-70688096D01*
X165185770Y-70688096D02*
X165090532Y-70640477D01*
X165090532Y-70640477D02*
X164995294Y-70640477D01*
X164995294Y-70640477D02*
X164900056Y-70688096D01*
X164900056Y-70688096D02*
X164852437Y-70735715D01*
X164852437Y-70735715D02*
X164804818Y-70830953D01*
X164804818Y-70830953D02*
X164804818Y-71069048D01*
X164804818Y-71069048D02*
X164852437Y-71211905D01*
X164804818Y-71545239D02*
X165804818Y-71783334D01*
X165804818Y-71783334D02*
X165090532Y-71973810D01*
X165090532Y-71973810D02*
X165804818Y-72164286D01*
X165804818Y-72164286D02*
X164804818Y-72402382D01*
X165804818Y-73307143D02*
X165804818Y-72735715D01*
X165804818Y-73021429D02*
X164804818Y-73021429D01*
X164804818Y-73021429D02*
X164947675Y-72926191D01*
X164947675Y-72926191D02*
X165042913Y-72830953D01*
X165042913Y-72830953D02*
X165090532Y-72735715D01*
X164804818Y-73926191D02*
X164804818Y-74021429D01*
X164804818Y-74021429D02*
X164852437Y-74116667D01*
X164852437Y-74116667D02*
X164900056Y-74164286D01*
X164900056Y-74164286D02*
X164995294Y-74211905D01*
X164995294Y-74211905D02*
X165185770Y-74259524D01*
X165185770Y-74259524D02*
X165423865Y-74259524D01*
X165423865Y-74259524D02*
X165614341Y-74211905D01*
X165614341Y-74211905D02*
X165709579Y-74164286D01*
X165709579Y-74164286D02*
X165757199Y-74116667D01*
X165757199Y-74116667D02*
X165804818Y-74021429D01*
X165804818Y-74021429D02*
X165804818Y-73926191D01*
X165804818Y-73926191D02*
X165757199Y-73830953D01*
X165757199Y-73830953D02*
X165709579Y-73783334D01*
X165709579Y-73783334D02*
X165614341Y-73735715D01*
X165614341Y-73735715D02*
X165423865Y-73688096D01*
X165423865Y-73688096D02*
X165185770Y-73688096D01*
X165185770Y-73688096D02*
X164995294Y-73735715D01*
X164995294Y-73735715D02*
X164900056Y-73783334D01*
X164900056Y-73783334D02*
X164852437Y-73830953D01*
X164852437Y-73830953D02*
X164804818Y-73926191D01*
X147826533Y-68262019D02*
X147826533Y-68976304D01*
X147826533Y-68976304D02*
X147874152Y-69119161D01*
X147874152Y-69119161D02*
X147969390Y-69214400D01*
X147969390Y-69214400D02*
X148112247Y-69262019D01*
X148112247Y-69262019D02*
X148207485Y-69262019D01*
X147397961Y-68357257D02*
X147350342Y-68309638D01*
X147350342Y-68309638D02*
X147255104Y-68262019D01*
X147255104Y-68262019D02*
X147017009Y-68262019D01*
X147017009Y-68262019D02*
X146921771Y-68309638D01*
X146921771Y-68309638D02*
X146874152Y-68357257D01*
X146874152Y-68357257D02*
X146826533Y-68452495D01*
X146826533Y-68452495D02*
X146826533Y-68547733D01*
X146826533Y-68547733D02*
X146874152Y-68690590D01*
X146874152Y-68690590D02*
X147445580Y-69262019D01*
X147445580Y-69262019D02*
X146826533Y-69262019D01*
%TO.C,J13*%
D12*
X157630000Y-102520000D02*
X157630000Y-103850000D01*
X157630000Y-103850000D02*
X158960000Y-103850000D01*
X160230001Y-101190000D02*
X160230001Y-103850000D01*
X160230001Y-101190000D02*
X175529999Y-101190000D01*
X160230001Y-103850000D02*
X175529999Y-103850000D01*
X175529999Y-101190000D02*
X175529999Y-103850000D01*
%TO.C,J1*%
X174458800Y-70272600D02*
X174458800Y-71602600D01*
X174458800Y-72872600D02*
X174458800Y-95792600D01*
X175788800Y-70272600D02*
X174458800Y-70272600D01*
X177118800Y-72872600D02*
X174458800Y-72872600D01*
X177118800Y-72872600D02*
X177118800Y-95792600D01*
X177118800Y-95792600D02*
X174458800Y-95792600D01*
%TO.C,J4*%
X161581000Y-69351200D02*
X161581000Y-66691200D01*
X174340999Y-66691200D02*
X161581000Y-66691200D01*
X174340999Y-69351200D02*
X161581000Y-69351200D01*
X174340999Y-69351200D02*
X174340999Y-66691200D01*
X176941000Y-66691200D02*
X175611000Y-66691200D01*
X176941000Y-68021200D02*
X176941000Y-66691200D01*
%TO.C,J6*%
X232405000Y-75630000D02*
X232405000Y-72870000D01*
X235055000Y-72870000D02*
X232405000Y-72870000D01*
X235055000Y-75630000D02*
X232405000Y-75630000D01*
X235055000Y-75630000D02*
X235055000Y-72870000D01*
X236325000Y-75629999D02*
X237705000Y-75630000D01*
X237705000Y-75630000D02*
X237704999Y-74250000D01*
%TO.C,R2*%
X164012742Y-70727500D02*
X164487258Y-70727500D01*
X164012742Y-71772500D02*
X164487258Y-71772500D01*
%TO.C,J3*%
X146417200Y-99348601D02*
X146417200Y-96688599D01*
X174417199Y-96688600D02*
X146417200Y-96688599D01*
X174417199Y-99348600D02*
X146417200Y-99348601D01*
X174417199Y-99348600D02*
X174417199Y-96688600D01*
X177017200Y-96688600D02*
X175687200Y-96688600D01*
X177017200Y-98018600D02*
X177017200Y-96688600D01*
%TO.C,SW10*%
X166250000Y-74650000D02*
X166250000Y-70250002D01*
X167850000Y-70250001D02*
X167750000Y-70250001D01*
X167850000Y-74650001D02*
X167750000Y-74650001D01*
X169350000Y-70250002D02*
X169350000Y-74650000D01*
%TO.C,J2*%
X146163200Y-70247200D02*
X146163200Y-71577200D01*
X146163200Y-72847200D02*
X146163200Y-95767200D01*
X147493200Y-70247200D02*
X146163200Y-70247200D01*
X148823200Y-72847200D02*
X146163200Y-72847200D01*
X148823200Y-72847200D02*
X148823200Y-95767200D01*
X148823200Y-95767200D02*
X146163200Y-95767200D01*
%TO.C,J10*%
X240670000Y-67380000D02*
X243430000Y-67380000D01*
X240670000Y-70030000D02*
X240670000Y-67380000D01*
X240670000Y-70030000D02*
X243430000Y-70030000D01*
X240670000Y-72680000D02*
X242050000Y-72679999D01*
X240670001Y-71300000D02*
X240670000Y-72680000D01*
X243430000Y-70030000D02*
X243430000Y-67380000D01*
%TD*%
%LPC*%
D13*
%TO.C,J9*%
X130683000Y-106680000D03*
D14*
X133223000Y-106680000D03*
X135762999Y-106680000D03*
X138303000Y-106680000D03*
%TD*%
D15*
%TO.C,SW5*%
X98324000Y-95810000D03*
X110824000Y-95810000D03*
X98324000Y-100810000D03*
X110824000Y-100810000D03*
%TD*%
%TO.C,SW3*%
X230180000Y-81160000D03*
X242680000Y-81160000D03*
X230180000Y-86160000D03*
X242680000Y-86160000D03*
%TD*%
%TO.C,SW1*%
X199009000Y-81407000D03*
X211509000Y-81407000D03*
X199009000Y-86407000D03*
X211509000Y-86407000D03*
%TD*%
D13*
%TO.C,J8*%
X149482467Y-106680000D03*
D14*
X152022467Y-106680000D03*
X154562467Y-106680000D03*
X157102467Y-106680000D03*
%TD*%
D13*
%TO.C,J7*%
X185900000Y-61900000D03*
D14*
X183360000Y-61900000D03*
X180820001Y-61900000D03*
X178280000Y-61900000D03*
X175740000Y-61900000D03*
X173200000Y-61900000D03*
X170660000Y-61900000D03*
X168119999Y-61900000D03*
%TD*%
D15*
%TO.C,SW4*%
X214610000Y-66720000D03*
X227110000Y-66720000D03*
X214610000Y-71720000D03*
X227110000Y-71720000D03*
%TD*%
D13*
%TO.C,J5*%
X161280001Y-61900000D03*
D14*
X158740001Y-61900000D03*
X156200002Y-61900000D03*
X153660001Y-61900000D03*
X151120001Y-61900000D03*
X148580001Y-61900000D03*
X146040001Y-61900000D03*
X143500000Y-61900000D03*
%TD*%
D13*
%TO.C,J12*%
X168281933Y-106680000D03*
D14*
X170821933Y-106680000D03*
X173361932Y-106680000D03*
X175901933Y-106680000D03*
%TD*%
D13*
%TO.C,J11*%
X187081400Y-106680000D03*
D14*
X189621400Y-106680000D03*
X192161399Y-106680000D03*
X194701400Y-106680000D03*
%TD*%
D16*
%TO.C,H1*%
X82423000Y-106934000D03*
%TD*%
D15*
%TO.C,SW7*%
X113774000Y-81260000D03*
X126274000Y-81260000D03*
X113774000Y-86260000D03*
X126274000Y-86260000D03*
%TD*%
%TO.C,SW2*%
X214503000Y-95885000D03*
X227003000Y-95885000D03*
X214503000Y-100885000D03*
X227003000Y-100885000D03*
%TD*%
D16*
%TO.C,H3*%
X242000000Y-62500000D03*
%TD*%
D15*
%TO.C,SW8*%
X98287800Y-66750000D03*
X110787800Y-66750000D03*
X98287800Y-71750000D03*
X110787800Y-71750000D03*
%TD*%
D16*
%TO.C,H2*%
X82500000Y-62500000D03*
%TD*%
%TO.C,H4*%
X242000000Y-106950000D03*
%TD*%
D15*
%TO.C,SW6*%
X82804000Y-81360000D03*
X95304000Y-81360000D03*
X82804000Y-86360000D03*
X95304000Y-86360000D03*
%TD*%
D17*
%TO.C,U5*%
X132187400Y-67150000D03*
X132187400Y-101250000D03*
X193387400Y-67150000D03*
X193387400Y-101250000D03*
D18*
X130687400Y-74040000D03*
D19*
X130687400Y-76580000D03*
X130687400Y-79120000D03*
X130687400Y-81660000D03*
X130687400Y-84200000D03*
X130687400Y-86740000D03*
X130687400Y-89280000D03*
X130687400Y-91820000D03*
X130687400Y-94360000D03*
X194207400Y-79120000D03*
X194207400Y-81660000D03*
X194207400Y-84200000D03*
X194207400Y-86740000D03*
X194207400Y-89280000D03*
%TD*%
D13*
%TO.C,J13*%
X158960000Y-102520000D03*
D14*
X161500000Y-102520000D03*
X164039999Y-102520000D03*
X166580000Y-102520000D03*
X169120000Y-102520000D03*
X171660000Y-102520000D03*
X174200000Y-102520000D03*
%TD*%
D13*
%TO.C,J1*%
X175788800Y-71602600D03*
D14*
X175788800Y-74142600D03*
X175788800Y-76682600D03*
X175788800Y-79222600D03*
X175788800Y-81762600D03*
X175788800Y-84302600D03*
X175788800Y-86842600D03*
X175788800Y-89382600D03*
X175788800Y-91922600D03*
X175788800Y-94462600D03*
%TD*%
D13*
%TO.C,J4*%
X175611000Y-68021200D03*
D14*
X173071000Y-68021200D03*
X170531001Y-68021200D03*
X167991000Y-68021200D03*
X165451000Y-68021200D03*
X162911000Y-68021200D03*
%TD*%
D13*
%TO.C,J6*%
X236325000Y-74250000D03*
D14*
X233785000Y-74250000D03*
%TD*%
D20*
%TO.C,R2*%
X163425000Y-71250000D03*
X165075000Y-71250000D03*
%TD*%
D13*
%TO.C,J3*%
X175687200Y-98018600D03*
D14*
X173147200Y-98018600D03*
X170607201Y-98018600D03*
X168067200Y-98018600D03*
X165527200Y-98018600D03*
X162987200Y-98018600D03*
X160447200Y-98018600D03*
X157907199Y-98018600D03*
X155367200Y-98018600D03*
X152827200Y-98018600D03*
X150287200Y-98018600D03*
X147747201Y-98018600D03*
%TD*%
D21*
%TO.C,SW10*%
X167000000Y-70400002D03*
X167000000Y-74500000D03*
X168600000Y-70400002D03*
X168600000Y-74500000D03*
%TD*%
D13*
%TO.C,J2*%
X147493200Y-71577200D03*
D14*
X147493200Y-74117200D03*
X147493200Y-76657200D03*
X147493200Y-79197200D03*
X147493200Y-81737200D03*
X147493200Y-84277200D03*
X147493200Y-86817200D03*
X147493200Y-89357200D03*
X147493200Y-91897200D03*
X147493200Y-94437200D03*
%TD*%
D13*
%TO.C,J10*%
X242050000Y-71300000D03*
D14*
X242050000Y-68760000D03*
%TD*%
%LPD*%
M02*
