%TF.GenerationSoftware,KiCad,Pcbnew,10.0.3*%
%TF.CreationDate,2026-06-18T23:10:55+05:30*%
%TF.ProjectId,ULTRASprig,554c5452-4153-4707-9269-672e6b696361,rev?*%
%TF.SameCoordinates,Original*%
%TF.FileFunction,Paste,Top*%
%TF.FilePolarity,Positive*%
%FSLAX46Y46*%
G04 Gerber Fmt 4.6, Leading zero omitted, Abs format (unit mm)*
G04 Created by KiCad (PCBNEW 10.0.3) date 2026-06-18 23:10:55*
%MOMM*%
%LPD*%
G01*
G04 APERTURE LIST*
G04 Aperture macros list*
%AMRoundRect*
0 Rectangle with rounded corners*
0 $1 Rounding radius*
0 $2 $3 $4 $5 $6 $7 $8 $9 X,Y pos of 4 corners*
0 Add a 4 corners polygon primitive as box body*
4,1,4,$2,$3,$4,$5,$6,$7,$8,$9,$2,$3,0*
0 Add four circle primitives for the rounded corners*
1,1,$1+$1,$2,$3*
1,1,$1+$1,$4,$5*
1,1,$1+$1,$6,$7*
1,1,$1+$1,$8,$9*
0 Add four rect primitives between the rounded corners*
20,1,$1+$1,$2,$3,$4,$5,0*
20,1,$1+$1,$4,$5,$6,$7,0*
20,1,$1+$1,$6,$7,$8,$9,0*
20,1,$1+$1,$8,$9,$2,$3,0*%
G04 Aperture macros list end*
%ADD10R,1.550000X1.300000*%
%ADD11R,1.300000X1.700000*%
%ADD12RoundRect,0.218750X-0.026517X0.335876X-0.335876X0.026517X0.026517X-0.335876X0.335876X-0.026517X0*%
%ADD13RoundRect,0.140000X-0.140000X-0.170000X0.140000X-0.170000X0.140000X0.170000X-0.140000X0.170000X0*%
%ADD14R,1.000000X1.500000*%
%ADD15RoundRect,0.135000X-0.135000X-0.185000X0.135000X-0.185000X0.135000X0.185000X-0.135000X0.185000X0*%
%ADD16RoundRect,0.125000X0.125000X0.125000X-0.125000X0.125000X-0.125000X-0.125000X0.125000X-0.125000X0*%
%ADD17RoundRect,0.062500X0.350000X0.062500X-0.350000X0.062500X-0.350000X-0.062500X0.350000X-0.062500X0*%
%ADD18RoundRect,0.062500X0.062500X0.350000X-0.062500X0.350000X-0.062500X-0.350000X0.062500X-0.350000X0*%
%ADD19RoundRect,0.140000X0.140000X0.170000X-0.140000X0.170000X-0.140000X-0.170000X0.140000X-0.170000X0*%
%ADD20RoundRect,0.200000X-0.335876X-0.053033X-0.053033X-0.335876X0.335876X0.053033X0.053033X0.335876X0*%
G04 APERTURE END LIST*
D10*
%TO.C,SW9*%
X230220000Y-63030000D03*
X238180000Y-63030000D03*
X230220000Y-67530000D03*
X238180000Y-67530000D03*
D11*
X234200000Y-69370000D03*
%TD*%
D12*
%TO.C,D11*%
X236706847Y-70243153D03*
X235593153Y-71356847D03*
%TD*%
D13*
%TO.C,C16*%
X203750000Y-99750000D03*
X204710000Y-99750000D03*
%TD*%
D14*
%TO.C,D10*%
X204820000Y-64230000D03*
X201620000Y-64230000D03*
X201620000Y-69130000D03*
X204820000Y-69130000D03*
%TD*%
D15*
%TO.C,R1*%
X238480000Y-69750000D03*
X239500000Y-69750000D03*
%TD*%
D14*
%TO.C,D9*%
X207352000Y-69201000D03*
X210552000Y-69201000D03*
X210552000Y-64301000D03*
X207352000Y-64301000D03*
%TD*%
D16*
%TO.C,U7*%
X206166700Y-103269600D03*
X206166700Y-102649600D03*
X205546700Y-103269600D03*
X205546700Y-102649600D03*
D17*
X207294200Y-103709600D03*
X207294200Y-103209600D03*
X207294200Y-102709600D03*
X207294200Y-102209600D03*
D18*
X206606700Y-101522100D03*
X206106700Y-101522100D03*
X205606700Y-101522100D03*
X205106700Y-101522100D03*
D17*
X204419200Y-102209600D03*
X204419200Y-102709600D03*
X204419200Y-103209600D03*
X204419200Y-103709600D03*
D18*
X205106700Y-104397100D03*
X205606700Y-104397100D03*
X206106700Y-104397100D03*
X206606700Y-104397100D03*
%TD*%
D19*
%TO.C,C2*%
X127553600Y-72299600D03*
X126593600Y-72299600D03*
%TD*%
D13*
%TO.C,C15*%
X203750000Y-98750000D03*
X204710000Y-98750000D03*
%TD*%
D19*
%TO.C,C1*%
X127553600Y-74269600D03*
X126593600Y-74269600D03*
%TD*%
D20*
%TO.C,R3*%
X207666637Y-98916637D03*
X208833363Y-100083363D03*
%TD*%
M02*
