M48
; DRILL file KiCad 10.0.3 date 2026-06-16T21:09:36
; FORMAT={-:-/ absolute / inch / decimal}
; #@! TF.CreationDate,2026-06-16T21:09:36+05:30
; #@! TF.GenerationSoftware,Kicad,Pcbnew,10.0.3
; #@! TF.FileFunction,Plated,1,2,PTH
FMAT,2
INCH
; #@! TA.AperFunction,Plated,PTH,ViaDrill
T1C0.0118
; #@! TA.AperFunction,Plated,PTH,ComponentDrill
T2C0.0394
; #@! TA.AperFunction,Plated,PTH,ComponentDrill
T3C0.0512
; #@! TA.AperFunction,Plated,PTH,ComponentDrill
T4C0.1063
%
G90
G05
T1
X4.5945Y-3.65
X5.6783Y-2.8945
X5.7224Y-2.9583
X5.952Y-3.906
X6.3811Y-2.5138
X6.6421Y-3.7795
X6.8402Y-2.7705
X7.0567Y-3.5366
X7.4187Y-4.1801
X7.9713Y-2.9189
X8.0524Y-3.8484
X8.2929Y-2.8343
X9.124Y-2.8563
T2
X5.145Y-4.2
X5.1452Y-2.915
X5.1452Y-3.015
X5.1452Y-3.115
X5.1452Y-3.215
X5.1452Y-3.315
X5.1452Y-3.415
X5.1452Y-3.515
X5.1452Y-3.615
X5.1452Y-3.715
X5.245Y-4.2
X5.345Y-4.2
X5.445Y-4.2
X5.6496Y-2.437
X5.7496Y-2.437
X5.8068Y-2.818
X5.8068Y-2.918
X5.8068Y-3.018
X5.8068Y-3.118
X5.8068Y-3.218
X5.8068Y-3.318
X5.8068Y-3.418
X5.8068Y-3.518
X5.8068Y-3.618
X5.8068Y-3.718
X5.8168Y-3.859
X5.8496Y-2.437
X5.8851Y-4.2
X5.9168Y-3.859
X5.9496Y-2.437
X5.9851Y-4.2
X6.0168Y-3.859
X6.0496Y-2.437
X6.0851Y-4.2
X6.1168Y-3.859
X6.1496Y-2.437
X6.1851Y-4.2
X6.2168Y-3.859
X6.2496Y-2.437
X6.2583Y-4.0362
X6.3168Y-3.859
X6.3496Y-2.437
X6.3583Y-4.0362
X6.4138Y-2.678
X6.4168Y-3.859
X6.4583Y-4.0362
X6.5138Y-2.678
X6.5168Y-3.859
X6.5583Y-4.0362
X6.6138Y-2.678
X6.6168Y-3.859
X6.6189Y-2.437
X6.6253Y-4.2
X6.6583Y-4.0362
X6.7138Y-2.678
X6.7168Y-3.859
X6.7189Y-2.437
X6.7253Y-4.2
X6.7583Y-4.0362
X6.8138Y-2.678
X6.8168Y-3.859
X6.8189Y-2.437
X6.8253Y-4.2
X6.8583Y-4.0362
X6.9138Y-2.678
X6.9168Y-3.859
X6.9189Y-2.437
X6.9208Y-2.819
X6.9208Y-2.919
X6.9208Y-3.019
X6.9208Y-3.119
X6.9208Y-3.219
X6.9208Y-3.319
X6.9208Y-3.419
X6.9208Y-3.519
X6.9208Y-3.619
X6.9208Y-3.719
X6.9253Y-4.2
X7.0189Y-2.437
X7.1189Y-2.437
X7.2189Y-2.437
X7.3189Y-2.437
X7.3654Y-4.2
X7.4654Y-4.2
X7.5654Y-4.2
X7.646Y-3.115
X7.646Y-3.215
X7.646Y-3.315
X7.646Y-3.415
X7.646Y-3.515
X7.6654Y-4.2
X9.2041Y-2.9232
X9.3041Y-2.9232
X9.5295Y-2.7071
X9.5295Y-2.8071
T3
X3.26Y-3.2031
X3.26Y-3.4
X3.7521Y-3.2031
X3.7521Y-3.4
X3.8696Y-2.628
X3.8696Y-2.8248
X3.871Y-3.772
X3.871Y-3.9689
X4.3617Y-2.628
X4.3617Y-2.8248
X4.3631Y-3.772
X4.3631Y-3.9689
X4.4793Y-3.1992
X4.4793Y-3.3961
X4.9714Y-3.1992
X4.9714Y-3.3961
X7.835Y-3.205
X7.835Y-3.4019
X8.3271Y-3.205
X8.3271Y-3.4019
X8.445Y-3.775
X8.445Y-3.9719
X8.4492Y-2.6268
X8.4492Y-2.8236
X8.9371Y-3.775
X8.9371Y-3.9719
X8.9413Y-2.6268
X8.9413Y-2.8236
X9.0622Y-3.1953
X9.0622Y-3.3921
X9.5543Y-3.1953
X9.5543Y-3.3921
T4
X5.2042Y-2.6437
X5.2042Y-3.9862
X7.6137Y-2.6437
X7.6137Y-3.9862
M30
